<?xml version="1.0" encoding="utf-8"?>
<!-- Generator: Adobe Illustrator 16.0.0, SVG Export Plug-In . SVG Version: 6.00 Build 0)  -->
<!DOCTYPE svg PUBLIC "-//W3C//DTD SVG 1.1//EN" "http://www.w3.org/Graphics/SVG/1.1/DTD/svg11.dtd">
<svg version="1.1" id="Layer_1" xmlns="http://www.w3.org/2000/svg" xmlns:xlink="http://www.w3.org/1999/xlink" x="0px" y="0px"
	 width="262.183px" height="330.81px" viewBox="0 0 262.183 330.81" enable-background="new 0 0 262.183 330.81"
	 xml:space="preserve">
<g>
	<g>
		<g>
			<line fill="none" stroke="#C9C9C0" stroke-width="4" stroke-miterlimit="10" x1="35.7" y1="42.81" x2="35.7" y2="47.61"/>
			
				<line fill="none" stroke="#C9C9C0" stroke-width="4" stroke-miterlimit="10" stroke-dasharray="9.3269,9.3269" x1="35.7" y1="56.937" x2="35.7" y2="313.426"/>
			<line fill="none" stroke="#C9C9C0" stroke-width="4" stroke-miterlimit="10" x1="35.7" y1="318.089" x2="35.7" y2="322.89"/>
		</g>
	</g>
	<polygon fill="#C9C9C0" points="35.7,330.81 28.263,319.762 43.139,319.762 	"/>
	<g>
		<g>
			<g>
				<line fill="none" stroke="#C9C9C0" stroke-width="4" stroke-miterlimit="10" x1="141.309" y1="42.81" x2="141.309" y2="47.61"/>
				
					<line fill="none" stroke="#C9C9C0" stroke-width="4" stroke-miterlimit="10" stroke-dasharray="9.3269,9.3269" x1="141.309" y1="56.937" x2="141.309" y2="313.426"/>
				
					<line fill="none" stroke="#C9C9C0" stroke-width="4" stroke-miterlimit="10" x1="141.309" y1="318.089" x2="141.309" y2="322.89"/>
			</g>
		</g>
		<polygon fill="#C9C9C0" points="141.309,330.81 133.871,319.762 148.746,319.762 		"/>
	</g>
	<g>
		<g>
			<g>
				<line fill="none" stroke="#C9C9C0" stroke-width="4" stroke-miterlimit="10" x1="246.917" y1="42.81" x2="246.917" y2="47.61"/>
				
					<line fill="none" stroke="#C9C9C0" stroke-width="4" stroke-miterlimit="10" stroke-dasharray="9.3269,9.3269" x1="246.917" y1="56.937" x2="246.917" y2="313.426"/>
				
					<line fill="none" stroke="#C9C9C0" stroke-width="4" stroke-miterlimit="10" x1="246.917" y1="318.089" x2="246.917" y2="322.89"/>
			</g>
		</g>
		<polygon fill="#C9C9C0" points="246.916,330.81 239.479,319.762 254.354,319.762 		"/>
	</g>
	
		<rect x="132.098" y="205.948" transform="matrix(0.7071 0.7071 -0.7071 0.7071 193.777 -36.9989)" fill="#FFFFFF" stroke="#2F89AF" stroke-width="8" stroke-miterlimit="10" width="18.901" height="18.901"/>
	<circle fill="#FFFFFF" stroke="#2FD8AC" stroke-width="8" stroke-miterlimit="10" cx="35.82" cy="117.73" r="10.908"/>
	<circle fill="#FFFFFF" stroke="#2F89AF" stroke-width="8" stroke-miterlimit="10" cx="247.275" cy="114.603" r="10.907"/>
	<circle fill="#FFFFFF" stroke="#2F89AF" stroke-width="8" stroke-miterlimit="10" cx="247.275" cy="245.74" r="10.907"/>
	<circle fill="#FFFFFF" stroke="#2F89AF" stroke-width="8" stroke-miterlimit="10" cx="247.275" cy="173.4" r="10.907"/>
	<g>
		<g>
			<line fill="none" stroke="#C9C9C0" stroke-width="4" stroke-miterlimit="10" x1="215.151" y1="118.744" x2="57.887" y2="118.8"/>
			<g>
				<polygon fill="#C9C9C0" points="212.814,110.767 226.634,118.74 212.82,126.723 				"/>
			</g>
		</g>
	</g>
	<g>
		<g>
			
				<line fill="none" stroke="#C9C9C0" stroke-width="4" stroke-miterlimit="10" x1="174.733" y1="203.87" x2="227.768" y2="180.193"/>
			<g>
				<polygon fill="#C9C9C0" points="180.118,210.203 164.249,208.55 173.613,195.633 				"/>
			</g>
		</g>
	</g>
	<g>
		<g>
			
				<line fill="none" stroke="#C9C9C0" stroke-width="4" stroke-miterlimit="10" x1="217.538" y1="236.969" x2="168.786" y2="219.326"/>
			<g>
				<polygon fill="#C9C9C0" points="218.058,228.673 228.335,240.877 212.628,243.677 				"/>
			</g>
		</g>
	</g>
	<g>
		<path fill="#C9C9C0" d="M0,11.68V0.098h4.323c0.957,0,1.794,0.152,2.512,0.456c0.718,0.305,1.318,0.718,1.803,1.24
			C9.121,2.316,9.485,2.928,9.73,3.629s0.367,1.449,0.367,2.243c0,0.881-0.136,1.678-0.408,2.39
			c-0.271,0.712-0.66,1.321-1.166,1.827s-1.115,0.897-1.827,1.174S5.192,11.68,4.323,11.68H0z M7.373,5.873
			c0-0.511-0.067-0.976-0.204-1.395c-0.136-0.419-0.334-0.78-0.595-1.085S5.992,2.854,5.611,2.691
			c-0.38-0.163-0.81-0.245-1.288-0.245H2.675v6.884h1.648c0.489,0,0.924-0.087,1.305-0.261s0.699-0.416,0.954-0.726
			c0.256-0.31,0.451-0.674,0.587-1.093C7.306,6.833,7.373,6.373,7.373,5.873z"/>
		<path fill="#C9C9C0" d="M19.836,9.331v2.349h-8.14V0.098h7.993v2.349h-5.318v2.251h4.567v2.17h-4.567v2.463H19.836z"/>
		<path fill="#C9C9C0" d="M23.147,0.098l2.74,8.221l2.691-8.221h2.822L26.997,11.68h-2.234L20.325,0.098H23.147z"/>
		<path fill="#C9C9C0" d="M40.602,9.331v2.349h-8.14V0.098h7.993v2.349h-5.318v2.251h4.567v2.17h-4.567v2.463H40.602z"/>
		<path fill="#C9C9C0" d="M42.266,11.68V0.098h2.675v9.232h5.612v2.349H42.266z"/>
		<path fill="#C9C9C0" d="M56.376,11.778c-0.826,0-1.577-0.169-2.251-0.506c-0.675-0.337-1.253-0.78-1.737-1.33
			s-0.859-1.177-1.125-1.884c-0.268-0.707-0.4-1.436-0.4-2.186c0-0.761,0.139-1.495,0.416-2.202s0.663-1.33,1.158-1.868
			c0.495-0.538,1.082-0.968,1.762-1.289s1.422-0.481,2.227-0.481c0.826,0,1.577,0.168,2.252,0.506
			c0.674,0.337,1.253,0.783,1.736,1.337c0.484,0.555,0.857,1.186,1.118,1.893s0.392,1.425,0.392,2.153
			c0,0.761-0.139,1.495-0.416,2.202s-0.661,1.33-1.15,1.868c-0.489,0.538-1.074,0.97-1.754,1.296
			C57.923,11.615,57.181,11.778,56.376,11.778z M53.587,5.905c0,0.446,0.062,0.879,0.188,1.297c0.125,0.419,0.305,0.792,0.538,1.118
			s0.527,0.587,0.881,0.783c0.354,0.196,0.759,0.294,1.216,0.294c0.467,0,0.875-0.104,1.223-0.31
			c0.349-0.207,0.639-0.476,0.873-0.807c0.234-0.332,0.408-0.707,0.521-1.126c0.115-0.418,0.172-0.845,0.172-1.28
			c0-0.446-0.062-0.878-0.188-1.297s-0.308-0.789-0.547-1.109c-0.239-0.32-0.533-0.576-0.881-0.767s-0.745-0.286-1.19-0.286
			c-0.468,0-0.876,0.101-1.224,0.302s-0.639,0.465-0.873,0.791c-0.233,0.326-0.41,0.699-0.529,1.117
			C53.646,5.043,53.587,5.47,53.587,5.905z"/>
		<path fill="#C9C9C0" d="M63.488,11.68V0.098h4.942c0.555,0,1.062,0.114,1.525,0.342c0.462,0.228,0.859,0.528,1.191,0.897
			c0.331,0.37,0.592,0.789,0.782,1.256c0.19,0.468,0.286,0.941,0.286,1.419c0,0.511-0.09,1-0.27,1.468s-0.43,0.887-0.75,1.256
			c-0.321,0.37-0.71,0.664-1.167,0.881c-0.456,0.218-0.962,0.326-1.517,0.326h-2.35v3.736H63.488z M66.163,5.611h2.187
			c0.315,0,0.587-0.136,0.815-0.408c0.229-0.271,0.343-0.669,0.343-1.191c0-0.272-0.036-0.505-0.106-0.702
			c-0.07-0.195-0.166-0.358-0.285-0.489c-0.12-0.13-0.256-0.226-0.408-0.285s-0.305-0.09-0.457-0.09h-2.088V5.611z"/>
	</g>
	<g>
		<path fill="#C9C9C0" d="M121.603,11.68V0.098h2.675V11.68H121.603z"/>
		<path fill="#C9C9C0" d="M133.461,3.491c-0.044-0.043-0.163-0.125-0.358-0.245c-0.196-0.12-0.44-0.245-0.734-0.375
			c-0.293-0.13-0.614-0.244-0.963-0.342c-0.348-0.098-0.695-0.147-1.043-0.147c-0.457,0-0.808,0.082-1.053,0.245
			c-0.244,0.163-0.367,0.402-0.367,0.718c0,0.195,0.055,0.358,0.163,0.489c0.108,0.13,0.264,0.247,0.465,0.351
			s0.451,0.198,0.751,0.285c0.299,0.087,0.645,0.186,1.035,0.294c0.555,0.152,1.055,0.318,1.501,0.498s0.826,0.402,1.142,0.668
			c0.315,0.267,0.558,0.59,0.727,0.971c0.168,0.381,0.253,0.838,0.253,1.37c0,0.653-0.122,1.205-0.367,1.656
			s-0.568,0.815-0.971,1.093s-0.867,0.479-1.395,0.604c-0.528,0.125-1.068,0.188-1.623,0.188c-0.425,0-0.856-0.032-1.297-0.098
			s-0.873-0.16-1.297-0.286c-0.425-0.125-0.838-0.274-1.24-0.449c-0.402-0.174-0.772-0.375-1.108-0.604l1.174-2.333
			c0.055,0.054,0.201,0.158,0.44,0.31s0.532,0.305,0.881,0.457c0.349,0.153,0.739,0.289,1.175,0.408
			c0.435,0.12,0.875,0.18,1.321,0.18c0.946,0,1.419-0.288,1.419-0.865c0-0.217-0.07-0.397-0.212-0.538s-0.337-0.269-0.587-0.383
			c-0.251-0.114-0.544-0.221-0.881-0.318c-0.338-0.098-0.707-0.206-1.109-0.326c-0.533-0.163-0.995-0.34-1.387-0.53
			c-0.392-0.19-0.718-0.41-0.979-0.66c-0.262-0.25-0.455-0.539-0.579-0.865c-0.126-0.326-0.188-0.707-0.188-1.142
			c0-0.609,0.115-1.147,0.343-1.615c0.229-0.467,0.538-0.861,0.931-1.183c0.391-0.32,0.845-0.562,1.361-0.726S129.866,0,130.443,0
			c0.413,0,0.815,0.038,1.207,0.114c0.392,0.076,0.764,0.174,1.117,0.294c0.354,0.12,0.688,0.256,1.004,0.408
			c0.315,0.153,0.598,0.305,0.848,0.457L133.461,3.491z"/>
		<path fill="#C9C9C0" d="M143.51,3.491c-0.044-0.043-0.163-0.125-0.358-0.245c-0.196-0.12-0.441-0.245-0.734-0.375
			c-0.294-0.13-0.615-0.244-0.963-0.342s-0.695-0.147-1.044-0.147c-0.456,0-0.808,0.082-1.052,0.245
			c-0.245,0.163-0.367,0.402-0.367,0.718c0,0.195,0.055,0.358,0.163,0.489c0.108,0.13,0.264,0.247,0.465,0.351
			s0.451,0.198,0.751,0.285c0.299,0.087,0.644,0.186,1.035,0.294c0.555,0.152,1.055,0.318,1.501,0.498s0.826,0.402,1.142,0.668
			c0.315,0.267,0.558,0.59,0.727,0.971c0.168,0.381,0.252,0.838,0.252,1.37c0,0.653-0.122,1.205-0.366,1.656
			c-0.245,0.451-0.569,0.815-0.971,1.093c-0.403,0.277-0.868,0.479-1.396,0.604s-1.068,0.188-1.623,0.188
			c-0.424,0-0.855-0.032-1.297-0.098c-0.439-0.065-0.872-0.16-1.297-0.286c-0.424-0.125-0.837-0.274-1.239-0.449
			c-0.402-0.174-0.772-0.375-1.109-0.604l1.175-2.333c0.055,0.054,0.201,0.158,0.44,0.31s0.532,0.305,0.881,0.457
			c0.348,0.153,0.739,0.289,1.175,0.408c0.435,0.12,0.875,0.18,1.32,0.18c0.947,0,1.42-0.288,1.42-0.865
			c0-0.217-0.071-0.397-0.212-0.538c-0.142-0.141-0.337-0.269-0.588-0.383c-0.25-0.114-0.544-0.221-0.881-0.318
			s-0.707-0.206-1.108-0.326c-0.533-0.163-0.996-0.34-1.387-0.53c-0.392-0.19-0.718-0.41-0.979-0.66
			c-0.262-0.25-0.455-0.539-0.58-0.865c-0.125-0.326-0.188-0.707-0.188-1.142c0-0.609,0.114-1.147,0.343-1.615
			c0.229-0.467,0.538-0.861,0.93-1.183c0.392-0.32,0.846-0.562,1.362-0.726S139.915,0,140.492,0c0.413,0,0.815,0.038,1.207,0.114
			c0.392,0.076,0.764,0.174,1.117,0.294c0.354,0.12,0.688,0.256,1.003,0.408c0.315,0.153,0.599,0.305,0.849,0.457L143.51,3.491z"/>
		<path fill="#C9C9C0" d="M151.552,9.396c0.457,0,0.843-0.095,1.158-0.286c0.315-0.19,0.57-0.443,0.767-0.758
			s0.335-0.677,0.416-1.085c0.081-0.408,0.122-0.824,0.122-1.248V0.098h2.676v5.921c0,0.805-0.102,1.556-0.302,2.251
			c-0.202,0.696-0.512,1.306-0.931,1.827c-0.418,0.522-0.951,0.933-1.598,1.231c-0.647,0.3-1.417,0.449-2.309,0.449
			c-0.925,0-1.713-0.158-2.365-0.474c-0.652-0.315-1.183-0.736-1.591-1.264c-0.407-0.527-0.707-1.14-0.897-1.835
			c-0.189-0.696-0.285-1.424-0.285-2.186V0.098h2.676v5.921c0,0.446,0.043,0.87,0.13,1.272s0.229,0.762,0.425,1.077
			c0.195,0.316,0.448,0.566,0.758,0.75C150.712,9.304,151.095,9.396,151.552,9.396z"/>
		<path fill="#C9C9C0" d="M166.886,9.331v2.349h-8.141V0.098h7.993v2.349h-5.317v2.251h4.567v2.17h-4.567v2.463H166.886z"/>
	</g>
	<g>
		<path fill="#C9C9C0" d="M241.877,10.978c-0.413,0.25-0.851,0.443-1.313,0.579c-0.462,0.136-0.954,0.204-1.476,0.204
			c-0.827,0-1.577-0.166-2.251-0.498c-0.675-0.332-1.254-0.772-1.738-1.321c-0.483-0.549-0.858-1.177-1.125-1.884
			c-0.267-0.707-0.399-1.436-0.399-2.186c0-0.761,0.139-1.495,0.416-2.202s0.663-1.332,1.158-1.876
			c0.494-0.544,1.081-0.976,1.762-1.297c0.679-0.321,1.421-0.481,2.227-0.481c0.826,0,1.576,0.171,2.251,0.514
			c0.674,0.343,1.253,0.792,1.737,1.346c0.483,0.555,0.856,1.186,1.117,1.893s0.392,1.425,0.392,2.153
			c0,0.718-0.119,1.4-0.359,2.047c-0.238,0.647-0.57,1.237-0.994,1.771l1.762,1.941h-2.529L241.877,10.978z M239.12,9.379
			c0.413,0,0.777-0.081,1.093-0.244l-1.827-2.023h2.513l0.604,0.669c0.271-0.598,0.407-1.234,0.407-1.908
			c0-0.446-0.062-0.878-0.188-1.297s-0.307-0.789-0.546-1.109c-0.239-0.32-0.533-0.579-0.881-0.775
			c-0.349-0.196-0.745-0.293-1.19-0.293c-0.469,0-0.876,0.101-1.225,0.302c-0.348,0.201-0.639,0.468-0.872,0.799
			c-0.234,0.332-0.411,0.707-0.53,1.125c-0.12,0.419-0.18,0.846-0.18,1.28c0,0.446,0.062,0.879,0.188,1.297
			c0.125,0.419,0.305,0.789,0.539,1.109c0.233,0.321,0.527,0.579,0.881,0.775S238.663,9.379,239.12,9.379z"/>
		<path fill="#C9C9C0" d="M244.944,11.68l4.453-11.582h2.17l4.437,11.582h-2.839l-0.896-2.594h-3.605l-0.881,2.594H244.944z
			 M250.474,2.936l-1.387,4.307h2.725L250.474,2.936z"/>
	</g>
</g>
</svg>
