<?xml version="1.0" encoding="utf-8"?>
<!-- Generator: Adobe Illustrator 16.0.0, SVG Export Plug-In . SVG Version: 6.00 Build 0)  -->
<!DOCTYPE svg PUBLIC "-//W3C//DTD SVG 1.1//EN" "http://www.w3.org/Graphics/SVG/1.1/DTD/svg11.dtd">
<svg version="1.1" id="Layer_1" xmlns="http://www.w3.org/2000/svg" xmlns:xlink="http://www.w3.org/1999/xlink" x="0px" y="0px"
	 width="174.639px" height="449.35px" viewBox="0 0 174.639 449.35" enable-background="new 0 0 174.639 449.35"
	 xml:space="preserve">
<g>
	<g>
		<g>
			<g>
				<line fill="none" stroke="#C9C9C0" stroke-width="4" stroke-miterlimit="10" x1="32.515" y1="42.777" x2="32.515" y2="47.577"/>
				
					<line fill="none" stroke="#C9C9C0" stroke-width="4" stroke-miterlimit="10" stroke-dasharray="9.4891,9.4891" x1="32.515" y1="57.066" x2="32.515" y2="431.886"/>
				
					<line fill="none" stroke="#C9C9C0" stroke-width="4" stroke-miterlimit="10" x1="32.515" y1="436.631" x2="32.515" y2="441.431"/>
			</g>
		</g>
		<polygon fill="#C9C9C0" points="32.515,449.35 25.078,438.303 39.953,438.303 		"/>
	</g>
	<g>
		<g>
			
				<line fill="none" stroke="#C9C9C0" stroke-width="4" stroke-miterlimit="10" x1="138.123" y1="42.777" x2="138.123" y2="47.577"/>
			
				<line fill="none" stroke="#C9C9C0" stroke-width="4" stroke-miterlimit="10" stroke-dasharray="9.4891,9.4891" x1="138.123" y1="57.066" x2="138.123" y2="431.886"/>
			
				<line fill="none" stroke="#C9C9C0" stroke-width="4" stroke-miterlimit="10" x1="138.123" y1="436.631" x2="138.123" y2="441.431"/>
		</g>
	</g>
	<polygon fill="#C9C9C0" points="138.123,449.35 130.686,438.303 145.562,438.303 	"/>
	
		<rect x="23.065" y="140.647" transform="matrix(0.7071 0.7071 -0.7071 0.7071 115.6563 20.9691)" fill="#FFFFFF" stroke="#2FD8AC" stroke-width="8" stroke-miterlimit="10" width="18.901" height="18.901"/>
	
		<rect x="23.065" y="279.569" transform="matrix(0.7071 0.7071 -0.7071 0.7071 213.8994 61.6664)" fill="#FFFFFF" stroke="#2FD8AC" stroke-width="8" stroke-miterlimit="10" width="18.902" height="18.901"/>
	<circle fill="#FFFFFF" stroke="#2FD8AC" stroke-width="8" stroke-miterlimit="10" cx="138.243" cy="109.152" r="10.908"/>
	<circle fill="#FFFFFF" stroke="#2FD8AC" stroke-width="8" stroke-miterlimit="10" cx="138.243" cy="171.285" r="10.908"/>
	<circle fill="#FFFFFF" stroke="#2FD8AC" stroke-width="8" stroke-miterlimit="10" cx="138.243" cy="250.485" r="10.908"/>
	<circle fill="#FFFFFF" stroke="#2FD8AC" stroke-width="8" stroke-miterlimit="10" cx="138.243" cy="291.476" r="10.908"/>
	<circle fill="#FFFFFF" stroke="#2FD8AC" stroke-width="8" stroke-miterlimit="10" cx="138.243" cy="363.552" r="10.908"/>
	<polygon fill="#C9C9C0" points="32.515,449.35 25.078,438.303 39.953,438.303 	"/>
	<g>
		<g>
			
				<line fill="none" stroke="#C9C9C0" stroke-width="4" stroke-miterlimit="10" x1="67.119" y1="141.815" x2="120.884" y2="114.485"/>
			<g>
				<polygon fill="#C9C9C0" points="72.815,147.87 56.884,147.019 65.585,133.646 				"/>
			</g>
		</g>
	</g>
	<g>
		<g>
			
				<line fill="none" stroke="#C9C9C0" stroke-width="4" stroke-miterlimit="10" x1="58.614" y1="271.974" x2="121.417" y2="181.152"/>
			<g>
				<polygon fill="#C9C9C0" points="66.504,274.592 52.084,281.418 53.38,265.517 				"/>
			</g>
		</g>
	</g>
	<g>
		<g>
			
				<line fill="none" stroke="#C9C9C0" stroke-width="4" stroke-miterlimit="10" x1="109.559" y1="346.41" x2="52.084" y2="296.352"/>
			<g>
				<polygon fill="#C9C9C0" points="113.038,338.861 118.217,353.952 102.559,350.894 				"/>
			</g>
		</g>
	</g>
	<g>
		<g>
			
				<line fill="none" stroke="#C9C9C0" stroke-width="4" stroke-miterlimit="10" x1="113.545" y1="232.588" x2="52.617" y2="159.285"/>
			<g>
				<polygon fill="#C9C9C0" points="118.188,225.693 120.884,241.418 105.917,235.893 				"/>
			</g>
		</g>
	</g>
	<g>
		<g>
			
				<line fill="none" stroke="#C9C9C0" stroke-width="4" stroke-miterlimit="10" x1="71.566" y1="290.485" x2="117.15" y2="290.485"/>
			<g>
				<polygon fill="#C9C9C0" points="73.9,298.463 60.084,290.485 73.9,282.507 				"/>
			</g>
		</g>
	</g>
	<g>
		<path fill="#C9C9C0" d="M0,11.647V0.065h7.863v2.349H2.676V4.91h4.273v2.17H2.676v4.567H0z"/>
		<path fill="#C9C9C0" d="M17.356,9.298v2.349h-8.14V0.065h7.992v2.349h-5.317v2.251h4.567v2.169h-4.567v2.463H17.356z"/>
		<path fill="#C9C9C0" d="M17.879,11.647l4.453-11.582h2.17l4.437,11.582H26.1l-0.896-2.594h-3.605l-0.881,2.594H17.879z
			 M23.408,2.904L22.021,7.21h2.725L23.408,2.904z"/>
		<path fill="#C9C9C0" d="M37.779,2.415h-3.523v9.233h-2.675V2.415h-3.54V0.065h9.738V2.415z"/>
		<path fill="#C9C9C0" d="M44.061,9.364c0.456,0,0.842-0.095,1.158-0.286c0.314-0.19,0.57-0.443,0.766-0.758
			c0.196-0.315,0.335-0.677,0.416-1.085c0.082-0.408,0.123-0.824,0.123-1.248V0.065h2.675v5.922c0,0.805-0.101,1.555-0.302,2.251
			s-0.512,1.305-0.93,1.827c-0.419,0.521-0.951,0.933-1.599,1.231s-1.417,0.448-2.308,0.448c-0.925,0-1.713-0.157-2.366-0.473
			c-0.652-0.315-1.183-0.737-1.59-1.265c-0.408-0.527-0.707-1.139-0.897-1.835c-0.19-0.696-0.285-1.425-0.285-2.186V0.065h2.675
			v5.922c0,0.446,0.044,0.87,0.131,1.272c0.087,0.403,0.228,0.761,0.424,1.077s0.448,0.565,0.759,0.75
			C43.22,9.271,43.604,9.364,44.061,9.364z"/>
		<path fill="#C9C9C0" d="M51.254,11.647V0.065h5.22c0.544,0,1.046,0.114,1.509,0.343c0.462,0.229,0.861,0.527,1.199,0.897
			c0.337,0.369,0.601,0.788,0.791,1.256s0.285,0.94,0.285,1.419c0,0.359-0.043,0.704-0.131,1.036
			c-0.087,0.332-0.211,0.644-0.375,0.938c-0.162,0.294-0.361,0.558-0.595,0.792c-0.234,0.234-0.498,0.432-0.792,0.595l2.659,4.307
			h-3.018l-2.333-3.735h-1.745v3.735H51.254z M53.929,5.579h2.447c0.315,0,0.587-0.149,0.815-0.448
			c0.229-0.299,0.343-0.683,0.343-1.15c0-0.479-0.131-0.859-0.392-1.142c-0.262-0.283-0.544-0.424-0.849-0.424h-2.365V5.579z"/>
		<path fill="#C9C9C0" d="M70.486,9.298v2.349h-8.141V0.065h7.993v2.349h-5.317v2.251h4.567v2.169h-4.567v2.463H70.486z"/>
	</g>
	<g>
		<path fill="#C9C9C0" d="M102.423,11.647V0.065h4.323c0.957,0,1.794,0.152,2.512,0.457s1.318,0.718,1.803,1.239
			c0.483,0.522,0.848,1.134,1.093,1.835s0.367,1.449,0.367,2.243c0,0.881-0.136,1.678-0.408,2.39
			c-0.271,0.712-0.66,1.321-1.166,1.827c-0.506,0.506-1.115,0.897-1.827,1.175s-1.504,0.416-2.373,0.416H102.423z M109.796,5.84
			c0-0.511-0.067-0.976-0.204-1.395c-0.136-0.418-0.334-0.78-0.595-1.085c-0.261-0.304-0.582-0.538-0.963-0.701
			c-0.38-0.163-0.81-0.245-1.288-0.245h-1.648v6.884h1.648c0.489,0,0.924-0.087,1.305-0.261c0.381-0.174,0.699-0.416,0.954-0.726
			c0.256-0.31,0.451-0.674,0.587-1.093C109.729,6.8,109.796,6.341,109.796,5.84z"/>
		<path fill="#C9C9C0" d="M122.259,9.298v2.349h-8.14V0.065h7.993v2.349h-5.318v2.251h4.567v2.169h-4.567v2.463H122.259z"/>
		<path fill="#C9C9C0" d="M125.57,0.065l2.74,8.222l2.691-8.222h2.822l-4.404,11.582h-2.234l-4.438-11.582H125.57z"/>
		<path fill="#C9C9C0" d="M143.024,9.298v2.349h-8.14V0.065h7.993v2.349h-5.318v2.251h4.567v2.169h-4.567v2.463H143.024z"/>
		<path fill="#C9C9C0" d="M144.688,11.647V0.065h2.675v9.233h5.612v2.349H144.688z"/>
		<path fill="#C9C9C0" d="M158.799,11.745c-0.826,0-1.577-0.168-2.251-0.505c-0.675-0.337-1.253-0.78-1.737-1.33
			c-0.484-0.549-0.859-1.177-1.125-1.884c-0.268-0.707-0.4-1.436-0.4-2.187c0-0.761,0.139-1.495,0.416-2.202
			c0.277-0.707,0.663-1.329,1.158-1.867c0.495-0.539,1.082-0.968,1.762-1.289c0.68-0.32,1.422-0.481,2.227-0.481
			c0.826,0,1.577,0.169,2.252,0.506c0.674,0.337,1.253,0.783,1.736,1.338c0.484,0.555,0.857,1.186,1.118,1.892
			c0.261,0.707,0.392,1.425,0.392,2.153c0,0.761-0.139,1.496-0.416,2.202c-0.277,0.707-0.661,1.33-1.15,1.868
			s-1.074,0.971-1.754,1.297S159.604,11.745,158.799,11.745z M156.01,5.873c0,0.446,0.062,0.878,0.188,1.297
			c0.125,0.418,0.305,0.791,0.538,1.117s0.527,0.587,0.881,0.783c0.354,0.195,0.759,0.293,1.216,0.293
			c0.467,0,0.875-0.103,1.223-0.31c0.349-0.206,0.639-0.476,0.873-0.808c0.234-0.331,0.408-0.707,0.521-1.125
			c0.115-0.419,0.172-0.846,0.172-1.281c0-0.445-0.062-0.878-0.188-1.296s-0.308-0.789-0.547-1.109s-0.533-0.576-0.881-0.767
			c-0.348-0.19-0.745-0.286-1.19-0.286c-0.468,0-0.876,0.101-1.224,0.302s-0.639,0.465-0.873,0.791
			c-0.233,0.326-0.41,0.699-0.529,1.118C156.069,5.011,156.01,5.438,156.01,5.873z"/>
		<path fill="#C9C9C0" d="M165.911,11.647V0.065h4.942c0.555,0,1.062,0.114,1.525,0.343c0.462,0.229,0.859,0.527,1.191,0.897
			c0.331,0.369,0.592,0.788,0.782,1.256s0.286,0.94,0.286,1.419c0,0.512-0.09,1.001-0.27,1.468c-0.18,0.468-0.43,0.886-0.75,1.256
			c-0.321,0.37-0.71,0.663-1.167,0.881c-0.456,0.217-0.962,0.326-1.517,0.326h-2.35v3.735H165.911z M168.586,5.579h2.187
			c0.315,0,0.587-0.136,0.815-0.408s0.343-0.668,0.343-1.191c0-0.271-0.036-0.506-0.106-0.701c-0.07-0.196-0.166-0.359-0.285-0.489
			c-0.12-0.131-0.256-0.226-0.408-0.286s-0.305-0.09-0.457-0.09h-2.088V5.579z"/>
	</g>
</g>
</svg>
