<?xml version="1.0" encoding="utf-8"?>
<!-- Generator: Adobe Illustrator 16.0.0, SVG Export Plug-In . SVG Version: 6.00 Build 0)  -->
<!DOCTYPE svg PUBLIC "-//W3C//DTD SVG 1.1//EN" "http://www.w3.org/Graphics/SVG/1.1/DTD/svg11.dtd">
<svg version="1.1" id="Layer_1" xmlns="http://www.w3.org/2000/svg" xmlns:xlink="http://www.w3.org/1999/xlink" x="0px" y="0px"
	 width="425.041px" height="261.308px" viewBox="0 0 425.041 261.308" enable-background="new 0 0 425.041 261.308"
	 xml:space="preserve">
<g>
	<g>
		<g>
			<line fill="none" stroke="#C9C9C0" stroke-width="4" stroke-miterlimit="10" x1="35.7" y1="42.81" x2="35.7" y2="47.61"/>
			
				<line fill="none" stroke="#C9C9C0" stroke-width="4" stroke-miterlimit="10" stroke-dasharray="9.757,9.757" x1="35.7" y1="57.366" x2="35.7" y2="247.63"/>
			<line fill="none" stroke="#C9C9C0" stroke-width="4" stroke-miterlimit="10" x1="35.7" y1="252.509" x2="35.7" y2="257.308"/>
		</g>
	</g>
	<g>
		<g>
			<line fill="none" stroke="#C9C9C0" stroke-width="4" stroke-miterlimit="10" x1="141.309" y1="42.81" x2="141.309" y2="47.61"/>
			
				<line fill="none" stroke="#C9C9C0" stroke-width="4" stroke-miterlimit="10" stroke-dasharray="9.757,9.757" x1="141.309" y1="57.366" x2="141.309" y2="247.63"/>
			
				<line fill="none" stroke="#C9C9C0" stroke-width="4" stroke-miterlimit="10" x1="141.309" y1="252.509" x2="141.309" y2="257.308"/>
		</g>
	</g>
	<g>
		<g>
			<line fill="none" stroke="#C9C9C0" stroke-width="4" stroke-miterlimit="10" x1="246.917" y1="42.81" x2="246.917" y2="47.61"/>
			
				<line fill="none" stroke="#C9C9C0" stroke-width="4" stroke-miterlimit="10" stroke-dasharray="9.757,9.757" x1="246.917" y1="57.366" x2="246.917" y2="247.63"/>
			
				<line fill="none" stroke="#C9C9C0" stroke-width="4" stroke-miterlimit="10" x1="246.917" y1="252.509" x2="246.917" y2="257.308"/>
		</g>
	</g>
	<g>
		<path fill="#C9C9C0" d="M0,11.68V0.098h4.323c0.956,0,1.794,0.152,2.512,0.457s1.318,0.718,1.803,1.239
			C9.121,2.316,9.486,2.928,9.73,3.63c0.245,0.701,0.367,1.449,0.367,2.242c0,0.881-0.137,1.678-0.408,2.391
			c-0.271,0.712-0.66,1.32-1.166,1.826s-1.115,0.897-1.827,1.175S5.193,11.68,4.323,11.68H0z M7.373,5.872
			c0-0.511-0.067-0.976-0.203-1.395C7.033,4.06,6.835,3.697,6.574,3.393C6.312,3.089,5.992,2.854,5.611,2.691
			S4.801,2.446,4.323,2.446H2.676v6.885h1.647c0.489,0,0.924-0.088,1.305-0.262s0.698-0.416,0.954-0.726S7.033,7.67,7.17,7.251
			C7.306,6.832,7.373,6.373,7.373,5.872z"/>
		<path fill="#C9C9C0" d="M19.836,9.331v2.349h-8.14V0.098h7.993v2.349h-5.318v2.252h4.568v2.169h-4.568v2.464H19.836z"/>
		<path fill="#C9C9C0" d="M23.147,0.098l2.74,8.222l2.692-8.222h2.821L26.997,11.68h-2.234L20.325,0.098H23.147z"/>
		<path fill="#C9C9C0" d="M40.602,9.331v2.349h-8.14V0.098h7.993v2.349h-5.318v2.252h4.568v2.169h-4.568v2.464H40.602z"/>
		<path fill="#C9C9C0" d="M42.266,11.68V0.098h2.676v9.233h5.611v2.349H42.266z"/>
		<path fill="#C9C9C0" d="M56.376,11.777c-0.826,0-1.577-0.168-2.251-0.505c-0.674-0.338-1.254-0.781-1.737-1.33
			s-0.859-1.177-1.126-1.884c-0.266-0.707-0.399-1.436-0.399-2.187c0-0.761,0.139-1.495,0.416-2.202
			c0.277-0.706,0.663-1.329,1.158-1.867s1.082-0.968,1.762-1.289c0.68-0.32,1.422-0.481,2.227-0.481
			c0.827,0,1.577,0.169,2.251,0.506c0.675,0.338,1.254,0.783,1.738,1.338c0.483,0.555,0.855,1.186,1.117,1.893
			c0.261,0.707,0.391,1.424,0.391,2.152c0,0.762-0.139,1.496-0.416,2.203c-0.276,0.707-0.66,1.329-1.149,1.867
			s-1.074,0.971-1.754,1.297S57.181,11.777,56.376,11.777z M53.587,5.905c0,0.445,0.062,0.878,0.188,1.297
			c0.125,0.418,0.304,0.791,0.538,1.117s0.527,0.587,0.881,0.783c0.354,0.195,0.759,0.293,1.215,0.293
			c0.468,0,0.876-0.103,1.225-0.31c0.348-0.206,0.639-0.476,0.872-0.808c0.233-0.331,0.408-0.707,0.522-1.125
			c0.113-0.419,0.171-0.846,0.171-1.281c0-0.445-0.062-0.878-0.188-1.297c-0.125-0.418-0.308-0.788-0.547-1.109
			c-0.239-0.32-0.532-0.576-0.881-0.766c-0.348-0.19-0.745-0.286-1.19-0.286c-0.468,0-0.876,0.101-1.224,0.302
			c-0.349,0.201-0.639,0.465-0.872,0.791c-0.234,0.326-0.411,0.699-0.531,1.117C53.646,5.043,53.587,5.47,53.587,5.905z"/>
		<path fill="#C9C9C0" d="M63.488,11.68V0.098h4.942c0.555,0,1.063,0.114,1.525,0.343s0.858,0.527,1.19,0.897
			c0.332,0.369,0.593,0.788,0.783,1.256s0.285,0.94,0.285,1.419c0,0.512-0.089,1.001-0.269,1.469
			c-0.18,0.467-0.43,0.886-0.751,1.256c-0.32,0.369-0.709,0.663-1.166,0.881c-0.457,0.217-0.962,0.326-1.517,0.326h-2.35v3.735
			H63.488z M66.163,5.611h2.187c0.314,0,0.587-0.136,0.815-0.407c0.229-0.272,0.343-0.669,0.343-1.191
			c0-0.271-0.035-0.506-0.106-0.701s-0.166-0.359-0.285-0.489c-0.12-0.131-0.256-0.226-0.408-0.286
			c-0.152-0.06-0.305-0.09-0.456-0.09h-2.089V5.611z"/>
	</g>
	<g>
		<path fill="#C9C9C0" d="M121.602,11.68V0.098h2.676V11.68H121.602z"/>
		<path fill="#C9C9C0" d="M133.461,3.491c-0.043-0.044-0.163-0.125-0.358-0.245c-0.196-0.12-0.44-0.245-0.734-0.375
			c-0.294-0.131-0.614-0.245-0.962-0.343c-0.349-0.098-0.696-0.146-1.045-0.146c-0.456,0-0.807,0.081-1.052,0.244
			s-0.367,0.402-0.367,0.718c0,0.196,0.055,0.359,0.163,0.489c0.109,0.131,0.264,0.248,0.465,0.352s0.451,0.198,0.751,0.285
			c0.299,0.087,0.644,0.185,1.036,0.293c0.554,0.152,1.055,0.318,1.5,0.498c0.446,0.18,0.826,0.402,1.143,0.669
			c0.314,0.267,0.557,0.59,0.726,0.971c0.168,0.381,0.253,0.837,0.253,1.37c0,0.652-0.123,1.204-0.367,1.655
			c-0.245,0.452-0.568,0.815-0.971,1.093s-0.867,0.479-1.395,0.604c-0.527,0.125-1.068,0.188-1.623,0.188
			c-0.424,0-0.856-0.033-1.297-0.099c-0.44-0.064-0.873-0.16-1.297-0.285s-0.838-0.274-1.24-0.448s-0.771-0.376-1.109-0.604
			l1.175-2.333c0.055,0.055,0.201,0.158,0.44,0.311s0.533,0.304,0.881,0.456s0.739,0.288,1.175,0.408
			c0.435,0.119,0.875,0.179,1.321,0.179c0.946,0,1.419-0.287,1.419-0.864c0-0.218-0.071-0.396-0.212-0.538
			c-0.142-0.142-0.337-0.27-0.588-0.384c-0.25-0.114-0.543-0.22-0.881-0.317c-0.337-0.098-0.707-0.207-1.108-0.326
			c-0.533-0.164-0.995-0.34-1.387-0.53s-0.718-0.411-0.979-0.661c-0.262-0.25-0.454-0.538-0.579-0.864s-0.188-0.707-0.188-1.142
			c0-0.609,0.113-1.147,0.342-1.615s0.539-0.861,0.93-1.183c0.392-0.321,0.846-0.563,1.362-0.726C129.32,0.081,129.867,0,130.443,0
			c0.413,0,0.815,0.038,1.207,0.114s0.764,0.174,1.117,0.293c0.354,0.12,0.688,0.256,1.004,0.408
			c0.314,0.152,0.598,0.305,0.848,0.457L133.461,3.491z"/>
		<path fill="#C9C9C0" d="M143.51,3.491c-0.044-0.044-0.163-0.125-0.359-0.245c-0.195-0.12-0.439-0.245-0.733-0.375
			c-0.294-0.131-0.614-0.245-0.963-0.343c-0.348-0.098-0.696-0.146-1.044-0.146c-0.457,0-0.807,0.081-1.052,0.244
			s-0.367,0.402-0.367,0.718c0,0.196,0.054,0.359,0.163,0.489c0.108,0.131,0.264,0.248,0.465,0.352s0.451,0.198,0.75,0.285
			c0.3,0.087,0.645,0.185,1.036,0.293c0.555,0.152,1.055,0.318,1.501,0.498c0.445,0.18,0.826,0.402,1.142,0.669
			s0.558,0.59,0.726,0.971c0.169,0.381,0.254,0.837,0.254,1.37c0,0.652-0.123,1.204-0.367,1.655
			c-0.245,0.452-0.568,0.815-0.971,1.093s-0.867,0.479-1.395,0.604c-0.528,0.125-1.068,0.188-1.623,0.188
			c-0.425,0-0.857-0.033-1.297-0.099c-0.441-0.064-0.873-0.16-1.297-0.285c-0.425-0.125-0.838-0.274-1.24-0.448
			s-0.772-0.376-1.109-0.604l1.175-2.333c0.054,0.055,0.201,0.158,0.44,0.311s0.532,0.304,0.881,0.456
			c0.348,0.152,0.739,0.288,1.174,0.408c0.436,0.119,0.876,0.179,1.322,0.179c0.945,0,1.419-0.287,1.419-0.864
			c0-0.218-0.071-0.396-0.212-0.538c-0.142-0.142-0.338-0.27-0.588-0.384s-0.543-0.22-0.881-0.317
			c-0.337-0.098-0.707-0.207-1.109-0.326c-0.532-0.164-0.994-0.34-1.386-0.53s-0.718-0.411-0.979-0.661
			c-0.261-0.25-0.454-0.538-0.578-0.864c-0.126-0.326-0.188-0.707-0.188-1.142c0-0.609,0.114-1.147,0.343-1.615
			s0.538-0.861,0.93-1.183s0.846-0.563,1.362-0.726C139.369,0.081,139.915,0,140.492,0c0.413,0,0.815,0.038,1.207,0.114
			s0.764,0.174,1.117,0.293c0.354,0.12,0.688,0.256,1.004,0.408c0.314,0.152,0.598,0.305,0.848,0.457L143.51,3.491z"/>
		<path fill="#C9C9C0" d="M151.552,9.396c0.456,0,0.843-0.095,1.158-0.285c0.315-0.189,0.571-0.443,0.767-0.758
			c0.195-0.316,0.334-0.678,0.416-1.086c0.082-0.407,0.122-0.823,0.122-1.247V0.098h2.676V6.02c0,0.805-0.101,1.555-0.302,2.251
			s-0.512,1.305-0.93,1.827c-0.419,0.521-0.952,0.933-1.6,1.231c-0.646,0.299-1.416,0.448-2.308,0.448
			c-0.925,0-1.713-0.157-2.365-0.473s-1.183-0.737-1.591-1.265s-0.707-1.139-0.896-1.835c-0.191-0.696-0.286-1.425-0.286-2.186
			V0.098h2.675V6.02c0,0.446,0.044,0.87,0.131,1.272s0.229,0.761,0.424,1.076c0.196,0.315,0.449,0.565,0.759,0.75
			C150.712,9.304,151.095,9.396,151.552,9.396z"/>
		<path fill="#C9C9C0" d="M166.886,9.331v2.349h-8.141V0.098h7.993v2.349h-5.317v2.252h4.567v2.169h-4.567v2.464H166.886z"/>
	</g>
	<g>
		<path fill="#C9C9C0" d="M241.877,10.979c-0.413,0.25-0.852,0.442-1.312,0.579c-0.463,0.136-0.955,0.203-1.477,0.203
			c-0.827,0-1.577-0.165-2.252-0.497c-0.674-0.331-1.253-0.772-1.736-1.321c-0.484-0.549-0.859-1.177-1.126-1.884
			s-0.399-1.436-0.399-2.187c0-0.761,0.139-1.495,0.416-2.202c0.277-0.706,0.663-1.332,1.158-1.876
			c0.494-0.543,1.082-0.976,1.762-1.297c0.68-0.32,1.422-0.48,2.227-0.48c0.826,0,1.576,0.171,2.251,0.514
			c0.674,0.342,1.253,0.791,1.737,1.346c0.483,0.555,0.856,1.186,1.117,1.893c0.262,0.707,0.392,1.424,0.392,2.152
			c0,0.719-0.12,1.4-0.358,2.048c-0.24,0.647-0.571,1.237-0.996,1.77l1.763,1.941h-2.528L241.877,10.979z M239.12,9.38
			c0.413,0,0.777-0.082,1.093-0.245l-1.826-2.022h2.512l0.604,0.669c0.271-0.599,0.408-1.234,0.408-1.909
			c0-0.445-0.063-0.878-0.188-1.297c-0.126-0.418-0.309-0.788-0.547-1.109c-0.239-0.32-0.533-0.578-0.881-0.774
			c-0.349-0.196-0.745-0.294-1.191-0.294c-0.467,0-0.875,0.102-1.223,0.303c-0.349,0.201-0.64,0.467-0.873,0.799
			c-0.234,0.332-0.41,0.707-0.53,1.125c-0.12,0.419-0.18,0.846-0.18,1.281c0,0.445,0.062,0.878,0.188,1.297
			c0.124,0.418,0.304,0.788,0.537,1.109c0.234,0.32,0.528,0.578,0.882,0.774C238.258,9.282,238.663,9.38,239.12,9.38z"/>
		<path fill="#C9C9C0" d="M244.943,11.68l4.454-11.582h2.169l4.438,11.582h-2.838l-0.897-2.594h-3.605l-0.881,2.594H244.943z
			 M250.474,2.937l-1.386,4.307h2.724L250.474,2.937z"/>
	</g>
	<g>
		<path fill="#C9C9C0" d="M335.592,3.491c-0.043-0.044-0.162-0.125-0.358-0.245s-0.44-0.245-0.734-0.375
			c-0.293-0.131-0.614-0.245-0.962-0.343c-0.349-0.098-0.696-0.146-1.044-0.146c-0.457,0-0.808,0.081-1.053,0.244
			c-0.244,0.163-0.366,0.402-0.366,0.718c0,0.196,0.054,0.359,0.162,0.489c0.109,0.131,0.264,0.248,0.465,0.352
			s0.451,0.198,0.751,0.285c0.299,0.087,0.645,0.185,1.036,0.293c0.555,0.152,1.055,0.318,1.5,0.498
			c0.446,0.18,0.826,0.402,1.143,0.669c0.314,0.267,0.557,0.59,0.726,0.971s0.253,0.837,0.253,1.37c0,0.652-0.122,1.204-0.367,1.655
			c-0.244,0.452-0.568,0.815-0.971,1.093s-0.867,0.479-1.395,0.604c-0.527,0.125-1.068,0.188-1.623,0.188
			c-0.424,0-0.856-0.033-1.297-0.099c-0.44-0.064-0.873-0.16-1.297-0.285s-0.838-0.274-1.24-0.448s-0.771-0.376-1.108-0.604
			l1.174-2.333c0.055,0.055,0.201,0.158,0.44,0.311s0.533,0.304,0.881,0.456c0.349,0.152,0.74,0.288,1.175,0.408
			c0.435,0.119,0.875,0.179,1.321,0.179c0.946,0,1.419-0.287,1.419-0.864c0-0.218-0.07-0.396-0.212-0.538s-0.337-0.27-0.587-0.384
			c-0.251-0.114-0.544-0.22-0.881-0.317s-0.707-0.207-1.109-0.326c-0.533-0.164-0.995-0.34-1.387-0.53s-0.718-0.411-0.979-0.661
			s-0.454-0.538-0.579-0.864s-0.188-0.707-0.188-1.142c0-0.609,0.114-1.147,0.342-1.615c0.229-0.468,0.539-0.861,0.931-1.183
			s0.845-0.563,1.362-0.726C331.451,0.081,331.998,0,332.574,0c0.413,0,0.816,0.038,1.207,0.114
			c0.392,0.076,0.764,0.174,1.117,0.293c0.354,0.12,0.688,0.256,1.004,0.408s0.598,0.305,0.848,0.457L335.592,3.491z"/>
		<path fill="#C9C9C0" d="M347.468,2.446h-3.523v9.233h-2.675V2.446h-3.54V0.098h9.738V2.446z"/>
		<path fill="#C9C9C0" d="M346.604,11.68l4.453-11.582h2.17l4.437,11.582h-2.839l-0.896-2.594h-3.605l-0.881,2.594H346.604z
			 M352.133,2.937l-1.387,4.307h2.725L352.133,2.937z"/>
		<path fill="#C9C9C0" d="M366.227,10.554c-0.413,0.414-0.851,0.719-1.312,0.914c-0.463,0.195-0.965,0.293-1.509,0.293
			c-0.729,0-1.417-0.162-2.063-0.488c-0.647-0.327-1.213-0.762-1.697-1.306c-0.483-0.544-0.867-1.177-1.149-1.9
			c-0.283-0.724-0.425-1.477-0.425-2.259c0-0.794,0.142-1.545,0.425-2.252c0.282-0.706,0.674-1.321,1.175-1.843
			c0.5-0.522,1.087-0.936,1.762-1.24c0.674-0.304,1.402-0.456,2.186-0.456c1.021,0,1.919,0.226,2.691,0.677
			c0.771,0.451,1.349,1.068,1.729,1.852l-2.007,1.501c-0.239-0.522-0.585-0.928-1.036-1.216s-0.938-0.433-1.46-0.433
			c-0.413,0-0.785,0.09-1.117,0.27s-0.62,0.43-0.864,0.75c-0.245,0.321-0.433,0.693-0.563,1.118c-0.13,0.424-0.195,0.881-0.195,1.37
			c0,0.5,0.07,0.962,0.212,1.387c0.142,0.424,0.337,0.791,0.587,1.101s0.55,0.552,0.897,0.726c0.349,0.175,0.729,0.262,1.142,0.262
			c0.479,0,0.936-0.117,1.371-0.352c0.435-0.233,0.842-0.589,1.223-1.068V7.569h-2.234V5.628h4.453v6.052h-2.219V10.554z"/>
		<path fill="#C9C9C0" d="M378.363,9.331v2.349h-8.141V0.098h7.994v2.349h-5.318v2.252h4.567v2.169h-4.567v2.464H378.363z"/>
	</g>
	<g>
		<g>
			<line fill="none" stroke="#C9C9C0" stroke-width="4" stroke-miterlimit="10" x1="352.525" y1="42.81" x2="352.525" y2="47.61"/>
			
				<line fill="none" stroke="#C9C9C0" stroke-width="4" stroke-miterlimit="10" stroke-dasharray="9.757,9.757" x1="352.525" y1="57.366" x2="352.525" y2="247.63"/>
			
				<line fill="none" stroke="#C9C9C0" stroke-width="4" stroke-miterlimit="10" x1="352.525" y1="252.509" x2="352.525" y2="257.308"/>
		</g>
	</g>
	<polygon fill="#C9C9C0" points="352.525,261.308 345.088,250.259 359.963,250.259 	"/>
	<polygon fill="#C9C9C0" points="246.917,261.308 239.479,250.259 254.355,250.259 	"/>
	<polygon fill="#C9C9C0" points="141.309,261.308 133.871,250.259 148.747,250.259 	"/>
	<polygon fill="#C9C9C0" points="35.7,261.308 28.264,250.259 43.139,250.259 	"/>
	<circle fill="#FFFFFF" stroke="#2F89AF" stroke-width="8" stroke-miterlimit="10" cx="247.276" cy="157.892" r="10.908"/>
	<circle fill="#FFFFFF" stroke="#F6C330" stroke-width="8" stroke-miterlimit="10" cx="353.003" cy="159.38" r="10.908"/>
	<circle fill="#FFFFFF" stroke="#2FD8AC" stroke-width="8" stroke-miterlimit="10" cx="35.82" cy="158.288" r="10.908"/>
	<g>
		<g>
			
				<line fill="none" stroke="#C9C9C0" stroke-width="4" stroke-miterlimit="10" x1="318.764" y1="157.673" x2="267.267" y2="157.743"/>
			<g>
				<polygon fill="#C9C9C0" points="316.418,149.698 330.245,157.657 316.439,165.653 				"/>
			</g>
		</g>
	</g>
	<g>
		<g>
			<line fill="none" stroke="#C9C9C0" stroke-width="4" stroke-miterlimit="10" x1="70.238" y1="158.349" x2="225.5" y2="158.474"/>
			<g>
				<polygon fill="#C9C9C0" points="72.566,166.329 58.757,158.341 72.58,150.372 				"/>
			</g>
		</g>
	</g>
	<polygon fill="#FFFFFF" stroke="#C9C9C0" stroke-width="4" stroke-miterlimit="10" points="313.267,83.044 313.267,121.192 
		342.096,121.192 353.233,132.331 364.371,121.192 423.041,121.192 423.041,83.044 	"/>
	<g>
		<g>
			<path fill="#2F89AF" d="M336.787,106.218h-1.811v-3.972c0-0.567-0.097-0.981-0.29-1.243c-0.194-0.262-0.462-0.392-0.804-0.392
				c-0.36,0-0.698,0.138-1.014,0.412s-0.54,0.633-0.676,1.073v4.121h-1.811v-3.972c0-0.567-0.096-0.981-0.29-1.243
				c-0.193-0.262-0.462-0.392-0.804-0.392c-0.352,0-0.688,0.135-1.007,0.405c-0.319,0.27-0.547,0.626-0.682,1.067v4.134h-1.811
				v-7.079h1.635v1.311c0.261-0.46,0.619-0.813,1.074-1.061c0.454-0.248,0.975-0.372,1.56-0.372c0.595,0,1.055,0.145,1.379,0.433
				s0.531,0.644,0.621,1.067c0.288-0.486,0.653-0.857,1.095-1.115c0.44-0.256,0.945-0.385,1.513-0.385
				c0.433,0,0.788,0.081,1.067,0.243s0.495,0.374,0.648,0.636c0.153,0.261,0.259,0.559,0.317,0.891
				c0.059,0.334,0.088,0.672,0.088,1.014V106.218z"/>
			<path fill="#2F89AF" d="M338.908,98.152v-1.797h1.811v1.797H338.908z M338.908,106.218v-7.079h1.811v7.079H338.908z"/>
			<path fill="#2F89AF" d="M342.88,96.355h1.811v7.593c0,0.262,0.063,0.464,0.189,0.607c0.126,0.145,0.306,0.217,0.54,0.217
				c0.108,0,0.228-0.019,0.358-0.055c0.13-0.035,0.254-0.081,0.371-0.135l0.243,1.378c-0.243,0.117-0.526,0.208-0.851,0.271
				s-0.617,0.095-0.878,0.095c-0.568,0-1.007-0.151-1.318-0.453c-0.311-0.302-0.466-0.731-0.466-1.29V96.355z"/>
			<path fill="#2F89AF" d="M351,106.353c-0.568,0-1.081-0.097-1.541-0.29c-0.459-0.193-0.851-0.457-1.175-0.79
				c-0.324-0.334-0.574-0.721-0.75-1.162s-0.264-0.905-0.264-1.392c0-0.505,0.086-0.979,0.257-1.426
				c0.171-0.445,0.419-0.837,0.743-1.175s0.718-0.605,1.183-0.805c0.463-0.197,0.983-0.297,1.561-0.297
				c0.576,0,1.092,0.1,1.547,0.297c0.454,0.199,0.842,0.465,1.161,0.798s0.563,0.721,0.729,1.161c0.167,0.441,0.25,0.901,0.25,1.379
				c0,0.117-0.002,0.229-0.007,0.338c-0.005,0.107-0.016,0.197-0.033,0.27h-5.472c0.027,0.279,0.095,0.527,0.202,0.743
				c0.108,0.216,0.248,0.401,0.419,0.554c0.171,0.153,0.365,0.271,0.581,0.352s0.441,0.121,0.676,0.121c0.36,0,0.7-0.087,1.02-0.263
				s0.538-0.407,0.655-0.696l1.554,0.433c-0.261,0.54-0.678,0.984-1.249,1.331C352.475,106.18,351.792,106.353,351,106.353z
				 M352.837,102.084c-0.045-0.532-0.241-0.957-0.588-1.277c-0.347-0.319-0.768-0.479-1.263-0.479c-0.243,0-0.471,0.043-0.683,0.129
				s-0.398,0.205-0.561,0.357c-0.162,0.153-0.295,0.338-0.398,0.555c-0.104,0.216-0.165,0.454-0.183,0.716H352.837z"/>
			<path fill="#2F89AF" d="M359.024,106.353c-0.595,0-1.175-0.094-1.743-0.283c-0.566-0.189-1.053-0.459-1.459-0.811l0.676-1.135
				c0.433,0.306,0.854,0.538,1.264,0.695c0.409,0.158,0.816,0.236,1.223,0.236c0.359,0,0.644-0.067,0.851-0.202
				c0.207-0.136,0.311-0.329,0.311-0.581s-0.121-0.438-0.364-0.554c-0.243-0.117-0.64-0.253-1.189-0.405
				c-0.459-0.127-0.851-0.248-1.175-0.365s-0.586-0.25-0.784-0.398c-0.197-0.148-0.342-0.319-0.432-0.514
				c-0.09-0.193-0.135-0.426-0.135-0.695c0-0.36,0.069-0.685,0.209-0.973s0.335-0.534,0.588-0.736
				c0.252-0.203,0.547-0.358,0.885-0.467c0.338-0.107,0.704-0.162,1.101-0.162c0.531,0,1.029,0.077,1.493,0.23
				c0.464,0.152,0.89,0.4,1.276,0.742l-0.729,1.095c-0.36-0.271-0.709-0.468-1.047-0.595c-0.338-0.126-0.674-0.188-1.006-0.188
				c-0.307,0-0.563,0.062-0.771,0.188c-0.208,0.127-0.311,0.329-0.311,0.608c0,0.126,0.024,0.229,0.074,0.311
				c0.049,0.081,0.128,0.153,0.236,0.216c0.108,0.063,0.25,0.124,0.426,0.183c0.175,0.059,0.394,0.12,0.655,0.183
				c0.486,0.126,0.902,0.252,1.249,0.378s0.631,0.271,0.852,0.433s0.383,0.35,0.486,0.561c0.104,0.212,0.155,0.467,0.155,0.764
				c0,0.693-0.257,1.24-0.77,1.642C360.605,106.152,359.907,106.353,359.024,106.353z"/>
			<path fill="#2F89AF" d="M367.847,105.853c-0.243,0.108-0.54,0.217-0.892,0.324c-0.352,0.108-0.721,0.162-1.107,0.162
				c-0.253,0-0.489-0.031-0.71-0.094c-0.221-0.063-0.414-0.164-0.581-0.305c-0.166-0.139-0.299-0.319-0.398-0.54
				s-0.148-0.488-0.148-0.804v-4.066h-0.933v-1.392h0.933v-2.297h1.811v2.297h1.486v1.392h-1.486v3.458
				c0,0.253,0.064,0.431,0.195,0.534s0.291,0.155,0.48,0.155c0.188,0,0.373-0.031,0.554-0.095c0.18-0.062,0.324-0.117,0.433-0.162
				L367.847,105.853z"/>
			<path fill="#2F89AF" d="M372.427,106.353c-0.577,0-1.095-0.099-1.554-0.297s-0.85-0.466-1.169-0.804s-0.565-0.728-0.736-1.169
				s-0.257-0.905-0.257-1.392c0-0.495,0.086-0.964,0.257-1.405c0.171-0.44,0.417-0.83,0.736-1.168s0.71-0.605,1.169-0.805
				c0.459-0.197,0.977-0.297,1.554-0.297c0.576,0,1.092,0.1,1.547,0.297c0.454,0.199,0.842,0.467,1.162,0.805
				c0.319,0.338,0.564,0.728,0.735,1.168c0.172,0.441,0.258,0.91,0.258,1.405c0,0.486-0.086,0.95-0.258,1.392
				c-0.171,0.441-0.414,0.831-0.729,1.169c-0.316,0.338-0.703,0.605-1.162,0.804S373.003,106.353,372.427,106.353z M370.576,102.691
				c0,0.315,0.047,0.602,0.142,0.858c0.095,0.256,0.225,0.479,0.392,0.668c0.166,0.189,0.362,0.336,0.588,0.439
				c0.225,0.104,0.468,0.155,0.729,0.155c0.261,0,0.504-0.052,0.729-0.155c0.225-0.104,0.421-0.25,0.588-0.439
				c0.166-0.188,0.297-0.414,0.392-0.675s0.142-0.55,0.142-0.864c0-0.307-0.047-0.59-0.142-0.852s-0.226-0.486-0.392-0.676
				c-0.167-0.189-0.363-0.336-0.588-0.439c-0.226-0.104-0.469-0.154-0.729-0.154c-0.262,0-0.505,0.054-0.729,0.162
				c-0.226,0.107-0.422,0.256-0.588,0.445c-0.167,0.189-0.297,0.414-0.392,0.676C370.623,102.102,370.576,102.386,370.576,102.691z"
				/>
			<path fill="#2F89AF" d="M384.464,106.218h-1.81v-3.972c0-0.567-0.1-0.981-0.298-1.243s-0.473-0.392-0.824-0.392
				c-0.181,0-0.364,0.036-0.554,0.108c-0.189,0.071-0.367,0.173-0.533,0.304c-0.167,0.13-0.318,0.286-0.453,0.466
				s-0.234,0.378-0.297,0.595v4.134h-1.811v-7.079h1.635v1.311c0.261-0.45,0.639-0.802,1.135-1.054
				c0.495-0.252,1.054-0.379,1.676-0.379c0.44,0,0.801,0.081,1.08,0.243s0.495,0.374,0.648,0.636
				c0.153,0.261,0.259,0.559,0.317,0.891c0.059,0.334,0.088,0.672,0.088,1.014V106.218z"/>
			<path fill="#2F89AF" d="M389.868,106.353c-0.567,0-1.081-0.097-1.54-0.29c-0.46-0.193-0.852-0.457-1.176-0.79
				c-0.324-0.334-0.574-0.721-0.75-1.162s-0.264-0.905-0.264-1.392c0-0.505,0.086-0.979,0.257-1.426
				c0.171-0.445,0.419-0.837,0.743-1.175s0.719-0.605,1.182-0.805c0.465-0.197,0.984-0.297,1.561-0.297s1.093,0.1,1.547,0.297
				c0.455,0.199,0.843,0.465,1.162,0.798c0.32,0.333,0.562,0.721,0.729,1.161c0.167,0.441,0.25,0.901,0.25,1.379
				c0,0.117-0.002,0.229-0.007,0.338c-0.004,0.107-0.016,0.197-0.033,0.27h-5.472c0.026,0.279,0.095,0.527,0.202,0.743
				c0.108,0.216,0.248,0.401,0.419,0.554c0.171,0.153,0.365,0.271,0.581,0.352c0.217,0.081,0.441,0.121,0.676,0.121
				c0.359,0,0.7-0.087,1.02-0.263c0.32-0.176,0.538-0.407,0.655-0.696l1.554,0.433c-0.261,0.54-0.678,0.984-1.25,1.331
				C391.343,106.18,390.66,106.353,389.868,106.353z M391.705,102.084c-0.045-0.532-0.241-0.957-0.588-1.277
				c-0.347-0.319-0.768-0.479-1.263-0.479c-0.243,0-0.471,0.043-0.683,0.129c-0.211,0.086-0.398,0.205-0.561,0.357
				c-0.162,0.153-0.295,0.338-0.398,0.555c-0.104,0.216-0.164,0.454-0.183,0.716H391.705z"/>
			<path fill="#2F89AF" d="M403.459,96.626l-6.701,9.592h-1.999l6.688-9.592H403.459z"/>
			<path fill="#2F89AF" d="M410.688,104.583v1.635h-5.432v-1.635h1.864v-6.242c-0.072,0.108-0.191,0.229-0.358,0.358
				c-0.166,0.131-0.355,0.257-0.566,0.378c-0.212,0.122-0.428,0.224-0.648,0.305s-0.422,0.121-0.602,0.121v-1.675
				c0.243,0,0.49-0.065,0.743-0.196c0.252-0.13,0.483-0.274,0.695-0.432c0.212-0.158,0.386-0.305,0.521-0.439
				s0.207-0.212,0.216-0.229h1.851v8.052H410.688z"/>
		</g>
	</g>
</g>
</svg>
