<?xml version="1.0" encoding="utf-8"?>
<!-- Generator: Adobe Illustrator 16.0.0, SVG Export Plug-In . SVG Version: 6.00 Build 0)  -->
<!DOCTYPE svg PUBLIC "-//W3C//DTD SVG 1.1//EN" "http://www.w3.org/Graphics/SVG/1.1/DTD/svg11.dtd">
<svg version="1.1" id="Layer_1" xmlns="http://www.w3.org/2000/svg" xmlns:xlink="http://www.w3.org/1999/xlink" x="0px" y="0px"
	 width="757.938px" height="927.451px" viewBox="0 0 757.938 927.451" enable-background="new 0 0 757.938 927.451"
	 xml:space="preserve">
<g>
	<polyline fill="none" stroke="#C9C9C0" stroke-width="4" stroke-miterlimit="10" points="150.728,693.584 519.769,693.584 
		519.769,730.233 573.64,730.233 	"/>
	<g>
		<g>
			<g>
				<line fill="none" stroke="#C9C9C0" stroke-width="4" stroke-miterlimit="10" x1="45" y1="42.81" x2="45" y2="47.61"/>
				
					<line fill="none" stroke="#C9C9C0" stroke-width="4" stroke-miterlimit="10" stroke-dasharray="9.5482,9.5482" x1="45" y1="57.158" x2="45" y2="835.335"/>
				<line fill="none" stroke="#C9C9C0" stroke-width="4" stroke-miterlimit="10" x1="45" y1="840.109" x2="45" y2="844.909"/>
			</g>
		</g>
		<polygon fill="#C9C9C0" points="45,852.83 37.562,841.782 52.438,841.782 		"/>
	</g>
	<g>
		<g>
			<line fill="none" stroke="#C9C9C0" stroke-width="4" stroke-miterlimit="10" x1="150.608" y1="42.81" x2="150.608" y2="47.61"/>
			
				<line fill="none" stroke="#C9C9C0" stroke-width="4" stroke-miterlimit="10" stroke-dasharray="9.5482,9.5482" x1="150.608" y1="57.158" x2="150.608" y2="835.335"/>
			
				<line fill="none" stroke="#C9C9C0" stroke-width="4" stroke-miterlimit="10" x1="150.608" y1="840.109" x2="150.608" y2="844.909"/>
		</g>
	</g>
	<polygon fill="#C9C9C0" points="150.607,852.83 143.171,841.782 158.046,841.782 	"/>
	<polygon fill="#C9C9C0" points="150.607,719.433 143.171,708.384 158.046,708.384 	"/>
	<polygon fill="#C9C9C0" points="361.824,719.433 354.387,708.384 369.263,708.384 	"/>
	<polygon fill="#C9C9C0" points="467.433,719.433 459.995,708.384 474.87,708.384 	"/>
	<g>
		<g>
			<g>
				<line fill="none" stroke="#C9C9C0" stroke-width="4" stroke-miterlimit="10" x1="256.216" y1="42.81" x2="256.216" y2="47.61"/>
				
					<line fill="none" stroke="#C9C9C0" stroke-width="4" stroke-miterlimit="10" stroke-dasharray="9.5482,9.5482" x1="256.216" y1="57.158" x2="256.216" y2="835.335"/>
				
					<line fill="none" stroke="#C9C9C0" stroke-width="4" stroke-miterlimit="10" x1="256.216" y1="840.109" x2="256.216" y2="844.909"/>
			</g>
		</g>
		<polygon fill="#C9C9C0" points="256.216,852.83 248.779,841.782 263.654,841.782 		"/>
	</g>
	<g>
		<g>
			<g>
				<line fill="none" stroke="#C9C9C0" stroke-width="4" stroke-miterlimit="10" x1="361.824" y1="42.81" x2="361.824" y2="47.61"/>
				
					<line fill="none" stroke="#C9C9C0" stroke-width="4" stroke-miterlimit="10" stroke-dasharray="9.5482,9.5482" x1="361.824" y1="57.158" x2="361.824" y2="835.335"/>
				
					<line fill="none" stroke="#C9C9C0" stroke-width="4" stroke-miterlimit="10" x1="361.824" y1="840.109" x2="361.824" y2="844.909"/>
			</g>
		</g>
		<polygon fill="#C9C9C0" points="361.824,852.83 354.387,841.782 369.263,841.782 		"/>
	</g>
	<g>
		<g>
			<g>
				<line fill="none" stroke="#C9C9C0" stroke-width="4" stroke-miterlimit="10" x1="467.433" y1="42.81" x2="467.433" y2="47.61"/>
				
					<line fill="none" stroke="#C9C9C0" stroke-width="4" stroke-miterlimit="10" stroke-dasharray="9.5482,9.5482" x1="467.433" y1="57.158" x2="467.433" y2="835.335"/>
				
					<line fill="none" stroke="#C9C9C0" stroke-width="4" stroke-miterlimit="10" x1="467.433" y1="840.109" x2="467.433" y2="844.909"/>
			</g>
		</g>
		<polygon fill="#C9C9C0" points="467.433,852.83 459.995,841.782 474.871,841.782 		"/>
	</g>
	<g>
		<g>
			<g>
				<line fill="none" stroke="#C9C9C0" stroke-width="4" stroke-miterlimit="10" x1="573.041" y1="42.81" x2="573.041" y2="47.61"/>
				
					<line fill="none" stroke="#C9C9C0" stroke-width="4" stroke-miterlimit="10" stroke-dasharray="9.5482,9.5482" x1="573.041" y1="57.158" x2="573.041" y2="835.335"/>
				
					<line fill="none" stroke="#C9C9C0" stroke-width="4" stroke-miterlimit="10" x1="573.041" y1="840.109" x2="573.041" y2="844.909"/>
			</g>
		</g>
		<polygon fill="#C9C9C0" points="573.041,852.83 565.604,841.782 580.479,841.782 		"/>
	</g>
	<g>
		<g>
			<g>
				<line fill="none" stroke="#C9C9C0" stroke-width="4" stroke-miterlimit="10" x1="678.649" y1="42.81" x2="678.649" y2="47.61"/>
				
					<line fill="none" stroke="#C9C9C0" stroke-width="4" stroke-miterlimit="10" stroke-dasharray="9.5482,9.5482" x1="678.649" y1="57.158" x2="678.649" y2="835.335"/>
				
					<line fill="none" stroke="#C9C9C0" stroke-width="4" stroke-miterlimit="10" x1="678.649" y1="840.109" x2="678.649" y2="844.909"/>
			</g>
		</g>
		<polygon fill="#C9C9C0" points="678.648,852.83 671.212,841.782 686.087,841.782 		"/>
	</g>
	
		<rect x="35.549" y="140.68" transform="matrix(0.7071 0.7071 -0.7071 0.7071 119.3384 12.1524)" fill="#FFFFFF" stroke="#2FD8AC" stroke-width="8" stroke-miterlimit="10" width="18.901" height="18.901"/>
	
		<rect x="35.55" y="279.6" transform="matrix(0.7071 0.7071 -0.7071 0.7071 217.566 52.8382)" fill="#FFFFFF" stroke="#2FD8AC" stroke-width="8" stroke-miterlimit="10" width="18.901" height="18.902"/>
	
		<rect x="564.189" y="720.782" transform="matrix(0.7071 0.7071 -0.7071 0.7071 684.3846 -191.7422)" fill="#FFFFFF" stroke="#D23D44" stroke-width="8" stroke-miterlimit="10" width="18.902" height="18.901"/>
	
		<rect x="247.005" y="492.793" transform="matrix(0.7071 0.7071 -0.7071 0.7071 430.2542 -34.238)" fill="#FFFFFF" stroke="#2F89AF" stroke-width="8" stroke-miterlimit="10" width="18.901" height="18.901"/>
	<circle fill="#FFFFFF" stroke="#2FD8AC" stroke-width="8" stroke-miterlimit="10" cx="150.728" cy="109.185" r="10.907"/>
	<circle fill="#FFFFFF" stroke="#2FD8AC" stroke-width="8" stroke-miterlimit="10" cx="150.728" cy="171.318" r="10.907"/>
	<circle fill="#FFFFFF" stroke="#2FD8AC" stroke-width="8" stroke-miterlimit="10" cx="150.728" cy="250.518" r="10.907"/>
	<circle fill="#FFFFFF" stroke="#2FD8AC" stroke-width="8" stroke-miterlimit="10" cx="150.728" cy="291.509" r="10.907"/>
	<circle fill="#FFFFFF" stroke="#2FD8AC" stroke-width="8" stroke-miterlimit="10" cx="150.728" cy="363.584" r="10.907"/>
	<circle fill="#FFFFFF" stroke="#2FD8AC" stroke-width="8" stroke-miterlimit="10" cx="150.728" cy="404.576" r="10.907"/>
	<circle fill="#FFFFFF" stroke="#2F89AF" stroke-width="8" stroke-miterlimit="10" cx="362.184" cy="401.449" r="10.907"/>
	<circle fill="#FFFFFF" stroke="#2F89AF" stroke-width="8" stroke-miterlimit="10" cx="362.184" cy="570.244" r="10.907"/>
	<circle fill="#FFFFFF" stroke="#2F89AF" stroke-width="8" stroke-miterlimit="10" cx="362.184" cy="737.984" r="10.907"/>
	<circle fill="#FFFFFF" stroke="#2F89AF" stroke-width="8" stroke-miterlimit="10" cx="362.184" cy="532.586" r="10.907"/>
	<circle fill="#FFFFFF" stroke="#2F89AF" stroke-width="8" stroke-miterlimit="10" cx="362.184" cy="460.246" r="10.907"/>
	<circle fill="#FFFFFF" stroke="#F6C330" stroke-width="8" stroke-miterlimit="10" cx="467.911" cy="736.639" r="10.907"/>
	<circle fill="#FFFFFF" stroke="#F6C330" stroke-width="8" stroke-miterlimit="10" cx="467.911" cy="571.732" r="10.907"/>
	<circle fill="#FFFFFF" stroke="#F6C330" stroke-width="8" stroke-miterlimit="10" cx="467.911" cy="651.037" r="10.907"/>
	<circle fill="#FFFFFF" stroke="#D23D44" stroke-width="8" stroke-miterlimit="10" cx="679.367" cy="653.876" r="10.907"/>
	<circle fill="#FFFFFF" stroke="#D23D44" stroke-width="8" stroke-miterlimit="10" cx="679.367" cy="781.76" r="10.907"/>
	<circle fill="#FFFFFF" stroke="#2FD8AC" stroke-width="8" stroke-miterlimit="10" cx="150.728" cy="570.641" r="10.907"/>
	<circle fill="#FFFFFF" stroke="#2FD8AC" stroke-width="8" stroke-miterlimit="10" cx="150.728" cy="737.433" r="10.907"/>
	<polygon fill="#C9C9C0" points="45,852.83 37.562,841.782 52.438,841.782 	"/>
	<g>
		<g>
			
				<line fill="none" stroke="#C9C9C0" stroke-width="4" stroke-miterlimit="10" x1="79.604" y1="141.849" x2="133.368" y2="114.518"/>
			<g>
				<polygon fill="#C9C9C0" points="85.3,147.903 69.368,147.052 78.069,133.679 				"/>
			</g>
		</g>
	</g>
	<g>
		<g>
			
				<line fill="none" stroke="#C9C9C0" stroke-width="4" stroke-miterlimit="10" x1="71.099" y1="272.007" x2="133.901" y2="181.185"/>
			<g>
				<polygon fill="#C9C9C0" points="78.988,274.625 64.568,281.451 65.864,265.549 				"/>
			</g>
		</g>
	</g>
	<g>
		<g>
			
				<line fill="none" stroke="#C9C9C0" stroke-width="4" stroke-miterlimit="10" x1="122.044" y1="346.443" x2="64.568" y2="296.384"/>
			<g>
				<polygon fill="#C9C9C0" points="125.523,338.894 130.702,353.984 115.043,350.926 				"/>
			</g>
		</g>
	</g>
	<g>
		<g>
			
				<line fill="none" stroke="#C9C9C0" stroke-width="4" stroke-miterlimit="10" x1="126.029" y1="232.621" x2="65.102" y2="159.318"/>
			<g>
				<polygon fill="#C9C9C0" points="130.672,225.726 133.368,241.451 118.401,235.925 				"/>
			</g>
		</g>
	</g>
	<g>
		<g>
			
				<line fill="none" stroke="#C9C9C0" stroke-width="4" stroke-miterlimit="10" x1="330.061" y1="405.589" x2="172.795" y2="405.646"/>
			<g>
				<polygon fill="#C9C9C0" points="327.723,397.612 341.542,405.585 327.729,413.568 				"/>
			</g>
		</g>
	</g>
	<g>
		<g>
			
				<line fill="none" stroke="#C9C9C0" stroke-width="4" stroke-miterlimit="10" x1="289.641" y1="490.716" x2="342.676" y2="467.04"/>
			<g>
				<polygon fill="#C9C9C0" points="295.025,497.049 279.156,495.396 288.521,482.479 				"/>
			</g>
		</g>
	</g>
	<g>
		<g>
			
				<line fill="none" stroke="#C9C9C0" stroke-width="4" stroke-miterlimit="10" x1="332.446" y1="523.815" x2="283.693" y2="506.171"/>
			<g>
				<polygon fill="#C9C9C0" points="332.967,515.52 343.243,527.723 327.536,530.523 				"/>
			</g>
		</g>
	</g>
	<g>
		<g>
			
				<line fill="none" stroke="#C9C9C0" stroke-width="4" stroke-miterlimit="10" x1="434.98" y1="571.376" x2="384.186" y2="571.305"/>
			<g>
				<polygon fill="#C9C9C0" points="432.656,563.395 446.462,571.393 432.635,579.351 				"/>
			</g>
		</g>
	</g>
	<g>
		<g>
			
				<line fill="none" stroke="#C9C9C0" stroke-width="4" stroke-miterlimit="10" x1="645.887" y1="652.915" x2="489.646" y2="651.858"/>
			<g>
				<polygon fill="#C9C9C0" points="643.605,644.921 657.368,652.993 643.498,660.877 				"/>
			</g>
		</g>
	</g>
	<g>
		<g>
			
				<line fill="none" stroke="#C9C9C0" stroke-width="4" stroke-miterlimit="10" x1="604.319" y1="713.522" x2="657.368" y2="665.984"/>
			<g>
				<polygon fill="#C9C9C0" points="611.383,717.905 595.769,721.185 600.733,706.023 				"/>
			</g>
		</g>
	</g>
	<g>
		<g>
			
				<line fill="none" stroke="#C9C9C0" stroke-width="4" stroke-miterlimit="10" x1="648.817" y1="769.921" x2="596.169" y2="737.185"/>
			<g>
				<polygon fill="#C9C9C0" points="651.048,761.913 658.568,775.984 642.623,775.463 				"/>
			</g>
		</g>
	</g>
	<g>
		<g>
			
				<line fill="none" stroke="#C9C9C0" stroke-width="4" stroke-miterlimit="10" x1="185.146" y1="570.701" x2="340.407" y2="570.825"/>
			<g>
				<polygon fill="#C9C9C0" points="187.475,578.681 173.664,570.692 187.486,562.725 				"/>
			</g>
		</g>
	</g>
	<g>
		<g>
			
				<line fill="none" stroke="#C9C9C0" stroke-width="4" stroke-miterlimit="10" x1="84.051" y1="290.518" x2="129.635" y2="290.518"/>
			<g>
				<polygon fill="#C9C9C0" points="86.385,298.497 72.568,290.518 86.385,282.541 				"/>
			</g>
		</g>
	</g>
	<g>
		<path fill="#C9C9C0" d="M12.484,11.68V0.098h7.863v2.349H15.16v2.496h4.273v2.169H15.16v4.568H12.484z"/>
		<path fill="#C9C9C0" d="M29.841,9.331v2.349h-8.14V0.098h7.992v2.349h-5.317v2.251h4.567v2.17h-4.567v2.463H29.841z"/>
		<path fill="#C9C9C0" d="M30.363,11.68l4.453-11.582h2.17l4.437,11.582h-2.839l-0.896-2.594h-3.605l-0.881,2.594H30.363z
			 M35.893,2.936l-1.387,4.307h2.725L35.893,2.936z"/>
		<path fill="#C9C9C0" d="M50.264,2.447H46.74v9.233h-2.675V2.447h-3.54V0.098h9.738V2.447z"/>
		<path fill="#C9C9C0" d="M56.545,9.396c0.456,0,0.842-0.095,1.158-0.286c0.314-0.19,0.57-0.443,0.766-0.758
			c0.196-0.315,0.335-0.677,0.416-1.085c0.082-0.408,0.123-0.824,0.123-1.248V0.098h2.675v5.921c0,0.805-0.101,1.556-0.302,2.251
			c-0.201,0.696-0.512,1.306-0.93,1.827c-0.419,0.522-0.951,0.933-1.599,1.231c-0.647,0.3-1.417,0.449-2.308,0.449
			c-0.925,0-1.713-0.158-2.366-0.474c-0.652-0.315-1.183-0.736-1.59-1.264c-0.408-0.527-0.707-1.14-0.897-1.835
			s-0.285-1.424-0.285-2.186V0.098h2.675v5.921c0,0.446,0.044,0.87,0.131,1.272s0.228,0.762,0.424,1.077
			c0.196,0.316,0.448,0.566,0.759,0.75C55.704,9.304,56.088,9.396,56.545,9.396z"/>
		<path fill="#C9C9C0" d="M63.738,11.68V0.098h5.22c0.544,0,1.046,0.114,1.509,0.342c0.462,0.228,0.861,0.528,1.199,0.897
			c0.337,0.37,0.601,0.789,0.791,1.256c0.19,0.468,0.285,0.941,0.285,1.419c0,0.359-0.043,0.705-0.131,1.036
			C72.524,5.38,72.4,5.693,72.236,5.987c-0.162,0.293-0.361,0.557-0.595,0.791c-0.234,0.234-0.498,0.432-0.792,0.596l2.659,4.306
			h-3.018l-2.333-3.736h-1.745v3.736H63.738z M66.413,5.611h2.447c0.315,0,0.587-0.149,0.815-0.449
			c0.229-0.299,0.343-0.682,0.343-1.15c0-0.478-0.131-0.859-0.392-1.142c-0.262-0.282-0.544-0.424-0.849-0.424h-2.365V5.611z"/>
		<path fill="#C9C9C0" d="M82.971,9.331v2.349H74.83V0.098h7.993v2.349h-5.317v2.251h4.567v2.17h-4.567v2.463H82.971z"/>
	</g>
	<g>
		<path fill="#C9C9C0" d="M114.907,11.68V0.098h4.323c0.957,0,1.794,0.152,2.512,0.456c0.718,0.305,1.318,0.718,1.803,1.24
			c0.483,0.522,0.848,1.134,1.093,1.835s0.367,1.449,0.367,2.243c0,0.881-0.136,1.678-0.408,2.39
			c-0.271,0.712-0.66,1.321-1.166,1.827s-1.115,0.897-1.827,1.174s-1.504,0.416-2.373,0.416H114.907z M122.28,5.873
			c0-0.511-0.067-0.976-0.204-1.395c-0.136-0.419-0.334-0.78-0.595-1.085s-0.582-0.539-0.963-0.702
			c-0.38-0.163-0.81-0.245-1.288-0.245h-1.648v6.884h1.648c0.489,0,0.924-0.087,1.305-0.261s0.699-0.416,0.954-0.726
			c0.256-0.31,0.451-0.674,0.587-1.093C122.213,6.833,122.28,6.373,122.28,5.873z"/>
		<path fill="#C9C9C0" d="M134.743,9.331v2.349h-8.14V0.098h7.993v2.349h-5.318v2.251h4.567v2.17h-4.567v2.463H134.743z"/>
		<path fill="#C9C9C0" d="M138.055,0.098l2.74,8.221l2.691-8.221h2.822l-4.404,11.582h-2.234l-4.438-11.582H138.055z"/>
		<path fill="#C9C9C0" d="M155.509,9.331v2.349h-8.14V0.098h7.993v2.349h-5.318v2.251h4.567v2.17h-4.567v2.463H155.509z"/>
		<path fill="#C9C9C0" d="M157.173,11.68V0.098h2.675v9.232h5.612v2.349H157.173z"/>
		<path fill="#C9C9C0" d="M171.283,11.778c-0.826,0-1.577-0.169-2.251-0.506c-0.675-0.337-1.253-0.78-1.737-1.33
			s-0.859-1.177-1.125-1.884c-0.268-0.707-0.4-1.436-0.4-2.186c0-0.761,0.139-1.495,0.416-2.202s0.663-1.33,1.158-1.868
			c0.495-0.538,1.082-0.968,1.762-1.289s1.422-0.481,2.227-0.481c0.826,0,1.577,0.168,2.252,0.506
			c0.674,0.337,1.253,0.783,1.736,1.337c0.484,0.555,0.857,1.186,1.118,1.893s0.392,1.425,0.392,2.153
			c0,0.761-0.139,1.495-0.416,2.202s-0.661,1.33-1.15,1.868c-0.489,0.538-1.074,0.97-1.754,1.296
			C172.83,11.615,172.088,11.778,171.283,11.778z M168.494,5.905c0,0.446,0.062,0.879,0.188,1.297
			c0.125,0.419,0.305,0.792,0.538,1.118s0.527,0.587,0.881,0.783c0.354,0.196,0.759,0.294,1.216,0.294
			c0.467,0,0.875-0.104,1.223-0.31c0.349-0.207,0.639-0.476,0.873-0.807c0.234-0.332,0.408-0.707,0.521-1.126
			c0.115-0.418,0.172-0.845,0.172-1.28c0-0.446-0.062-0.878-0.188-1.297s-0.308-0.789-0.547-1.109
			c-0.239-0.32-0.533-0.576-0.881-0.767s-0.745-0.286-1.19-0.286c-0.468,0-0.876,0.101-1.224,0.302s-0.639,0.465-0.873,0.791
			c-0.233,0.326-0.41,0.699-0.529,1.117C168.554,5.043,168.494,5.47,168.494,5.905z"/>
		<path fill="#C9C9C0" d="M178.396,11.68V0.098h4.942c0.555,0,1.062,0.114,1.525,0.342c0.462,0.228,0.859,0.528,1.191,0.897
			c0.331,0.37,0.592,0.789,0.782,1.256c0.19,0.468,0.286,0.941,0.286,1.419c0,0.511-0.09,1-0.27,1.468s-0.43,0.887-0.75,1.256
			c-0.321,0.37-0.71,0.664-1.167,0.881c-0.456,0.218-0.962,0.326-1.517,0.326h-2.35v3.736H178.396z M181.07,5.611h2.187
			c0.315,0,0.587-0.136,0.815-0.408c0.229-0.271,0.343-0.669,0.343-1.191c0-0.272-0.036-0.505-0.106-0.702
			c-0.07-0.195-0.166-0.358-0.285-0.489c-0.12-0.13-0.256-0.226-0.408-0.285s-0.305-0.09-0.457-0.09h-2.088V5.611z"/>
	</g>
	<g>
		<path fill="#C9C9C0" d="M236.51,11.68V0.098h2.675V11.68H236.51z"/>
		<path fill="#C9C9C0" d="M248.368,3.491c-0.044-0.043-0.163-0.125-0.358-0.245c-0.196-0.12-0.44-0.245-0.734-0.375
			c-0.293-0.13-0.614-0.244-0.963-0.342c-0.348-0.098-0.695-0.147-1.043-0.147c-0.457,0-0.808,0.082-1.053,0.245
			c-0.244,0.163-0.367,0.402-0.367,0.718c0,0.195,0.055,0.358,0.163,0.489c0.108,0.13,0.264,0.247,0.465,0.351
			s0.451,0.198,0.751,0.285c0.299,0.087,0.645,0.186,1.035,0.294c0.555,0.152,1.055,0.318,1.501,0.498s0.826,0.402,1.142,0.668
			c0.315,0.267,0.558,0.59,0.727,0.971c0.168,0.381,0.253,0.838,0.253,1.37c0,0.653-0.122,1.205-0.367,1.656
			s-0.568,0.815-0.971,1.093s-0.867,0.479-1.395,0.604c-0.528,0.125-1.068,0.188-1.623,0.188c-0.425,0-0.856-0.032-1.297-0.098
			s-0.873-0.16-1.297-0.286c-0.425-0.125-0.838-0.274-1.24-0.449c-0.402-0.174-0.772-0.375-1.108-0.604l1.174-2.333
			c0.055,0.054,0.201,0.158,0.44,0.31s0.532,0.305,0.881,0.457c0.349,0.153,0.739,0.289,1.175,0.408
			c0.435,0.12,0.875,0.18,1.321,0.18c0.946,0,1.419-0.288,1.419-0.865c0-0.217-0.07-0.397-0.212-0.538s-0.337-0.269-0.587-0.383
			c-0.251-0.114-0.544-0.221-0.881-0.318c-0.338-0.098-0.707-0.206-1.109-0.326c-0.533-0.163-0.995-0.34-1.387-0.53
			c-0.392-0.19-0.718-0.41-0.979-0.66c-0.262-0.25-0.455-0.539-0.579-0.865c-0.126-0.326-0.188-0.707-0.188-1.142
			c0-0.609,0.115-1.147,0.343-1.615c0.229-0.467,0.538-0.861,0.931-1.183c0.391-0.32,0.845-0.562,1.361-0.726S244.773,0,245.351,0
			c0.413,0,0.815,0.038,1.207,0.114c0.392,0.076,0.764,0.174,1.117,0.294c0.354,0.12,0.688,0.256,1.004,0.408
			c0.315,0.153,0.598,0.305,0.848,0.457L248.368,3.491z"/>
		<path fill="#C9C9C0" d="M258.417,3.491c-0.044-0.043-0.163-0.125-0.358-0.245c-0.196-0.12-0.441-0.245-0.734-0.375
			c-0.294-0.13-0.615-0.244-0.963-0.342s-0.695-0.147-1.044-0.147c-0.456,0-0.808,0.082-1.052,0.245
			c-0.245,0.163-0.367,0.402-0.367,0.718c0,0.195,0.055,0.358,0.163,0.489c0.108,0.13,0.264,0.247,0.465,0.351
			s0.451,0.198,0.751,0.285c0.299,0.087,0.644,0.186,1.035,0.294c0.555,0.152,1.055,0.318,1.501,0.498s0.826,0.402,1.142,0.668
			c0.315,0.267,0.558,0.59,0.727,0.971c0.168,0.381,0.252,0.838,0.252,1.37c0,0.653-0.122,1.205-0.366,1.656
			c-0.245,0.451-0.569,0.815-0.971,1.093c-0.403,0.277-0.868,0.479-1.396,0.604s-1.068,0.188-1.623,0.188
			c-0.424,0-0.855-0.032-1.297-0.098c-0.439-0.065-0.872-0.16-1.297-0.286c-0.424-0.125-0.837-0.274-1.239-0.449
			c-0.402-0.174-0.772-0.375-1.109-0.604l1.175-2.333c0.055,0.054,0.201,0.158,0.44,0.31s0.532,0.305,0.881,0.457
			c0.348,0.153,0.739,0.289,1.175,0.408c0.435,0.12,0.875,0.18,1.32,0.18c0.947,0,1.42-0.288,1.42-0.865
			c0-0.217-0.071-0.397-0.212-0.538c-0.142-0.141-0.337-0.269-0.588-0.383c-0.25-0.114-0.544-0.221-0.881-0.318
			s-0.707-0.206-1.108-0.326c-0.533-0.163-0.996-0.34-1.387-0.53c-0.392-0.19-0.718-0.41-0.979-0.66
			c-0.262-0.25-0.455-0.539-0.58-0.865c-0.125-0.326-0.188-0.707-0.188-1.142c0-0.609,0.114-1.147,0.343-1.615
			c0.229-0.467,0.538-0.861,0.93-1.183c0.392-0.32,0.846-0.562,1.362-0.726S254.822,0,255.399,0c0.413,0,0.815,0.038,1.207,0.114
			c0.392,0.076,0.764,0.174,1.117,0.294c0.354,0.12,0.688,0.256,1.003,0.408c0.315,0.153,0.599,0.305,0.849,0.457L258.417,3.491z"/>
		<path fill="#C9C9C0" d="M266.459,9.396c0.457,0,0.843-0.095,1.158-0.286c0.315-0.19,0.57-0.443,0.767-0.758
			s0.335-0.677,0.416-1.085c0.081-0.408,0.122-0.824,0.122-1.248V0.098h2.676v5.921c0,0.805-0.102,1.556-0.302,2.251
			c-0.202,0.696-0.512,1.306-0.931,1.827c-0.418,0.522-0.951,0.933-1.598,1.231c-0.647,0.3-1.417,0.449-2.309,0.449
			c-0.925,0-1.713-0.158-2.365-0.474c-0.652-0.315-1.183-0.736-1.591-1.264c-0.407-0.527-0.707-1.14-0.897-1.835
			c-0.189-0.696-0.285-1.424-0.285-2.186V0.098h2.676v5.921c0,0.446,0.043,0.87,0.13,1.272s0.229,0.762,0.425,1.077
			c0.195,0.316,0.448,0.566,0.758,0.75C265.619,9.304,266.002,9.396,266.459,9.396z"/>
		<path fill="#C9C9C0" d="M281.793,9.331v2.349h-8.141V0.098h7.993v2.349h-5.317v2.251h4.567v2.17h-4.567v2.463H281.793z"/>
	</g>
	<g>
		<path fill="#C9C9C0" d="M356.784,10.978c-0.413,0.25-0.851,0.443-1.313,0.579c-0.462,0.136-0.954,0.204-1.476,0.204
			c-0.827,0-1.577-0.166-2.251-0.498c-0.675-0.332-1.254-0.772-1.738-1.321c-0.483-0.549-0.858-1.177-1.125-1.884
			c-0.267-0.707-0.399-1.436-0.399-2.186c0-0.761,0.139-1.495,0.416-2.202s0.663-1.332,1.158-1.876
			c0.494-0.544,1.081-0.976,1.762-1.297c0.679-0.321,1.421-0.481,2.227-0.481c0.826,0,1.576,0.171,2.251,0.514
			c0.674,0.343,1.253,0.792,1.737,1.346c0.483,0.555,0.856,1.186,1.117,1.893s0.392,1.425,0.392,2.153
			c0,0.718-0.119,1.4-0.359,2.047c-0.238,0.647-0.57,1.237-0.994,1.771l1.762,1.941h-2.529L356.784,10.978z M354.027,9.379
			c0.413,0,0.777-0.081,1.093-0.244l-1.827-2.023h2.513l0.604,0.669c0.271-0.598,0.407-1.234,0.407-1.908
			c0-0.446-0.062-0.878-0.188-1.297s-0.307-0.789-0.546-1.109c-0.239-0.32-0.533-0.579-0.881-0.775
			c-0.349-0.196-0.745-0.293-1.19-0.293c-0.469,0-0.876,0.101-1.225,0.302c-0.348,0.201-0.639,0.468-0.872,0.799
			c-0.234,0.332-0.411,0.707-0.53,1.125c-0.12,0.419-0.18,0.846-0.18,1.28c0,0.446,0.062,0.879,0.188,1.297
			c0.125,0.419,0.305,0.789,0.539,1.109c0.233,0.321,0.527,0.579,0.881,0.775S353.57,9.379,354.027,9.379z"/>
		<path fill="#C9C9C0" d="M359.852,11.68l4.453-11.582h2.17l4.437,11.582h-2.839l-0.896-2.594h-3.605l-0.881,2.594H359.852z
			 M365.381,2.936l-1.387,4.307h2.725L365.381,2.936z"/>
	</g>
	<g>
		<path fill="#C9C9C0" d="M450.5,3.491c-0.044-0.043-0.164-0.125-0.359-0.245s-0.44-0.245-0.734-0.375
			c-0.293-0.13-0.614-0.244-0.962-0.342c-0.349-0.098-0.696-0.147-1.044-0.147c-0.457,0-0.808,0.082-1.053,0.245
			c-0.244,0.163-0.367,0.402-0.367,0.718c0,0.195,0.055,0.358,0.164,0.489c0.108,0.13,0.264,0.247,0.465,0.351
			s0.451,0.198,0.75,0.285c0.299,0.087,0.645,0.186,1.036,0.294c0.554,0.152,1.055,0.318,1.501,0.498
			c0.445,0.179,0.826,0.402,1.142,0.668c0.315,0.267,0.557,0.59,0.726,0.971c0.168,0.381,0.253,0.838,0.253,1.37
			c0,0.653-0.122,1.205-0.367,1.656s-0.568,0.815-0.971,1.093s-0.867,0.479-1.395,0.604s-1.068,0.188-1.623,0.188
			c-0.424,0-0.856-0.032-1.297-0.098s-0.873-0.16-1.297-0.286c-0.424-0.125-0.837-0.274-1.239-0.449
			c-0.402-0.174-0.772-0.375-1.109-0.604l1.174-2.333c0.055,0.054,0.201,0.158,0.44,0.31s0.533,0.305,0.882,0.457
			c0.348,0.153,0.738,0.289,1.174,0.408c0.435,0.12,0.875,0.18,1.321,0.18c0.946,0,1.419-0.288,1.419-0.865
			c0-0.217-0.07-0.397-0.212-0.538s-0.337-0.269-0.587-0.383s-0.544-0.221-0.881-0.318c-0.338-0.098-0.707-0.206-1.109-0.326
			c-0.533-0.163-0.995-0.34-1.387-0.53c-0.392-0.19-0.718-0.41-0.979-0.66c-0.262-0.25-0.454-0.539-0.579-0.865
			c-0.125-0.326-0.188-0.707-0.188-1.142c0-0.609,0.114-1.147,0.343-1.615c0.229-0.467,0.538-0.861,0.93-1.183
			c0.391-0.32,0.846-0.562,1.361-0.726C446.358,0.082,446.905,0,447.481,0c0.413,0,0.815,0.038,1.207,0.114
			c0.392,0.076,0.765,0.174,1.118,0.294c0.353,0.12,0.688,0.256,1.003,0.408c0.315,0.153,0.598,0.305,0.849,0.457L450.5,3.491z"/>
		<path fill="#C9C9C0" d="M462.375,2.447h-3.523v9.233h-2.676V2.447h-3.539V0.098h9.738V2.447z"/>
		<path fill="#C9C9C0" d="M461.51,11.68l4.454-11.582h2.169l4.438,11.582h-2.838l-0.897-2.594h-3.605l-0.881,2.594H461.51z
			 M467.04,2.936l-1.386,4.307h2.724L467.04,2.936z"/>
		<path fill="#C9C9C0" d="M481.135,10.554c-0.414,0.413-0.852,0.718-1.313,0.913c-0.463,0.196-0.966,0.294-1.509,0.294
			c-0.729,0-1.417-0.163-2.064-0.489c-0.646-0.326-1.212-0.761-1.695-1.305c-0.484-0.543-0.868-1.177-1.15-1.9
			c-0.283-0.723-0.424-1.476-0.424-2.259c0-0.794,0.141-1.544,0.424-2.251c0.282-0.707,0.674-1.321,1.174-1.844
			c0.5-0.521,1.088-0.935,1.762-1.239c0.675-0.305,1.403-0.457,2.187-0.457c1.022,0,1.919,0.226,2.691,0.677
			c0.772,0.452,1.349,1.069,1.729,1.852l-2.007,1.501c-0.239-0.522-0.585-0.927-1.036-1.215c-0.451-0.288-0.938-0.432-1.46-0.432
			c-0.413,0-0.785,0.09-1.117,0.269s-0.62,0.43-0.864,0.75c-0.245,0.321-0.433,0.693-0.562,1.117
			c-0.131,0.424-0.196,0.881-0.196,1.37c0,0.5,0.07,0.963,0.212,1.387c0.142,0.424,0.337,0.791,0.588,1.102
			c0.25,0.31,0.549,0.552,0.896,0.726s0.729,0.261,1.143,0.261c0.479,0,0.935-0.116,1.37-0.351c0.435-0.233,0.843-0.59,1.224-1.068
			V7.569h-2.235V5.627h4.453v6.052h-2.218V10.554z"/>
		<path fill="#C9C9C0" d="M493.271,9.331v2.349h-8.14V0.098h7.992v2.349h-5.317v2.251h4.567v2.17h-4.567v2.463H493.271z"/>
	</g>
	<g>
		<path fill="#C9C9C0" d="M552.168,0.098V11.68h-2.676V6.933h-4.616v4.747H542.2V0.098h2.676v4.485h4.616V0.098H552.168z"/>
		<path fill="#C9C9C0" d="M559.247,11.778c-0.827,0-1.577-0.169-2.251-0.506c-0.675-0.337-1.254-0.78-1.737-1.33
			c-0.484-0.549-0.859-1.177-1.126-1.884c-0.267-0.707-0.399-1.436-0.399-2.186c0-0.761,0.139-1.495,0.416-2.202
			s0.663-1.33,1.158-1.868c0.495-0.538,1.082-0.968,1.762-1.289s1.422-0.481,2.227-0.481c0.826,0,1.577,0.168,2.251,0.506
			c0.674,0.337,1.254,0.783,1.737,1.337c0.483,0.555,0.856,1.186,1.118,1.893c0.261,0.707,0.391,1.425,0.391,2.153
			c0,0.761-0.139,1.495-0.416,2.202s-0.66,1.33-1.149,1.868c-0.489,0.538-1.074,0.97-1.754,1.296
			C560.794,11.615,560.052,11.778,559.247,11.778z M556.457,5.905c0,0.446,0.062,0.879,0.188,1.297
			c0.124,0.419,0.304,0.792,0.538,1.118c0.233,0.326,0.527,0.587,0.881,0.783c0.354,0.196,0.758,0.294,1.215,0.294
			c0.468,0,0.875-0.104,1.224-0.31s0.639-0.476,0.873-0.807c0.233-0.332,0.407-0.707,0.521-1.126
			c0.114-0.418,0.172-0.845,0.172-1.28c0-0.446-0.063-0.878-0.188-1.297c-0.126-0.419-0.308-0.789-0.547-1.109
			c-0.239-0.32-0.533-0.576-0.881-0.767c-0.349-0.19-0.745-0.286-1.19-0.286c-0.468,0-0.876,0.101-1.224,0.302
			c-0.349,0.201-0.64,0.465-0.873,0.791s-0.41,0.699-0.53,1.117C556.518,5.043,556.457,5.47,556.457,5.905z"/>
		<path fill="#C9C9C0" d="M574.858,2.447h-3.523v9.233h-2.676V2.447h-3.54V0.098h9.739V2.447z"/>
		<path fill="#C9C9C0" d="M576.18,11.68V0.098h7.862v2.349h-5.188v2.496h4.274v2.169h-4.274v4.568H576.18z"/>
		<path fill="#C9C9C0" d="M585.396,11.68V0.098h2.676V11.68H585.396z"/>
		<path fill="#C9C9C0" d="M591.953,0.098l2.528,3.996l2.528-3.996h2.888l-4.013,5.872l3.883,5.709h-2.888l-2.398-3.833l-2.397,3.833
			h-2.904l3.883-5.709l-4.013-5.872H591.953z"/>
	</g>
	<g>
		<path fill="#C9C9C0" d="M656.936,11.68V4.747l-2.512,5.041h-1.436l-2.513-5.041v6.933h-2.675V0.098h2.903l3.002,6.052l3.018-6.052
			h2.888V11.68H656.936z"/>
		<path fill="#C9C9C0" d="M660.688,11.68l4.453-11.582h2.17l4.437,11.582h-2.838l-0.897-2.594h-3.605l-0.881,2.594H660.688z
			 M666.217,2.936l-1.386,4.307h2.724L666.217,2.936z"/>
		<path fill="#C9C9C0" d="M679.675,3.491c-0.044-0.043-0.163-0.125-0.358-0.245c-0.196-0.12-0.44-0.245-0.734-0.375
			c-0.293-0.13-0.614-0.244-0.963-0.342c-0.348-0.098-0.695-0.147-1.043-0.147c-0.457,0-0.808,0.082-1.053,0.245
			c-0.244,0.163-0.367,0.402-0.367,0.718c0,0.195,0.055,0.358,0.163,0.489c0.108,0.13,0.264,0.247,0.465,0.351
			s0.451,0.198,0.751,0.285c0.299,0.087,0.645,0.186,1.035,0.294c0.555,0.152,1.055,0.318,1.501,0.498s0.826,0.402,1.142,0.668
			c0.315,0.267,0.558,0.59,0.727,0.971c0.168,0.381,0.253,0.838,0.253,1.37c0,0.653-0.122,1.205-0.367,1.656
			s-0.568,0.815-0.971,1.093s-0.867,0.479-1.395,0.604c-0.528,0.125-1.068,0.188-1.623,0.188c-0.425,0-0.856-0.032-1.297-0.098
			s-0.873-0.16-1.297-0.286c-0.425-0.125-0.838-0.274-1.24-0.449c-0.402-0.174-0.772-0.375-1.108-0.604l1.174-2.333
			c0.055,0.054,0.201,0.158,0.44,0.31s0.532,0.305,0.881,0.457c0.349,0.153,0.739,0.289,1.175,0.408
			c0.435,0.12,0.875,0.18,1.321,0.18c0.946,0,1.419-0.288,1.419-0.865c0-0.217-0.07-0.397-0.212-0.538s-0.337-0.269-0.587-0.383
			c-0.251-0.114-0.544-0.221-0.881-0.318c-0.338-0.098-0.707-0.206-1.109-0.326c-0.533-0.163-0.995-0.34-1.387-0.53
			c-0.392-0.19-0.718-0.41-0.979-0.66c-0.262-0.25-0.455-0.539-0.579-0.865c-0.126-0.326-0.188-0.707-0.188-1.142
			c0-0.609,0.115-1.147,0.343-1.615c0.229-0.467,0.538-0.861,0.931-1.183c0.391-0.32,0.845-0.562,1.361-0.726S676.08,0,676.657,0
			c0.413,0,0.815,0.038,1.207,0.114c0.392,0.076,0.764,0.174,1.117,0.294c0.354,0.12,0.688,0.256,1.004,0.408
			c0.315,0.153,0.598,0.305,0.848,0.457L679.675,3.491z"/>
		<path fill="#C9C9C0" d="M691.551,2.447h-3.523v9.233h-2.676V2.447h-3.539V0.098h9.738V2.447z"/>
		<path fill="#C9C9C0" d="M701.012,9.331v2.349h-8.141V0.098h7.994v2.349h-5.318v2.251h4.567v2.17h-4.567v2.463H701.012z"/>
		<path fill="#C9C9C0" d="M702.676,11.68V0.098h5.22c0.544,0,1.047,0.114,1.509,0.342c0.463,0.228,0.862,0.528,1.199,0.897
			c0.337,0.37,0.601,0.789,0.791,1.256c0.19,0.468,0.285,0.941,0.285,1.419c0,0.359-0.043,0.705-0.13,1.036
			c-0.087,0.332-0.212,0.645-0.375,0.938c-0.163,0.293-0.362,0.557-0.596,0.791s-0.497,0.432-0.791,0.596l2.659,4.306h-3.019
			l-2.332-3.736h-1.746v3.736H702.676z M705.351,5.611h2.447c0.315,0,0.587-0.149,0.815-0.449c0.229-0.299,0.343-0.682,0.343-1.15
			c0-0.478-0.131-0.859-0.392-1.142c-0.261-0.282-0.544-0.424-0.848-0.424h-2.366V5.611z"/>
	</g>
	<g>
		<path fill="#C9C9C0" d="M2.349,536.194v3.523h9.233v2.675H2.349v3.54H0v-9.738H2.349z"/>
		<path fill="#C9C9C0" d="M11.582,534.873H0v-2.675h11.582V534.873z"/>
		<path fill="#C9C9C0" d="M11.582,520.844H4.648l5.041,2.512v1.436l-5.041,2.513h6.934v2.675H0v-2.903l6.052-3.002L0,521.056v-2.887
			h11.582V520.844z"/>
		<path fill="#C9C9C0" d="M9.232,507.811h2.35v8.14H0v-7.993h2.349v5.318H4.6v-4.568h2.17v4.568h2.463V507.811z"/>
		<path fill="#C9C9C0" d="M11.582,506.147H0v-2.676h9.232v-5.611h2.35V506.147z"/>
		<path fill="#C9C9C0" d="M11.582,496.539H0v-2.675h11.582V496.539z"/>
		<path fill="#C9C9C0" d="M4.959,488.97h6.623v2.675H0v-2.088l6.802-5.399H0v-2.675h11.582v2.153L4.959,488.97z"/>
		<path fill="#C9C9C0" d="M9.232,471.125h2.35v8.14H0v-7.993h2.349v5.318H4.6v-4.568h2.17v4.568h2.463V471.125z"/>
	</g>
	<g>
		<path fill="#C9C9C0" d="M710.752,196.279h11.582v4.323c0,0.957-0.152,1.794-0.457,2.512s-0.717,1.318-1.239,1.803
			c-0.522,0.483-1.134,0.848-1.835,1.093c-0.701,0.245-1.449,0.367-2.243,0.367c-0.881,0-1.678-0.137-2.39-0.408
			c-0.713-0.272-1.321-0.661-1.827-1.166c-0.506-0.506-0.897-1.115-1.175-1.827c-0.277-0.712-0.416-1.504-0.416-2.374V196.279z
			 M716.56,203.652c0.511,0,0.976-0.068,1.395-0.204c0.419-0.136,0.78-0.334,1.085-0.595s0.538-0.582,0.701-0.962
			s0.245-0.811,0.245-1.289v-1.648h-6.884v1.648c0,0.489,0.087,0.924,0.261,1.305c0.174,0.38,0.416,0.698,0.726,0.954
			c0.311,0.255,0.674,0.451,1.094,0.587C715.6,203.584,716.059,203.652,716.56,203.652z"/>
		<path fill="#C9C9C0" d="M713.102,216.115h-2.35v-8.14h11.582v7.993h-2.349v-5.318h-2.251v4.567h-2.17v-4.567h-2.463V216.115z"/>
		<path fill="#C9C9C0" d="M722.334,219.426l-8.222,2.74l8.222,2.691v2.822l-11.582-4.404v-2.235l11.582-4.437V219.426z"/>
		<path fill="#C9C9C0" d="M713.102,236.88h-2.35v-8.14h11.582v7.993h-2.349v-5.318h-2.251v4.568h-2.17v-4.568h-2.463V236.88z"/>
		<path fill="#C9C9C0" d="M710.752,238.544h11.582v2.675h-9.232v5.612h-2.35V238.544z"/>
		<path fill="#C9C9C0" d="M710.654,252.655c0-0.827,0.168-1.577,0.506-2.251c0.337-0.675,0.78-1.254,1.329-1.737
			c0.55-0.484,1.177-0.859,1.884-1.126s1.436-0.399,2.187-0.399c0.761,0,1.495,0.139,2.202,0.416s1.329,0.663,1.867,1.158
			c0.539,0.495,0.969,1.082,1.289,1.762s0.481,1.422,0.481,2.227c0,0.826-0.169,1.577-0.506,2.251s-0.783,1.253-1.337,1.737
			c-0.555,0.484-1.186,0.856-1.893,1.118s-1.425,0.391-2.153,0.391c-0.762,0-1.495-0.139-2.202-0.416
			c-0.707-0.277-1.33-0.66-1.868-1.149c-0.538-0.49-0.971-1.074-1.297-1.754S710.654,253.459,710.654,252.655z M716.527,249.865
			c-0.446,0-0.879,0.062-1.297,0.188c-0.419,0.125-0.792,0.304-1.118,0.538c-0.326,0.233-0.587,0.527-0.782,0.881
			c-0.196,0.354-0.294,0.758-0.294,1.215c0,0.468,0.103,0.875,0.31,1.224s0.476,0.639,0.808,0.873
			c0.331,0.233,0.707,0.408,1.126,0.521c0.418,0.114,0.845,0.172,1.28,0.172c0.446,0,0.878-0.063,1.297-0.188
			c0.419-0.125,0.788-0.308,1.109-0.547c0.32-0.239,0.576-0.533,0.767-0.881c0.189-0.348,0.285-0.745,0.285-1.19
			c0-0.468-0.101-0.876-0.302-1.224c-0.201-0.349-0.465-0.639-0.791-0.873s-0.699-0.41-1.117-0.53
			C717.389,249.925,716.962,249.865,716.527,249.865z"/>
		<path fill="#C9C9C0" d="M710.752,259.767h11.582v4.943c0,0.555-0.114,1.062-0.343,1.525c-0.228,0.462-0.527,0.858-0.897,1.19
			c-0.369,0.332-0.788,0.593-1.256,0.783c-0.467,0.19-0.94,0.285-1.419,0.285c-0.511,0-1.001-0.089-1.468-0.269
			c-0.468-0.18-0.887-0.43-1.256-0.751c-0.37-0.32-0.664-0.709-0.881-1.166c-0.218-0.457-0.326-0.962-0.326-1.517v-2.349h-3.736
			V259.767z M716.82,262.442v2.186c0,0.315,0.136,0.587,0.408,0.816c0.271,0.228,0.668,0.342,1.19,0.342
			c0.272,0,0.506-0.036,0.702-0.106c0.195-0.071,0.358-0.166,0.488-0.286c0.131-0.12,0.227-0.255,0.286-0.408s0.09-0.305,0.09-0.457
			v-2.088H716.82z"/>
		<path fill="#C9C9C0" d="M710.752,279.016h6.934l-5.041-2.512v-1.436l5.041-2.512h-6.934v-2.675h11.582v2.904l-6.052,3.001
			l6.052,3.018v2.888h-11.582V279.016z"/>
		<path fill="#C9C9C0" d="M713.102,292.049h-2.35v-8.141h11.582v7.993h-2.349v-5.317h-2.251v4.567h-2.17v-4.567h-2.463V292.049z"/>
		<path fill="#C9C9C0" d="M717.375,296.388h-6.623v-2.676h11.582v2.088l-6.803,5.399h6.803v2.675h-11.582v-2.153L717.375,296.388z"
			/>
		<path fill="#C9C9C0" d="M719.985,314.919v-3.523h-9.233v-2.675h9.233v-3.54h2.349v9.739H719.985z"/>
	</g>
	<g>
		<path fill="#C9C9C0" d="M711.453,507.514c-0.25-0.414-0.442-0.851-0.578-1.313c-0.137-0.462-0.204-0.954-0.204-1.477
			c0-0.826,0.165-1.577,0.497-2.251c0.332-0.674,0.772-1.253,1.321-1.737c0.55-0.484,1.177-0.859,1.884-1.125
			c0.707-0.267,1.436-0.4,2.187-0.4c0.761,0,1.495,0.139,2.202,0.416s1.332,0.663,1.876,1.158s0.976,1.082,1.297,1.762
			c0.32,0.68,0.481,1.422,0.481,2.227c0,0.827-0.172,1.577-0.514,2.251c-0.343,0.674-0.792,1.253-1.346,1.737
			c-0.555,0.484-1.186,0.856-1.893,1.118c-0.707,0.261-1.425,0.391-2.153,0.391c-0.718,0-1.4-0.12-2.048-0.359
			c-0.646-0.239-1.236-0.571-1.77-0.995l-1.941,1.762v-2.528L711.453,507.514z M713.053,504.757c0,0.414,0.081,0.778,0.244,1.093
			l2.023-1.827v2.512l-0.67,0.604c0.599,0.271,1.234,0.408,1.909,0.408c0.446,0,0.878-0.062,1.297-0.188s0.788-0.308,1.109-0.547
			c0.32-0.239,0.579-0.533,0.774-0.881c0.196-0.348,0.294-0.745,0.294-1.19c0-0.468-0.101-0.876-0.302-1.224
			c-0.201-0.348-0.468-0.639-0.8-0.873c-0.331-0.234-0.707-0.411-1.125-0.53c-0.419-0.12-0.846-0.179-1.28-0.179
			c-0.446,0-0.879,0.062-1.297,0.188c-0.419,0.125-0.789,0.304-1.109,0.538c-0.321,0.234-0.579,0.527-0.775,0.881
			C713.15,503.895,713.053,504.3,713.053,504.757z"/>
		<path fill="#C9C9C0" d="M710.752,510.581l11.582,4.453v2.17l-11.582,4.437v-2.838l2.594-0.897V514.3l-2.594-0.881V510.581z
			 M719.496,516.111l-4.307-1.387v2.724L719.496,516.111z"/>
	</g>
	<g>
		<path fill="#C9C9C0" d="M710.752,631.855h11.582v5.221c0,0.543-0.114,1.046-0.343,1.509c-0.228,0.462-0.527,0.861-0.897,1.199
			c-0.369,0.337-0.788,0.601-1.256,0.792c-0.467,0.19-0.94,0.285-1.419,0.285c-0.358,0-0.704-0.044-1.036-0.131
			s-0.644-0.212-0.938-0.375s-0.558-0.361-0.791-0.595c-0.234-0.234-0.433-0.498-0.596-0.792l-4.307,2.659v-3.018l3.736-2.333
			v-1.745h-3.736V631.855z M716.82,634.531v2.447c0,0.315,0.149,0.587,0.449,0.816c0.299,0.228,0.682,0.342,1.149,0.342
			c0.479,0,0.859-0.13,1.142-0.392c0.283-0.261,0.425-0.544,0.425-0.848v-2.365H716.82z"/>
		<path fill="#C9C9C0" d="M713.102,651.087h-2.35v-8.14h11.582v7.993h-2.349v-5.318h-2.251v4.568h-2.17v-4.568h-2.463V651.087z"/>
		<path fill="#C9C9C0" d="M710.752,652.751h11.582v2.675h-9.232v5.612h-2.35V652.751z"/>
		<path fill="#C9C9C0" d="M713.102,670.5h-2.35v-8.14h11.582v7.993h-2.349v-5.318h-2.251v4.567h-2.17v-4.567h-2.463V670.5z"/>
		<path fill="#C9C9C0" d="M710.752,671.021l11.582,4.454v2.169l-11.582,4.438v-2.839l2.594-0.897v-3.605l-2.594-0.881V671.021z
			 M719.496,676.551l-4.307-1.387v2.725L719.496,676.551z"/>
		<path fill="#C9C9C0" d="M718.941,690.009c0.043-0.044,0.125-0.163,0.244-0.359c0.12-0.195,0.245-0.44,0.375-0.734
			c0.131-0.293,0.245-0.615,0.343-0.962c0.099-0.348,0.147-0.696,0.147-1.044c0-0.457-0.082-0.808-0.245-1.052
			s-0.402-0.367-0.718-0.367c-0.195,0-0.359,0.054-0.489,0.163c-0.131,0.108-0.247,0.264-0.351,0.465s-0.199,0.451-0.285,0.75
			c-0.088,0.299-0.186,0.645-0.294,1.036c-0.152,0.555-0.318,1.055-0.498,1.501c-0.179,0.445-0.402,0.826-0.669,1.142
			c-0.266,0.315-0.59,0.557-0.971,0.726c-0.381,0.169-0.837,0.253-1.369,0.253c-0.653,0-1.205-0.122-1.656-0.367
			s-0.815-0.569-1.093-0.971c-0.277-0.403-0.479-0.868-0.604-1.395c-0.125-0.527-0.188-1.068-0.188-1.623
			c0-0.424,0.033-0.856,0.099-1.297s0.16-0.873,0.285-1.297c0.125-0.424,0.274-0.837,0.448-1.239s0.376-0.772,0.604-1.109
			l2.333,1.174c-0.054,0.054-0.157,0.201-0.31,0.44s-0.305,0.533-0.457,0.881c-0.152,0.348-0.288,0.739-0.408,1.174
			c-0.119,0.435-0.179,0.875-0.179,1.321c0,0.946,0.288,1.419,0.864,1.419c0.218,0,0.396-0.071,0.538-0.212
			c0.142-0.142,0.27-0.337,0.384-0.587s0.221-0.544,0.318-0.881s0.206-0.707,0.326-1.109c0.163-0.533,0.34-0.995,0.529-1.386
			c0.19-0.392,0.411-0.718,0.661-0.979c0.25-0.261,0.538-0.454,0.864-0.579s0.707-0.188,1.143-0.188
			c0.608,0,1.146,0.114,1.615,0.343c0.467,0.229,0.861,0.538,1.182,0.93c0.321,0.392,0.563,0.846,0.727,1.362
			c0.163,0.516,0.244,1.062,0.244,1.639c0,0.413-0.038,0.816-0.113,1.207c-0.076,0.392-0.175,0.764-0.294,1.118
			c-0.12,0.353-0.256,0.688-0.408,1.003s-0.305,0.598-0.456,0.849L718.941,690.009z"/>
		<path fill="#C9C9C0" d="M713.102,701.232h-2.35v-8.14h11.582v7.993h-2.349v-5.318h-2.251v4.568h-2.17v-4.568h-2.463V701.232z"/>
	</g>
	<g>
		
			<rect x="332.468" y="894.934" transform="matrix(0.7071 0.7071 -0.7071 0.7071 739.674 23.1301)" fill="#FFFFFF" stroke="#C9C9C0" stroke-width="8" stroke-miterlimit="10" width="18.901" height="18.901"/>
		<circle fill="#FFFFFF" stroke="#C9C9C0" stroke-width="8" stroke-miterlimit="10" cx="83.811" cy="903.399" r="10.907"/>
		<g>
			<g>
				<path fill="#C9C9C0" d="M110.826,908.489v-11.582h4.942c0.555,0,1.062,0.114,1.525,0.343c0.462,0.228,0.858,0.527,1.19,0.897
					s0.593,0.789,0.783,1.256c0.19,0.468,0.285,0.941,0.285,1.419c0,0.511-0.09,1-0.269,1.468c-0.18,0.468-0.431,0.887-0.751,1.256
					s-0.709,0.664-1.166,0.881s-0.963,0.326-1.518,0.326h-2.349v3.736H110.826z M113.501,902.42h2.187
					c0.314,0,0.587-0.136,0.815-0.408c0.228-0.271,0.343-0.668,0.343-1.19c0-0.272-0.036-0.506-0.106-0.702
					c-0.071-0.196-0.166-0.359-0.286-0.489c-0.119-0.13-0.255-0.226-0.407-0.286c-0.152-0.06-0.305-0.09-0.457-0.09h-2.088V902.42z"
					/>
				<path fill="#C9C9C0" d="M129.08,906.139v2.35h-8.141v-11.582h7.993v2.349h-5.317v2.251h4.567v2.169h-4.567v2.463H129.08z"/>
				<path fill="#C9C9C0" d="M130.743,908.489v-11.582h5.22c0.544,0,1.047,0.114,1.51,0.343c0.462,0.228,0.861,0.527,1.198,0.897
					s0.601,0.789,0.792,1.256c0.189,0.468,0.285,0.941,0.285,1.419c0,0.358-0.044,0.704-0.131,1.036
					c-0.087,0.332-0.212,0.644-0.375,0.938s-0.361,0.558-0.596,0.791c-0.233,0.234-0.497,0.433-0.791,0.596l2.659,4.307h-3.019
					l-2.332-3.736h-1.746v3.736H130.743z M133.418,902.42h2.447c0.315,0,0.588-0.149,0.816-0.449
					c0.228-0.299,0.342-0.682,0.342-1.15c0-0.479-0.131-0.859-0.392-1.142s-0.544-0.424-0.848-0.424h-2.366V902.42z"/>
				<path fill="#C9C9C0" d="M150.971,908.489v-6.933l-2.512,5.041h-1.436l-2.513-5.041v6.933h-2.675v-11.582h2.903l3.002,6.052
					l3.018-6.052h2.888v11.582H150.971z"/>
				<path fill="#C9C9C0" d="M154.723,908.489l4.453-11.582h2.17l4.437,11.582h-2.839l-0.896-2.594h-3.605l-0.881,2.594H154.723z
					 M160.252,899.745l-1.387,4.306h2.725L160.252,899.745z"/>
				<path fill="#C9C9C0" d="M169.518,901.866v6.623h-2.676v-11.582h2.089l5.399,6.802v-6.802h2.675v11.582h-2.153L169.518,901.866z"
					/>
				<path fill="#C9C9C0" d="M187.363,906.139v2.35h-8.14v-11.582h7.993v2.349h-5.318v2.251h4.568v2.169h-4.568v2.463H187.363z"/>
				<path fill="#C9C9C0" d="M191.702,901.866v6.623h-2.675v-11.582h2.088l5.399,6.802v-6.802h2.675v11.582h-2.152L191.702,901.866z"
					/>
				<path fill="#C9C9C0" d="M210.233,899.255h-3.523v9.233h-2.675v-9.233h-3.54v-2.349h9.738V899.255z"/>
				<path fill="#C9C9C0" d="M224.474,905.52c0,0.5-0.104,0.936-0.31,1.305c-0.207,0.37-0.489,0.677-0.849,0.922
					c-0.358,0.244-0.777,0.43-1.256,0.555s-0.984,0.188-1.517,0.188h-5.645v-11.582h6.443c0.402,0,0.767,0.087,1.093,0.261
					c0.326,0.174,0.604,0.4,0.832,0.677c0.229,0.277,0.405,0.593,0.53,0.946c0.125,0.354,0.188,0.715,0.188,1.085
					c0,0.555-0.139,1.077-0.416,1.566c-0.277,0.49-0.693,0.859-1.248,1.109c0.663,0.196,1.188,0.544,1.574,1.044
					C224.28,904.095,224.474,904.737,224.474,905.52z M217.573,899.19v2.398h2.627c0.293,0,0.555-0.098,0.782-0.294
					c0.229-0.195,0.343-0.5,0.343-0.913c0-0.381-0.101-0.674-0.302-0.881s-0.443-0.31-0.726-0.31H217.573z M221.75,904.981
					c0-0.359-0.104-0.664-0.311-0.914s-0.468-0.375-0.783-0.375h-3.083v2.528h2.97c0.348,0,0.636-0.114,0.864-0.343
					S221.75,905.351,221.75,904.981z"/>
				<path fill="#C9C9C0" d="M226.056,908.489v-11.582h5.221c0.544,0,1.046,0.114,1.509,0.343c0.462,0.228,0.861,0.527,1.199,0.897
					c0.336,0.37,0.601,0.789,0.791,1.256c0.189,0.468,0.285,0.941,0.285,1.419c0,0.358-0.044,0.704-0.131,1.036
					c-0.087,0.332-0.212,0.644-0.375,0.938s-0.361,0.558-0.596,0.791c-0.233,0.234-0.497,0.433-0.791,0.596l2.659,4.307h-3.018
					l-2.333-3.736h-1.745v3.736H226.056z M228.731,902.42h2.446c0.315,0,0.588-0.149,0.816-0.449s0.342-0.682,0.342-1.15
					c0-0.479-0.13-0.859-0.391-1.142c-0.262-0.283-0.545-0.424-0.849-0.424h-2.365V902.42z"/>
				<path fill="#C9C9C0" d="M235.974,908.489l4.454-11.582h2.169l4.438,11.582h-2.839l-0.896-2.594h-3.605l-0.881,2.594H235.974z
					 M241.504,899.745l-1.387,4.306h2.725L241.504,899.745z"/>
				<path fill="#C9C9C0" d="M250.77,901.866v6.623h-2.676v-11.582h2.088l5.399,6.802v-6.802h2.676v11.582h-2.153L250.77,901.866z"/>
				<path fill="#C9C9C0" d="M259.807,902.6c0-0.696,0.125-1.389,0.375-2.08s0.614-1.308,1.093-1.852s1.062-0.984,1.753-1.321
					c0.691-0.337,1.477-0.506,2.357-0.506c1.033,0,1.931,0.234,2.691,0.701c0.762,0.468,1.327,1.077,1.697,1.827l-2.056,1.436
					c-0.12-0.304-0.272-0.557-0.457-0.758s-0.386-0.364-0.604-0.49c-0.218-0.125-0.443-0.212-0.677-0.261
					c-0.234-0.049-0.454-0.073-0.66-0.073c-0.479,0-0.893,0.104-1.24,0.31c-0.348,0.207-0.637,0.474-0.864,0.8
					c-0.229,0.326-0.399,0.696-0.515,1.109c-0.113,0.414-0.171,0.832-0.171,1.256c0,0.457,0.067,0.897,0.204,1.321
					c0.136,0.424,0.326,0.799,0.57,1.125c0.245,0.326,0.541,0.584,0.89,0.775c0.348,0.19,0.733,0.285,1.158,0.285
					c0.218,0,0.442-0.029,0.677-0.09c0.234-0.06,0.459-0.152,0.677-0.277c0.218-0.125,0.413-0.288,0.588-0.489
					c0.174-0.201,0.315-0.448,0.424-0.742l2.202,1.289c-0.174,0.424-0.427,0.805-0.759,1.142c-0.331,0.337-0.709,0.62-1.134,0.849
					c-0.424,0.228-0.872,0.402-1.346,0.521c-0.473,0.12-0.938,0.18-1.395,0.18c-0.805,0-1.541-0.171-2.21-0.514
					c-0.669-0.343-1.245-0.797-1.729-1.362s-0.862-1.207-1.134-1.925C259.941,904.068,259.807,903.339,259.807,902.6z"/>
				<path fill="#C9C9C0" d="M281.257,896.907v11.582h-2.675v-4.747h-4.617v4.747h-2.675v-11.582h2.675v4.486h4.617v-4.486H281.257z"
					/>
			</g>
		</g>
		<g>
			<g>
				<path fill="#C9C9C0" d="M381.251,899.255h-3.523v9.233h-2.676v-9.233h-3.54v-2.349h9.739V899.255z"/>
				<path fill="#C9C9C0" d="M390.712,906.139v2.35h-8.14v-11.582h7.992v2.349h-5.317v2.251h4.567v2.169h-4.567v2.463H390.712z"/>
				<path fill="#C9C9C0" d="M401.511,908.489v-6.933l-2.512,5.041h-1.436l-2.513-5.041v6.933h-2.675v-11.582h2.903l3.002,6.052
					l3.018-6.052h2.887v11.582H401.511z"/>
				<path fill="#C9C9C0" d="M406.404,908.489v-11.582h4.943c0.555,0,1.062,0.114,1.524,0.343c0.462,0.228,0.859,0.527,1.191,0.897
					c0.331,0.37,0.593,0.789,0.782,1.256c0.19,0.468,0.286,0.941,0.286,1.419c0,0.511-0.09,1-0.27,1.468
					c-0.179,0.468-0.43,0.887-0.75,1.256c-0.321,0.37-0.71,0.664-1.167,0.881c-0.456,0.217-0.962,0.326-1.517,0.326h-2.349v3.736
					H406.404z M409.08,902.42h2.186c0.315,0,0.587-0.136,0.815-0.408c0.229-0.271,0.343-0.668,0.343-1.19
					c0-0.272-0.035-0.506-0.106-0.702c-0.07-0.196-0.165-0.359-0.285-0.489s-0.256-0.226-0.407-0.286
					c-0.153-0.06-0.305-0.09-0.457-0.09h-2.088V902.42z"/>
				<path fill="#C9C9C0" d="M421.379,908.586c-0.826,0-1.577-0.168-2.251-0.506c-0.675-0.337-1.253-0.78-1.737-1.329
					c-0.484-0.549-0.859-1.177-1.125-1.884c-0.268-0.707-0.4-1.436-0.4-2.186c0-0.761,0.139-1.495,0.416-2.202
					s0.663-1.329,1.158-1.868s1.082-0.968,1.762-1.289s1.422-0.481,2.227-0.481c0.826,0,1.577,0.169,2.252,0.506
					c0.674,0.337,1.253,0.783,1.736,1.337c0.484,0.555,0.857,1.186,1.118,1.892c0.261,0.707,0.392,1.425,0.392,2.153
					c0,0.762-0.139,1.496-0.416,2.202c-0.277,0.707-0.661,1.33-1.15,1.868s-1.074,0.971-1.754,1.297
					S422.184,908.586,421.379,908.586z M418.59,902.714c0,0.446,0.062,0.878,0.188,1.297s0.305,0.792,0.538,1.118
					s0.527,0.587,0.881,0.783s0.759,0.293,1.216,0.293c0.467,0,0.875-0.103,1.223-0.31c0.349-0.207,0.639-0.476,0.873-0.808
					c0.234-0.332,0.408-0.707,0.521-1.125c0.115-0.418,0.172-0.845,0.172-1.281c0-0.446-0.062-0.878-0.188-1.297
					c-0.125-0.418-0.308-0.788-0.547-1.109c-0.239-0.32-0.533-0.576-0.881-0.767c-0.348-0.19-0.745-0.285-1.19-0.285
					c-0.468,0-0.876,0.101-1.224,0.302s-0.639,0.465-0.873,0.791c-0.233,0.326-0.41,0.699-0.529,1.117
					C418.649,901.852,418.59,902.279,418.59,902.714z"/>
				<path fill="#C9C9C0" d="M428.491,908.489v-11.582h5.22c0.544,0,1.047,0.114,1.51,0.343c0.462,0.228,0.861,0.527,1.198,0.897
					s0.601,0.789,0.792,1.256c0.189,0.468,0.285,0.941,0.285,1.419c0,0.358-0.044,0.704-0.131,1.036
					c-0.087,0.332-0.212,0.644-0.375,0.938s-0.361,0.558-0.596,0.791c-0.233,0.234-0.497,0.433-0.791,0.596l2.659,4.307h-3.019
					l-2.332-3.736h-1.746v3.736H428.491z M431.166,902.42h2.447c0.315,0,0.588-0.149,0.816-0.449
					c0.228-0.299,0.342-0.682,0.342-1.15c0-0.479-0.131-0.859-0.392-1.142s-0.544-0.424-0.848-0.424h-2.366V902.42z"/>
				<path fill="#C9C9C0" d="M438.409,908.489l4.453-11.582h2.17l4.437,11.582h-2.838l-0.897-2.594h-3.604l-0.881,2.594H438.409z
					 M443.939,899.745l-1.387,4.306h2.725L443.939,899.745z"/>
				<path fill="#C9C9C0" d="M450.529,908.489v-11.582h5.22c0.544,0,1.047,0.114,1.509,0.343c0.463,0.228,0.862,0.527,1.199,0.897
					s0.601,0.789,0.791,1.256c0.19,0.468,0.285,0.941,0.285,1.419c0,0.358-0.043,0.704-0.13,1.036
					c-0.087,0.332-0.212,0.644-0.375,0.938s-0.362,0.558-0.596,0.791c-0.233,0.234-0.497,0.433-0.791,0.596l2.659,4.307h-3.019
					l-2.332-3.736h-1.746v3.736H450.529z M453.204,902.42h2.447c0.315,0,0.587-0.149,0.815-0.449s0.343-0.682,0.343-1.15
					c0-0.479-0.131-0.859-0.392-1.142s-0.544-0.424-0.848-0.424h-2.366V902.42z"/>
				<path fill="#C9C9C0" d="M462.666,896.907l2.496,5.318l2.544-5.318h2.903l-4.11,7.634v3.948h-2.675v-3.98l-4.062-7.602H462.666z"
					/>
				<path fill="#C9C9C0" d="M484.346,905.52c0,0.5-0.104,0.936-0.311,1.305c-0.207,0.37-0.489,0.677-0.848,0.922
					c-0.359,0.244-0.778,0.43-1.257,0.555s-0.984,0.188-1.517,0.188h-5.645v-11.582h6.443c0.402,0,0.767,0.087,1.094,0.261
					c0.326,0.174,0.604,0.4,0.831,0.677c0.229,0.277,0.405,0.593,0.53,0.946c0.125,0.354,0.188,0.715,0.188,1.085
					c0,0.555-0.139,1.077-0.416,1.566c-0.277,0.49-0.693,0.859-1.248,1.109c0.664,0.196,1.188,0.544,1.574,1.044
					C484.152,904.095,484.346,904.737,484.346,905.52z M477.445,899.19v2.398h2.626c0.294,0,0.555-0.098,0.783-0.294
					c0.228-0.195,0.343-0.5,0.343-0.913c0-0.381-0.102-0.674-0.303-0.881s-0.443-0.31-0.726-0.31H477.445z M481.621,904.981
					c0-0.359-0.104-0.664-0.311-0.914c-0.206-0.25-0.467-0.375-0.782-0.375h-3.083v2.528h2.969c0.348,0,0.636-0.114,0.864-0.343
					S481.621,905.351,481.621,904.981z"/>
				<path fill="#C9C9C0" d="M485.927,908.489v-11.582h5.221c0.544,0,1.046,0.114,1.509,0.343c0.462,0.228,0.861,0.527,1.199,0.897
					c0.336,0.37,0.601,0.789,0.791,1.256c0.189,0.468,0.285,0.941,0.285,1.419c0,0.358-0.044,0.704-0.131,1.036
					c-0.087,0.332-0.212,0.644-0.375,0.938s-0.361,0.558-0.596,0.791c-0.233,0.234-0.497,0.433-0.791,0.596l2.659,4.307h-3.018
					l-2.333-3.736h-1.745v3.736H485.927z M488.603,902.42h2.446c0.315,0,0.588-0.149,0.816-0.449s0.342-0.682,0.342-1.15
					c0-0.479-0.13-0.859-0.391-1.142c-0.262-0.283-0.545-0.424-0.849-0.424h-2.365V902.42z"/>
				<path fill="#C9C9C0" d="M495.845,908.489l4.454-11.582h2.169l4.438,11.582h-2.839l-0.896-2.594h-3.605l-0.881,2.594H495.845z
					 M501.375,899.745l-1.387,4.306h2.725L501.375,899.745z"/>
				<path fill="#C9C9C0" d="M510.641,901.866v6.623h-2.676v-11.582h2.088l5.4,6.802v-6.802h2.675v11.582h-2.153L510.641,901.866z"/>
				<path fill="#C9C9C0" d="M519.678,902.6c0-0.696,0.125-1.389,0.375-2.08s0.614-1.308,1.093-1.852s1.062-0.984,1.753-1.321
					c0.691-0.337,1.477-0.506,2.357-0.506c1.033,0,1.931,0.234,2.691,0.701c0.762,0.468,1.327,1.077,1.697,1.827l-2.056,1.436
					c-0.12-0.304-0.272-0.557-0.457-0.758s-0.386-0.364-0.604-0.49c-0.218-0.125-0.443-0.212-0.677-0.261
					c-0.234-0.049-0.454-0.073-0.66-0.073c-0.479,0-0.893,0.104-1.24,0.31c-0.348,0.207-0.637,0.474-0.864,0.8
					c-0.229,0.326-0.399,0.696-0.515,1.109c-0.113,0.414-0.171,0.832-0.171,1.256c0,0.457,0.067,0.897,0.204,1.321
					c0.136,0.424,0.326,0.799,0.57,1.125c0.245,0.326,0.541,0.584,0.89,0.775c0.348,0.19,0.733,0.285,1.158,0.285
					c0.218,0,0.442-0.029,0.677-0.09c0.234-0.06,0.459-0.152,0.677-0.277c0.218-0.125,0.413-0.288,0.588-0.489
					c0.174-0.201,0.315-0.448,0.424-0.742l2.202,1.289c-0.174,0.424-0.427,0.805-0.759,1.142c-0.331,0.337-0.709,0.62-1.134,0.849
					c-0.424,0.228-0.872,0.402-1.346,0.521c-0.473,0.12-0.938,0.18-1.395,0.18c-0.805,0-1.541-0.171-2.21-0.514
					c-0.669-0.343-1.245-0.797-1.729-1.362s-0.862-1.207-1.134-1.925C519.812,904.068,519.678,903.339,519.678,902.6z"/>
				<path fill="#C9C9C0" d="M541.128,896.907v11.582h-2.675v-4.747h-4.617v4.747h-2.675v-11.582h2.675v4.486h4.617v-4.486H541.128z"
					/>
			</g>
		</g>
		<g>
			<g>
				<path fill="#C9C9C0" d="M668.101,899.255h-3.523v9.233h-2.676v-9.233h-3.54v-2.349h9.739V899.255z"/>
				<path fill="#C9C9C0" d="M667.235,908.489l4.454-11.582h2.169l4.438,11.582h-2.839l-0.896-2.594h-3.605l-0.881,2.594H667.235z
					 M672.766,899.745l-1.387,4.306h2.725L672.766,899.745z"/>
				<path fill="#C9C9C0" d="M686.859,907.363c-0.413,0.414-0.851,0.718-1.312,0.914c-0.463,0.196-0.966,0.293-1.51,0.293
					c-0.729,0-1.416-0.163-2.063-0.489c-0.646-0.326-1.212-0.761-1.696-1.305s-0.867-1.177-1.15-1.9
					c-0.282-0.724-0.424-1.477-0.424-2.26c0-0.793,0.142-1.544,0.424-2.251c0.283-0.707,0.675-1.321,1.175-1.843
					s1.088-0.935,1.762-1.24c0.675-0.304,1.403-0.457,2.187-0.457c1.021,0,1.919,0.226,2.691,0.677
					c0.771,0.452,1.348,1.069,1.729,1.852l-2.006,1.5c-0.239-0.521-0.585-0.927-1.036-1.215s-0.938-0.433-1.46-0.433
					c-0.413,0-0.785,0.09-1.117,0.27c-0.332,0.179-0.62,0.43-0.865,0.75c-0.244,0.321-0.432,0.693-0.562,1.118
					s-0.195,0.881-0.195,1.37c0,0.5,0.07,0.962,0.212,1.386c0.142,0.425,0.337,0.792,0.587,1.102c0.25,0.31,0.549,0.552,0.897,0.726
					c0.348,0.174,0.729,0.261,1.142,0.261c0.479,0,0.936-0.117,1.371-0.351c0.435-0.233,0.842-0.589,1.223-1.068v-0.392h-2.234
					v-1.941h4.453v6.052h-2.219V907.363z"/>
			</g>
		</g>
		<polygon fill="#FFFFFF" stroke="#C9C9C0" stroke-width="4" stroke-miterlimit="10" points="582.456,890.703 582.456,913.485 
			611.286,913.485 622.424,924.623 633.562,913.485 646.516,913.485 646.516,890.703 		"/>
	</g>
	<polygon fill="#FFFFFF" stroke="#C9C9C0" stroke-width="4" stroke-miterlimit="10" points="428.174,495.396 428.174,533.545 
		457.004,533.545 468.142,544.683 479.278,533.545 537.948,533.545 537.948,495.396 	"/>
	<line fill="none" stroke="#C9C9C0" stroke-width="0.8" stroke-miterlimit="10" x1="24.853" y1="89.464" x2="737.798" y2="89.464"/>
	
		<line fill="none" stroke="#C9C9C0" stroke-width="0.8" stroke-miterlimit="10" x1="24.853" y1="421.984" x2="737.798" y2="421.984"/>
	
		<line fill="none" stroke="#C9C9C0" stroke-width="0.8" stroke-miterlimit="10" x1="24.853" y1="588.384" x2="737.798" y2="588.384"/>
	
		<line fill="none" stroke="#C9C9C0" stroke-width="0.8" stroke-miterlimit="10" x1="24.853" y1="799.829" x2="737.798" y2="799.829"/>
	<g>
		<g>
			<path fill="#2F89AF" d="M451.694,518.569h-1.811v-3.972c0-0.567-0.097-0.981-0.29-1.243s-0.462-0.392-0.804-0.392
				c-0.36,0-0.698,0.138-1.014,0.412c-0.315,0.275-0.54,0.633-0.675,1.074v4.121h-1.811v-3.972c0-0.567-0.098-0.981-0.291-1.243
				s-0.461-0.392-0.804-0.392c-0.352,0-0.687,0.135-1.007,0.405c-0.319,0.271-0.547,0.626-0.682,1.067v4.134h-1.811v-7.08h1.635
				v1.311c0.261-0.459,0.619-0.812,1.074-1.061c0.454-0.247,0.975-0.371,1.561-0.371c0.594,0,1.054,0.144,1.378,0.432
				c0.324,0.289,0.531,0.644,0.621,1.067c0.288-0.487,0.653-0.858,1.095-1.115s0.945-0.385,1.513-0.385
				c0.433,0,0.788,0.081,1.067,0.243s0.495,0.374,0.648,0.635s0.259,0.559,0.317,0.892c0.059,0.333,0.088,0.671,0.088,1.014V518.569
				z"/>
			<path fill="#2F89AF" d="M453.815,510.503v-1.796h1.811v1.796H453.815z M453.815,518.569v-7.08h1.811v7.08H453.815z"/>
			<path fill="#2F89AF" d="M457.787,508.707h1.811v7.592c0,0.262,0.062,0.464,0.189,0.608c0.126,0.144,0.306,0.216,0.54,0.216
				c0.108,0,0.228-0.018,0.358-0.054s0.254-0.081,0.371-0.135l0.243,1.378c-0.243,0.117-0.526,0.207-0.851,0.27
				c-0.324,0.063-0.617,0.095-0.879,0.095c-0.566,0-1.006-0.15-1.316-0.452s-0.467-0.732-0.467-1.291V508.707z"/>
			<path fill="#2F89AF" d="M465.907,518.705c-0.567,0-1.081-0.097-1.54-0.291c-0.46-0.194-0.852-0.457-1.176-0.791
				c-0.324-0.333-0.574-0.721-0.75-1.162c-0.176-0.441-0.264-0.905-0.264-1.391c0-0.504,0.086-0.979,0.257-1.425
				c0.171-0.446,0.419-0.838,0.743-1.176c0.324-0.337,0.719-0.605,1.182-0.804c0.465-0.198,0.984-0.297,1.561-0.297
				s1.093,0.099,1.547,0.297c0.455,0.198,0.843,0.464,1.162,0.797c0.32,0.334,0.562,0.721,0.729,1.162s0.25,0.901,0.25,1.378
				c0,0.117-0.002,0.23-0.007,0.338c-0.004,0.108-0.016,0.198-0.033,0.271h-5.472c0.026,0.279,0.095,0.526,0.202,0.743
				c0.108,0.216,0.248,0.4,0.419,0.554s0.365,0.27,0.581,0.351c0.217,0.081,0.441,0.122,0.676,0.122c0.359,0,0.7-0.088,1.02-0.264
				c0.32-0.175,0.538-0.407,0.655-0.695l1.554,0.432c-0.261,0.541-0.678,0.984-1.25,1.331
				C467.382,518.531,466.699,518.705,465.907,518.705z M467.744,514.435c-0.045-0.531-0.241-0.957-0.588-1.276
				c-0.347-0.32-0.768-0.479-1.263-0.479c-0.243,0-0.471,0.042-0.683,0.128c-0.211,0.086-0.398,0.205-0.561,0.358
				s-0.295,0.337-0.398,0.554c-0.104,0.216-0.164,0.455-0.183,0.716H467.744z"/>
			<path fill="#2F89AF" d="M473.932,518.705c-0.594,0-1.176-0.095-1.742-0.284c-0.568-0.188-1.055-0.459-1.46-0.811l0.676-1.135
				c0.433,0.307,0.854,0.539,1.263,0.696c0.41,0.157,0.818,0.236,1.223,0.236c0.361,0,0.645-0.068,0.852-0.203
				c0.207-0.135,0.311-0.328,0.311-0.581c0-0.252-0.121-0.437-0.364-0.554c-0.243-0.117-0.64-0.252-1.188-0.405
				c-0.46-0.126-0.852-0.248-1.176-0.365c-0.324-0.117-0.586-0.25-0.783-0.398c-0.199-0.149-0.343-0.32-0.433-0.513
				c-0.091-0.194-0.136-0.426-0.136-0.696c0-0.36,0.07-0.684,0.21-0.973c0.14-0.288,0.335-0.533,0.587-0.736
				c0.253-0.202,0.548-0.358,0.886-0.466c0.337-0.108,0.704-0.162,1.101-0.162c0.531,0,1.029,0.077,1.493,0.229
				c0.464,0.153,0.89,0.401,1.276,0.743l-0.729,1.094c-0.36-0.27-0.709-0.468-1.047-0.594s-0.673-0.189-1.007-0.189
				c-0.306,0-0.562,0.063-0.77,0.189s-0.311,0.329-0.311,0.608c0,0.126,0.024,0.229,0.074,0.311
				c0.049,0.081,0.128,0.153,0.236,0.216c0.107,0.063,0.25,0.124,0.426,0.183s0.394,0.119,0.654,0.182
				c0.487,0.126,0.903,0.252,1.25,0.378s0.631,0.27,0.852,0.432s0.383,0.349,0.486,0.561c0.104,0.211,0.155,0.466,0.155,0.763
				c0,0.694-0.257,1.241-0.771,1.642C475.513,518.504,474.814,518.705,473.932,518.705z"/>
			<path fill="#2F89AF" d="M482.754,518.205c-0.243,0.108-0.541,0.216-0.892,0.324c-0.352,0.108-0.721,0.162-1.108,0.162
				c-0.252,0-0.488-0.032-0.709-0.095c-0.221-0.062-0.414-0.164-0.581-0.304s-0.3-0.32-0.398-0.541
				c-0.099-0.22-0.148-0.489-0.148-0.804v-4.066h-0.933v-1.392h0.933v-2.296h1.811v2.296h1.485v1.392h-1.485v3.459
				c0,0.252,0.065,0.43,0.195,0.533c0.131,0.104,0.291,0.156,0.479,0.156c0.189,0,0.374-0.032,0.555-0.095
				c0.18-0.063,0.324-0.117,0.432-0.162L482.754,518.205z"/>
			<path fill="#2F89AF" d="M487.334,518.705c-0.576,0-1.095-0.1-1.554-0.297c-0.46-0.198-0.849-0.466-1.169-0.804
				c-0.319-0.337-0.565-0.727-0.736-1.168s-0.257-0.905-0.257-1.392c0-0.496,0.086-0.964,0.257-1.405s0.417-0.831,0.736-1.169
				c0.32-0.337,0.709-0.605,1.169-0.804c0.459-0.198,0.978-0.297,1.554-0.297s1.092,0.099,1.547,0.297s0.842,0.466,1.162,0.804
				c0.319,0.338,0.564,0.728,0.736,1.169c0.171,0.441,0.256,0.91,0.256,1.405c0,0.486-0.085,0.95-0.256,1.392
				c-0.172,0.441-0.415,0.831-0.73,1.168c-0.314,0.338-0.702,0.606-1.161,0.804C488.428,518.605,487.91,518.705,487.334,518.705z
				 M485.482,515.043c0,0.315,0.048,0.601,0.143,0.857c0.094,0.257,0.225,0.479,0.392,0.669s0.362,0.336,0.588,0.439
				c0.225,0.104,0.468,0.155,0.729,0.155c0.261,0,0.504-0.052,0.729-0.155c0.225-0.104,0.421-0.25,0.588-0.439
				c0.166-0.189,0.297-0.414,0.392-0.676c0.095-0.261,0.142-0.549,0.142-0.864c0-0.306-0.047-0.59-0.142-0.852
				c-0.095-0.261-0.226-0.486-0.392-0.675c-0.167-0.189-0.363-0.335-0.588-0.439c-0.226-0.104-0.469-0.155-0.729-0.155
				c-0.262,0-0.505,0.054-0.729,0.162c-0.226,0.108-0.421,0.257-0.588,0.446s-0.298,0.415-0.392,0.675
				C485.53,514.454,485.482,514.737,485.482,515.043z"/>
			<path fill="#2F89AF" d="M499.371,518.569h-1.811v-3.972c0-0.567-0.099-0.981-0.297-1.243s-0.473-0.392-0.824-0.392
				c-0.18,0-0.364,0.036-0.554,0.108s-0.367,0.173-0.534,0.304c-0.166,0.131-0.316,0.286-0.452,0.466
				c-0.135,0.18-0.234,0.378-0.297,0.594v4.134h-1.811v-7.08h1.635v1.311c0.261-0.45,0.64-0.801,1.135-1.054
				c0.495-0.252,1.054-0.378,1.675-0.378c0.441,0,0.802,0.081,1.081,0.243s0.495,0.374,0.648,0.635s0.259,0.559,0.317,0.892
				c0.059,0.333,0.088,0.671,0.088,1.014V518.569z"/>
			<path fill="#2F89AF" d="M504.775,518.705c-0.568,0-1.081-0.097-1.541-0.291c-0.459-0.194-0.851-0.457-1.175-0.791
				c-0.324-0.333-0.574-0.721-0.75-1.162c-0.176-0.441-0.264-0.905-0.264-1.391c0-0.504,0.086-0.979,0.257-1.425
				c0.171-0.446,0.419-0.838,0.743-1.176c0.324-0.337,0.718-0.605,1.183-0.804c0.463-0.198,0.983-0.297,1.561-0.297
				c0.576,0,1.092,0.099,1.547,0.297c0.454,0.198,0.842,0.464,1.161,0.797c0.319,0.334,0.563,0.721,0.729,1.162
				c0.167,0.441,0.25,0.901,0.25,1.378c0,0.117-0.002,0.23-0.007,0.338c-0.005,0.108-0.016,0.198-0.033,0.271h-5.472
				c0.027,0.279,0.095,0.526,0.202,0.743c0.108,0.216,0.248,0.4,0.419,0.554s0.365,0.27,0.581,0.351s0.441,0.122,0.676,0.122
				c0.36,0,0.7-0.088,1.02-0.264c0.319-0.175,0.538-0.407,0.655-0.695l1.554,0.432c-0.261,0.541-0.678,0.984-1.249,1.331
				C506.25,518.531,505.567,518.705,504.775,518.705z M506.612,514.435c-0.045-0.531-0.241-0.957-0.588-1.276
				c-0.347-0.32-0.768-0.479-1.263-0.479c-0.243,0-0.471,0.042-0.683,0.128c-0.212,0.086-0.398,0.205-0.561,0.358
				s-0.295,0.337-0.398,0.554c-0.104,0.216-0.165,0.455-0.183,0.716H506.612z"/>
			<path fill="#2F89AF" d="M518.366,508.977l-6.701,9.592h-1.999l6.688-9.592H518.366z"/>
			<path fill="#2F89AF" d="M525.594,516.935v1.635h-5.431v-1.635h1.864v-6.242c-0.072,0.108-0.191,0.228-0.357,0.358
				c-0.167,0.13-0.356,0.256-0.568,0.378c-0.211,0.122-0.428,0.223-0.648,0.304s-0.421,0.122-0.601,0.122v-1.676
				c0.243,0,0.491-0.065,0.743-0.195c0.252-0.131,0.484-0.275,0.695-0.433c0.212-0.157,0.385-0.304,0.521-0.439
				c0.135-0.135,0.207-0.211,0.216-0.23h1.852v8.052H525.594z"/>
		</g>
	</g>
	<polygon fill="#FFFFFF" stroke="#C9C9C0" stroke-width="4" stroke-miterlimit="10" points="638.164,579.393 638.164,617.542 
		666.993,617.542 678.131,628.679 689.269,617.542 755.938,617.542 755.938,579.393 	"/>
	<g>
		<g>
			<path fill="#2F89AF" d="M654.902,597.053c-0.55,0.009-1.041,0.115-1.473,0.317c-0.433,0.203-0.743,0.507-0.933,0.912v4.283
				h-1.811v-7.08h1.662V597c0.126-0.243,0.274-0.462,0.445-0.655c0.171-0.194,0.356-0.363,0.554-0.507
				c0.198-0.144,0.399-0.254,0.602-0.331c0.203-0.076,0.398-0.115,0.588-0.115c0.099,0,0.174,0,0.223,0
				c0.05,0,0.097,0.004,0.143,0.013V597.053z"/>
			<path fill="#2F89AF" d="M659.388,602.701c-0.567,0-1.081-0.097-1.54-0.291c-0.46-0.194-0.852-0.457-1.176-0.791
				c-0.324-0.333-0.574-0.721-0.75-1.162c-0.176-0.441-0.264-0.905-0.264-1.391c0-0.504,0.086-0.979,0.257-1.425
				c0.171-0.446,0.419-0.838,0.743-1.176c0.324-0.337,0.719-0.605,1.182-0.804c0.465-0.198,0.984-0.297,1.561-0.297
				s1.093,0.099,1.547,0.297c0.455,0.198,0.843,0.464,1.162,0.797c0.32,0.334,0.562,0.721,0.729,1.162s0.25,0.901,0.25,1.378
				c0,0.117-0.002,0.23-0.007,0.338c-0.004,0.108-0.016,0.198-0.033,0.271h-5.472c0.026,0.279,0.095,0.526,0.202,0.743
				c0.108,0.216,0.248,0.4,0.419,0.554s0.365,0.27,0.581,0.351c0.217,0.081,0.441,0.122,0.676,0.122c0.359,0,0.7-0.088,1.02-0.264
				c0.32-0.175,0.538-0.407,0.655-0.695l1.554,0.432c-0.261,0.541-0.678,0.984-1.25,1.331
				C660.862,602.527,660.18,602.701,659.388,602.701z M661.225,598.431c-0.045-0.531-0.241-0.957-0.588-1.276
				c-0.347-0.32-0.768-0.479-1.263-0.479c-0.243,0-0.471,0.042-0.683,0.128c-0.211,0.086-0.398,0.205-0.561,0.358
				s-0.295,0.337-0.398,0.554c-0.104,0.216-0.164,0.455-0.183,0.716H661.225z"/>
			<path fill="#2F89AF" d="M664.724,592.703h1.811v7.592c0,0.262,0.063,0.464,0.189,0.608s0.306,0.216,0.54,0.216
				c0.108,0,0.228-0.018,0.358-0.054c0.13-0.036,0.254-0.081,0.371-0.135l0.243,1.378c-0.243,0.117-0.526,0.207-0.851,0.27
				c-0.324,0.063-0.617,0.095-0.878,0.095c-0.568,0-1.007-0.15-1.318-0.452c-0.311-0.302-0.466-0.732-0.466-1.291V592.703z"/>
			<path fill="#2F89AF" d="M672.844,602.701c-0.568,0-1.081-0.097-1.541-0.291c-0.459-0.194-0.851-0.457-1.175-0.791
				c-0.324-0.333-0.574-0.721-0.75-1.162c-0.176-0.441-0.264-0.905-0.264-1.391c0-0.504,0.086-0.979,0.257-1.425
				c0.171-0.446,0.419-0.838,0.743-1.176c0.324-0.337,0.718-0.605,1.182-0.804s0.984-0.297,1.561-0.297s1.093,0.099,1.547,0.297
				c0.455,0.198,0.843,0.464,1.162,0.797c0.319,0.334,0.562,0.721,0.729,1.162s0.25,0.901,0.25,1.378
				c0,0.117-0.002,0.23-0.007,0.338c-0.005,0.108-0.016,0.198-0.034,0.271h-5.471c0.026,0.279,0.094,0.526,0.202,0.743
				c0.108,0.216,0.248,0.4,0.419,0.554s0.365,0.27,0.581,0.351s0.441,0.122,0.675,0.122c0.36,0,0.701-0.088,1.021-0.264
				c0.319-0.175,0.538-0.407,0.655-0.695l1.554,0.432c-0.261,0.541-0.678,0.984-1.25,1.331
				C674.318,602.527,673.636,602.701,672.844,602.701z M674.681,598.431c-0.045-0.531-0.241-0.957-0.588-1.276
				c-0.347-0.32-0.768-0.479-1.263-0.479c-0.244,0-0.471,0.042-0.683,0.128c-0.212,0.086-0.398,0.205-0.561,0.358
				s-0.296,0.337-0.398,0.554c-0.104,0.216-0.165,0.455-0.183,0.716H674.681z"/>
			<path fill="#2F89AF" d="M680.125,602.701c-0.342,0-0.662-0.057-0.959-0.169s-0.554-0.271-0.77-0.473
				c-0.217-0.203-0.386-0.439-0.508-0.709c-0.121-0.27-0.182-0.568-0.182-0.892c0-0.333,0.074-0.642,0.223-0.925
				c0.148-0.284,0.355-0.525,0.621-0.723c0.266-0.198,0.584-0.353,0.953-0.466c0.369-0.112,0.774-0.169,1.216-0.169
				c0.315,0,0.624,0.027,0.925,0.081c0.303,0.055,0.57,0.131,0.805,0.23v-0.405c0-0.468-0.133-0.829-0.398-1.081
				c-0.266-0.252-0.66-0.379-1.183-0.379c-0.378,0-0.747,0.068-1.107,0.203c-0.36,0.135-0.729,0.333-1.108,0.594l-0.554-1.148
				c0.909-0.604,1.892-0.905,2.945-0.905c1.018,0,1.808,0.25,2.371,0.75c0.562,0.5,0.845,1.223,0.845,2.168v2.202
				c0,0.189,0.033,0.324,0.101,0.405s0.178,0.126,0.331,0.135v1.54c-0.307,0.063-0.572,0.094-0.797,0.094
				c-0.342,0-0.605-0.076-0.79-0.229c-0.185-0.153-0.3-0.355-0.345-0.608l-0.041-0.392c-0.314,0.415-0.697,0.729-1.148,0.946
				C681.12,602.592,680.639,602.701,680.125,602.701z M680.639,601.376c0.306,0,0.597-0.054,0.871-0.162
				c0.275-0.108,0.488-0.252,0.643-0.433c0.197-0.152,0.297-0.324,0.297-0.513v-0.811c-0.217-0.081-0.451-0.146-0.703-0.196
				c-0.252-0.049-0.495-0.074-0.729-0.074c-0.468,0-0.851,0.106-1.148,0.317c-0.297,0.212-0.445,0.479-0.445,0.804
				c0,0.307,0.116,0.561,0.351,0.764C680.008,601.275,680.296,601.376,680.639,601.376z"/>
			<path fill="#2F89AF" d="M689.163,602.701c-0.594,0-1.175-0.095-1.742-0.284c-0.567-0.188-1.054-0.459-1.46-0.811l0.676-1.135
				c0.433,0.307,0.854,0.539,1.264,0.696c0.41,0.157,0.817,0.236,1.223,0.236c0.36,0,0.644-0.068,0.852-0.203
				c0.207-0.135,0.311-0.328,0.311-0.581c0-0.252-0.122-0.437-0.365-0.554c-0.243-0.117-0.64-0.252-1.188-0.405
				c-0.46-0.126-0.852-0.248-1.176-0.365c-0.324-0.117-0.585-0.25-0.783-0.398s-0.343-0.32-0.433-0.513
				c-0.09-0.194-0.135-0.426-0.135-0.696c0-0.36,0.069-0.684,0.209-0.973c0.14-0.288,0.336-0.533,0.588-0.736
				c0.252-0.202,0.547-0.358,0.885-0.466c0.338-0.108,0.705-0.162,1.102-0.162c0.531,0,1.028,0.077,1.492,0.229
				c0.464,0.153,0.89,0.401,1.277,0.743l-0.73,1.094c-0.359-0.27-0.709-0.468-1.047-0.594s-0.673-0.189-1.006-0.189
				c-0.307,0-0.563,0.063-0.771,0.189s-0.311,0.329-0.311,0.608c0,0.126,0.024,0.229,0.074,0.311s0.128,0.153,0.236,0.216
				s0.25,0.124,0.426,0.183s0.394,0.119,0.655,0.182c0.486,0.126,0.902,0.252,1.25,0.378c0.346,0.126,0.63,0.27,0.851,0.432
				s0.383,0.349,0.486,0.561c0.104,0.211,0.155,0.466,0.155,0.763c0,0.694-0.256,1.241-0.77,1.642
				C690.744,602.5,690.046,602.701,689.163,602.701z"/>
			<path fill="#2F89AF" d="M697.026,602.701c-0.567,0-1.081-0.097-1.54-0.291s-0.852-0.457-1.176-0.791
				c-0.324-0.333-0.574-0.721-0.75-1.162c-0.176-0.441-0.264-0.905-0.264-1.391c0-0.504,0.086-0.979,0.258-1.425
				c0.17-0.446,0.418-0.838,0.742-1.176c0.324-0.337,0.719-0.605,1.183-0.804s0.983-0.297,1.561-0.297
				c0.576,0,1.092,0.099,1.547,0.297c0.454,0.198,0.842,0.464,1.161,0.797c0.32,0.334,0.563,0.721,0.73,1.162
				c0.166,0.441,0.25,0.901,0.25,1.378c0,0.117-0.003,0.23-0.008,0.338c-0.004,0.108-0.016,0.198-0.033,0.271h-5.472
				c0.027,0.279,0.095,0.526,0.202,0.743c0.108,0.216,0.248,0.4,0.42,0.554c0.17,0.153,0.364,0.27,0.58,0.351
				c0.217,0.081,0.441,0.122,0.676,0.122c0.36,0,0.7-0.088,1.02-0.264c0.32-0.175,0.539-0.407,0.656-0.695l1.553,0.432
				c-0.261,0.541-0.678,0.984-1.249,1.331C698.501,602.527,697.818,602.701,697.026,602.701z M698.863,598.431
				c-0.045-0.531-0.24-0.957-0.588-1.276c-0.346-0.32-0.768-0.479-1.263-0.479c-0.243,0-0.471,0.042-0.683,0.128
				c-0.211,0.086-0.398,0.205-0.561,0.358s-0.295,0.337-0.398,0.554c-0.104,0.216-0.164,0.455-0.182,0.716H698.863z"/>
			<path fill="#2F89AF" d="M710.617,592.973l-6.701,9.592h-1.999l6.688-9.592H710.617z"/>
			<path fill="#2F89AF" d="M717.846,600.931v1.635h-5.432v-1.635h1.865v-6.242c-0.072,0.108-0.191,0.228-0.358,0.358
				c-0.167,0.13-0.356,0.256-0.567,0.378c-0.212,0.122-0.428,0.223-0.648,0.304s-0.422,0.122-0.602,0.122v-1.676
				c0.243,0,0.491-0.065,0.743-0.195c0.252-0.131,0.484-0.275,0.696-0.433c0.211-0.157,0.385-0.304,0.52-0.439
				s0.207-0.211,0.217-0.23h1.851v8.052H717.846z"/>
			<path fill="#2F89AF" d="M719.467,602.565v-1.946h1.486v1.946H719.467z"/>
			<path fill="#2F89AF" d="M726.816,602.701c-0.686-0.009-1.286-0.164-1.804-0.466c-0.519-0.301-0.953-0.689-1.304-1.162
				c-0.352-0.473-0.615-0.995-0.791-1.567c-0.176-0.572-0.264-1.128-0.264-1.668c0-0.577,0.098-1.155,0.291-1.736
				c0.193-0.581,0.471-1.104,0.831-1.567s0.797-0.84,1.311-1.128c0.513-0.288,1.089-0.433,1.729-0.433
				c0.684,0,1.287,0.155,1.81,0.466c0.522,0.311,0.96,0.705,1.311,1.183c0.352,0.478,0.615,1.002,0.79,1.574
				c0.176,0.572,0.264,1.12,0.264,1.642c0,0.585-0.097,1.167-0.29,1.743c-0.194,0.577-0.471,1.097-0.831,1.561
				s-0.797,0.84-1.311,1.128C728.045,602.557,727.465,602.701,726.816,602.701z M724.533,597.837
				c0.008,0.378,0.061,0.756,0.154,1.135c0.096,0.378,0.234,0.723,0.42,1.034c0.184,0.311,0.418,0.563,0.702,0.756
				c0.284,0.194,0.619,0.291,1.007,0.291c0.404,0,0.752-0.104,1.04-0.311s0.524-0.471,0.709-0.791s0.322-0.667,0.412-1.041
				c0.09-0.373,0.136-0.731,0.136-1.074c0-0.378-0.051-0.756-0.149-1.135c-0.099-0.378-0.243-0.723-0.433-1.033
				c-0.188-0.311-0.428-0.562-0.716-0.757c-0.288-0.193-0.621-0.29-0.999-0.29c-0.396,0-0.739,0.104-1.027,0.311
				s-0.524,0.471-0.709,0.79c-0.185,0.32-0.322,0.669-0.412,1.047S724.533,597.503,724.533,597.837z"/>
			<path fill="#2F89AF" d="M732.707,602.565v-1.946h1.485v1.946H732.707z"/>
			<path fill="#2F89AF" d="M740.057,602.701c-0.686-0.009-1.286-0.164-1.804-0.466c-0.519-0.301-0.953-0.689-1.304-1.162
				c-0.352-0.473-0.615-0.995-0.791-1.567c-0.176-0.572-0.264-1.128-0.264-1.668c0-0.577,0.098-1.155,0.291-1.736
				c0.193-0.581,0.471-1.104,0.831-1.567s0.797-0.84,1.311-1.128c0.513-0.288,1.089-0.433,1.729-0.433
				c0.684,0,1.287,0.155,1.81,0.466c0.522,0.311,0.96,0.705,1.311,1.183c0.352,0.478,0.615,1.002,0.79,1.574
				c0.176,0.572,0.264,1.12,0.264,1.642c0,0.585-0.097,1.167-0.29,1.743c-0.194,0.577-0.471,1.097-0.831,1.561
				s-0.797,0.84-1.311,1.128C741.285,602.557,740.705,602.701,740.057,602.701z M737.773,597.837
				c0.008,0.378,0.061,0.756,0.154,1.135c0.096,0.378,0.234,0.723,0.42,1.034c0.184,0.311,0.418,0.563,0.702,0.756
				c0.284,0.194,0.619,0.291,1.007,0.291c0.404,0,0.752-0.104,1.04-0.311s0.524-0.471,0.709-0.791s0.322-0.667,0.412-1.041
				c0.09-0.373,0.136-0.731,0.136-1.074c0-0.378-0.051-0.756-0.149-1.135c-0.099-0.378-0.243-0.723-0.433-1.033
				c-0.188-0.311-0.428-0.562-0.716-0.757c-0.288-0.193-0.621-0.29-0.999-0.29c-0.396,0-0.739,0.104-1.027,0.311
				s-0.524,0.471-0.709,0.79c-0.185,0.32-0.322,0.669-0.412,1.047S737.773,597.503,737.773,597.837z"/>
		</g>
	</g>
	<polygon fill="#FFFFFF" stroke="#C9C9C0" stroke-width="4" stroke-miterlimit="10" points="638.164,713.792 638.164,751.94 
		666.993,751.94 678.131,763.079 689.269,751.94 753.538,751.94 753.538,713.792 	"/>
	<g>
		<g>
			<path fill="#2F89AF" d="M654.902,731.454c-0.55,0.009-1.041,0.115-1.473,0.317c-0.433,0.203-0.743,0.507-0.933,0.912v4.283
				h-1.811v-7.08h1.662v1.514c0.126-0.243,0.274-0.462,0.445-0.655c0.171-0.194,0.356-0.363,0.554-0.507
				c0.198-0.144,0.399-0.254,0.602-0.331c0.203-0.076,0.398-0.115,0.588-0.115c0.099,0,0.174,0,0.223,0
				c0.05,0,0.097,0.004,0.143,0.013V731.454z"/>
			<path fill="#2F89AF" d="M659.388,737.101c-0.567,0-1.081-0.097-1.54-0.291c-0.46-0.194-0.852-0.457-1.176-0.791
				c-0.324-0.333-0.574-0.721-0.75-1.162c-0.176-0.441-0.264-0.905-0.264-1.391c0-0.504,0.086-0.979,0.257-1.425
				c0.171-0.446,0.419-0.838,0.743-1.176c0.324-0.337,0.719-0.605,1.182-0.804c0.465-0.198,0.984-0.297,1.561-0.297
				s1.093,0.099,1.547,0.297c0.455,0.198,0.843,0.464,1.162,0.797c0.32,0.334,0.562,0.721,0.729,1.162s0.25,0.901,0.25,1.378
				c0,0.117-0.002,0.23-0.007,0.338c-0.004,0.108-0.016,0.198-0.033,0.271h-5.472c0.026,0.279,0.095,0.526,0.202,0.743
				c0.108,0.216,0.248,0.4,0.419,0.554s0.365,0.27,0.581,0.351c0.217,0.081,0.441,0.122,0.676,0.122c0.359,0,0.7-0.088,1.02-0.264
				c0.32-0.175,0.538-0.407,0.655-0.695l1.554,0.432c-0.261,0.541-0.678,0.984-1.25,1.331
				C660.862,736.927,660.18,737.101,659.388,737.101z M661.225,732.832c-0.045-0.531-0.241-0.957-0.588-1.276
				c-0.347-0.32-0.768-0.479-1.263-0.479c-0.243,0-0.471,0.042-0.683,0.128c-0.211,0.086-0.398,0.205-0.561,0.358
				s-0.295,0.337-0.398,0.554c-0.104,0.216-0.164,0.455-0.183,0.716H661.225z"/>
			<path fill="#2F89AF" d="M664.724,727.104h1.811v7.592c0,0.262,0.063,0.464,0.189,0.608s0.306,0.216,0.54,0.216
				c0.108,0,0.228-0.018,0.358-0.054c0.13-0.036,0.254-0.081,0.371-0.135l0.243,1.378c-0.243,0.117-0.526,0.207-0.851,0.27
				c-0.324,0.063-0.617,0.095-0.878,0.095c-0.568,0-1.007-0.15-1.318-0.452c-0.311-0.302-0.466-0.732-0.466-1.291V727.104z"/>
			<path fill="#2F89AF" d="M672.844,737.101c-0.568,0-1.081-0.097-1.541-0.291c-0.459-0.194-0.851-0.457-1.175-0.791
				c-0.324-0.333-0.574-0.721-0.75-1.162c-0.176-0.441-0.264-0.905-0.264-1.391c0-0.504,0.086-0.979,0.257-1.425
				c0.171-0.446,0.419-0.838,0.743-1.176c0.324-0.337,0.718-0.605,1.182-0.804s0.984-0.297,1.561-0.297s1.093,0.099,1.547,0.297
				c0.455,0.198,0.843,0.464,1.162,0.797c0.319,0.334,0.562,0.721,0.729,1.162s0.25,0.901,0.25,1.378
				c0,0.117-0.002,0.23-0.007,0.338c-0.005,0.108-0.016,0.198-0.034,0.271h-5.471c0.026,0.279,0.094,0.526,0.202,0.743
				c0.108,0.216,0.248,0.4,0.419,0.554s0.365,0.27,0.581,0.351s0.441,0.122,0.675,0.122c0.36,0,0.701-0.088,1.021-0.264
				c0.319-0.175,0.538-0.407,0.655-0.695l1.554,0.432c-0.261,0.541-0.678,0.984-1.25,1.331
				C674.318,736.927,673.636,737.101,672.844,737.101z M674.681,732.832c-0.045-0.531-0.241-0.957-0.588-1.276
				c-0.347-0.32-0.768-0.479-1.263-0.479c-0.244,0-0.471,0.042-0.683,0.128c-0.212,0.086-0.398,0.205-0.561,0.358
				s-0.296,0.337-0.398,0.554c-0.104,0.216-0.165,0.455-0.183,0.716H674.681z"/>
			<path fill="#2F89AF" d="M680.125,737.101c-0.342,0-0.662-0.057-0.959-0.169s-0.554-0.271-0.77-0.473
				c-0.217-0.203-0.386-0.439-0.508-0.709c-0.121-0.27-0.182-0.568-0.182-0.892c0-0.333,0.074-0.642,0.223-0.925
				c0.148-0.284,0.355-0.525,0.621-0.723c0.266-0.198,0.584-0.353,0.953-0.466c0.369-0.112,0.774-0.169,1.216-0.169
				c0.315,0,0.624,0.027,0.925,0.081c0.303,0.055,0.57,0.131,0.805,0.23v-0.405c0-0.468-0.133-0.829-0.398-1.081
				c-0.266-0.252-0.66-0.379-1.183-0.379c-0.378,0-0.747,0.068-1.107,0.203c-0.36,0.135-0.729,0.333-1.108,0.594l-0.554-1.148
				c0.909-0.604,1.892-0.905,2.945-0.905c1.018,0,1.808,0.25,2.371,0.75c0.562,0.5,0.845,1.223,0.845,2.168v2.202
				c0,0.189,0.033,0.324,0.101,0.405s0.178,0.126,0.331,0.135v1.54c-0.307,0.063-0.572,0.094-0.797,0.094
				c-0.342,0-0.605-0.076-0.79-0.229c-0.185-0.153-0.3-0.355-0.345-0.608l-0.041-0.392c-0.314,0.415-0.697,0.729-1.148,0.946
				C681.12,736.993,680.639,737.101,680.125,737.101z M680.639,735.777c0.306,0,0.597-0.054,0.871-0.162
				c0.275-0.108,0.488-0.252,0.643-0.433c0.197-0.152,0.297-0.324,0.297-0.513v-0.811c-0.217-0.081-0.451-0.146-0.703-0.196
				c-0.252-0.049-0.495-0.074-0.729-0.074c-0.468,0-0.851,0.106-1.148,0.317c-0.297,0.212-0.445,0.479-0.445,0.804
				c0,0.307,0.116,0.561,0.351,0.764C680.008,735.675,680.296,735.777,680.639,735.777z"/>
			<path fill="#2F89AF" d="M689.163,737.101c-0.594,0-1.175-0.095-1.742-0.284c-0.567-0.188-1.054-0.459-1.46-0.811l0.676-1.135
				c0.433,0.307,0.854,0.539,1.264,0.696c0.41,0.157,0.817,0.236,1.223,0.236c0.36,0,0.644-0.068,0.852-0.203
				c0.207-0.135,0.311-0.328,0.311-0.581c0-0.252-0.122-0.437-0.365-0.554c-0.243-0.117-0.64-0.252-1.188-0.405
				c-0.46-0.126-0.852-0.248-1.176-0.365c-0.324-0.117-0.585-0.25-0.783-0.398s-0.343-0.32-0.433-0.513
				c-0.09-0.194-0.135-0.426-0.135-0.696c0-0.36,0.069-0.684,0.209-0.973c0.14-0.288,0.336-0.533,0.588-0.736
				c0.252-0.202,0.547-0.358,0.885-0.466c0.338-0.108,0.705-0.162,1.102-0.162c0.531,0,1.028,0.077,1.492,0.229
				c0.464,0.153,0.89,0.401,1.277,0.743l-0.73,1.094c-0.359-0.27-0.709-0.468-1.047-0.594s-0.673-0.189-1.006-0.189
				c-0.307,0-0.563,0.063-0.771,0.189s-0.311,0.329-0.311,0.608c0,0.126,0.024,0.229,0.074,0.311s0.128,0.153,0.236,0.216
				s0.25,0.124,0.426,0.183s0.394,0.119,0.655,0.182c0.486,0.126,0.902,0.252,1.25,0.378c0.346,0.126,0.63,0.27,0.851,0.432
				s0.383,0.349,0.486,0.561c0.104,0.211,0.155,0.466,0.155,0.763c0,0.694-0.256,1.241-0.77,1.642
				C690.744,736.901,690.046,737.101,689.163,737.101z"/>
			<path fill="#2F89AF" d="M697.026,737.101c-0.567,0-1.081-0.097-1.54-0.291s-0.852-0.457-1.176-0.791
				c-0.324-0.333-0.574-0.721-0.75-1.162c-0.176-0.441-0.264-0.905-0.264-1.391c0-0.504,0.086-0.979,0.258-1.425
				c0.17-0.446,0.418-0.838,0.742-1.176c0.324-0.337,0.719-0.605,1.183-0.804s0.983-0.297,1.561-0.297
				c0.576,0,1.092,0.099,1.547,0.297c0.454,0.198,0.842,0.464,1.161,0.797c0.32,0.334,0.563,0.721,0.73,1.162
				c0.166,0.441,0.25,0.901,0.25,1.378c0,0.117-0.003,0.23-0.008,0.338c-0.004,0.108-0.016,0.198-0.033,0.271h-5.472
				c0.027,0.279,0.095,0.526,0.202,0.743c0.108,0.216,0.248,0.4,0.42,0.554c0.17,0.153,0.364,0.27,0.58,0.351
				c0.217,0.081,0.441,0.122,0.676,0.122c0.36,0,0.7-0.088,1.02-0.264c0.32-0.175,0.539-0.407,0.656-0.695l1.553,0.432
				c-0.261,0.541-0.678,0.984-1.249,1.331C698.501,736.927,697.818,737.101,697.026,737.101z M698.863,732.832
				c-0.045-0.531-0.24-0.957-0.588-1.276c-0.346-0.32-0.768-0.479-1.263-0.479c-0.243,0-0.471,0.042-0.683,0.128
				c-0.211,0.086-0.398,0.205-0.561,0.358s-0.295,0.337-0.398,0.554c-0.104,0.216-0.164,0.455-0.182,0.716H698.863z"/>
			<path fill="#2F89AF" d="M710.617,727.374l-6.701,9.592h-1.999l6.688-9.592H710.617z"/>
			<path fill="#2F89AF" d="M717.846,735.331v1.635h-5.432v-1.635h1.865v-6.242c-0.072,0.108-0.191,0.228-0.358,0.358
				c-0.167,0.13-0.356,0.256-0.567,0.378c-0.212,0.122-0.428,0.223-0.648,0.304s-0.422,0.122-0.602,0.122v-1.676
				c0.243,0,0.491-0.065,0.743-0.195c0.252-0.131,0.484-0.275,0.696-0.433c0.211-0.157,0.385-0.304,0.52-0.439
				s0.207-0.211,0.217-0.23h1.851v8.052H717.846z"/>
			<path fill="#2F89AF" d="M719.467,736.966v-1.946h1.486v1.946H719.467z"/>
			<path fill="#2F89AF" d="M726.816,737.101c-0.686-0.009-1.286-0.164-1.804-0.466c-0.519-0.301-0.953-0.689-1.304-1.162
				c-0.352-0.473-0.615-0.995-0.791-1.567c-0.176-0.572-0.264-1.128-0.264-1.668c0-0.577,0.098-1.155,0.291-1.736
				c0.193-0.581,0.471-1.104,0.831-1.567s0.797-0.84,1.311-1.128c0.513-0.288,1.089-0.433,1.729-0.433
				c0.684,0,1.287,0.155,1.81,0.466c0.522,0.311,0.96,0.705,1.311,1.183c0.352,0.478,0.615,1.002,0.79,1.574
				c0.176,0.572,0.264,1.12,0.264,1.642c0,0.585-0.097,1.167-0.29,1.743c-0.194,0.577-0.471,1.097-0.831,1.561
				s-0.797,0.84-1.311,1.128C728.045,736.957,727.465,737.101,726.816,737.101z M724.533,732.237
				c0.008,0.378,0.061,0.756,0.154,1.135c0.096,0.378,0.234,0.723,0.42,1.034c0.184,0.311,0.418,0.563,0.702,0.756
				c0.284,0.194,0.619,0.291,1.007,0.291c0.404,0,0.752-0.104,1.04-0.311s0.524-0.471,0.709-0.791s0.322-0.667,0.412-1.041
				c0.09-0.373,0.136-0.731,0.136-1.074c0-0.378-0.051-0.756-0.149-1.135c-0.099-0.378-0.243-0.723-0.433-1.033
				c-0.188-0.311-0.428-0.562-0.716-0.757c-0.288-0.193-0.621-0.29-0.999-0.29c-0.396,0-0.739,0.104-1.027,0.311
				s-0.524,0.471-0.709,0.79c-0.185,0.32-0.322,0.669-0.412,1.047S724.533,731.904,724.533,732.237z"/>
			<path fill="#2F89AF" d="M732.707,736.966v-1.946h1.485v1.946H732.707z"/>
			<path fill="#2F89AF" d="M741.826,735.331v1.635h-5.432v-1.635h1.864v-6.242c-0.072,0.108-0.191,0.228-0.358,0.358
				c-0.166,0.13-0.355,0.256-0.566,0.378c-0.212,0.122-0.428,0.223-0.648,0.304s-0.422,0.122-0.602,0.122v-1.676
				c0.243,0,0.49-0.065,0.743-0.195c0.252-0.131,0.483-0.275,0.695-0.433c0.212-0.157,0.386-0.304,0.521-0.439
				s0.207-0.211,0.216-0.23h1.851v8.052H741.826z"/>
		</g>
	</g>
	
		<line fill="none" stroke="#C9C9C0" stroke-width="4" stroke-miterlimit="10" x1="150.608" y1="694.601" x2="150.608" y2="711.908"/>
	
		<line fill="none" stroke="#C9C9C0" stroke-width="4" stroke-miterlimit="10" x1="361.825" y1="694.601" x2="361.825" y2="711.908"/>
	
		<line fill="none" stroke="#C9C9C0" stroke-width="4" stroke-miterlimit="10" x1="467.433" y1="694.601" x2="467.433" y2="711.908"/>
</g>
</svg>
