<?xml version="1.0" encoding="utf-8"?>
<!-- Generator: Adobe Illustrator 16.0.0, SVG Export Plug-In . SVG Version: 6.00 Build 0)  -->
<!DOCTYPE svg PUBLIC "-//W3C//DTD SVG 1.1//EN" "http://www.w3.org/Graphics/SVG/1.1/DTD/svg11.dtd">
<svg version="1.1" id="Layer_1" xmlns="http://www.w3.org/2000/svg" xmlns:xlink="http://www.w3.org/1999/xlink" x="0px" y="0px"
	 width="315.22px" height="244.763px" viewBox="0 0 315.22 244.763" enable-background="new 0 0 315.22 244.763"
	 xml:space="preserve">
<g>
	<g>
		<g>
			<g>
				<line fill="none" stroke="#C9C9C0" stroke-width="4" stroke-miterlimit="10" x1="24.714" y1="42.81" x2="24.714" y2="47.608"/>
				
					<line fill="none" stroke="#C9C9C0" stroke-width="4" stroke-miterlimit="10" stroke-dasharray="9.707,9.707" x1="24.714" y1="57.315" x2="24.714" y2="227.188"/>
				
					<line fill="none" stroke="#C9C9C0" stroke-width="4" stroke-miterlimit="10" x1="24.714" y1="232.042" x2="24.714" y2="236.843"/>
			</g>
		</g>
		<polygon fill="#C9C9C0" points="24.714,244.763 17.276,233.716 32.152,233.716 		"/>
	</g>
	<g>
		<g>
			<g>
				
					<line fill="none" stroke="#C9C9C0" stroke-width="4" stroke-miterlimit="10" x1="130.322" y1="42.81" x2="130.322" y2="47.608"/>
				
					<line fill="none" stroke="#C9C9C0" stroke-width="4" stroke-miterlimit="10" stroke-dasharray="9.707,9.707" x1="130.322" y1="57.315" x2="130.322" y2="227.188"/>
				
					<line fill="none" stroke="#C9C9C0" stroke-width="4" stroke-miterlimit="10" x1="130.322" y1="232.042" x2="130.322" y2="236.843"/>
			</g>
		</g>
		<polygon fill="#C9C9C0" points="130.322,244.763 122.885,233.716 137.761,233.716 		"/>
	</g>
	<g>
		<g>
			<g>
				
					<line fill="none" stroke="#C9C9C0" stroke-width="4" stroke-miterlimit="10" x1="235.931" y1="42.81" x2="235.931" y2="47.608"/>
				
					<line fill="none" stroke="#C9C9C0" stroke-width="4" stroke-miterlimit="10" stroke-dasharray="9.707,9.707" x1="235.931" y1="57.315" x2="235.931" y2="227.188"/>
				
					<line fill="none" stroke="#C9C9C0" stroke-width="4" stroke-miterlimit="10" x1="235.931" y1="232.042" x2="235.931" y2="236.843"/>
			</g>
		</g>
		<polygon fill="#C9C9C0" points="235.931,244.763 228.493,233.716 243.368,233.716 		"/>
	</g>
	<circle fill="#FFFFFF" stroke="#F6C330" stroke-width="8" stroke-miterlimit="10" cx="25.192" cy="146.353" r="10.907"/>
	<circle fill="#FFFFFF" stroke="#D23D44" stroke-width="8" stroke-miterlimit="10" cx="236.648" cy="149.192" r="10.907"/>
	<g>
		<g>
			
				<line fill="none" stroke="#C9C9C0" stroke-width="4" stroke-miterlimit="10" x1="203.169" y1="148.231" x2="46.928" y2="147.175"/>
			<g>
				<polygon fill="#C9C9C0" points="200.888,140.237 214.65,148.31 200.78,156.194 				"/>
			</g>
		</g>
	</g>
	<g>
		<path fill="#C9C9C0" d="M7.781,3.491C7.737,3.447,7.618,3.366,7.423,3.246c-0.196-0.12-0.441-0.245-0.734-0.375
			C6.395,2.74,6.073,2.626,5.726,2.528S5.03,2.382,4.682,2.382c-0.456,0-0.808,0.081-1.052,0.244
			C3.385,2.789,3.263,3.028,3.263,3.344c0,0.196,0.055,0.359,0.163,0.489c0.108,0.131,0.264,0.248,0.465,0.352
			S4.342,4.383,4.642,4.47C4.94,4.557,5.285,4.654,5.677,4.763c0.555,0.152,1.055,0.318,1.501,0.498S8.004,5.663,8.319,5.93
			S8.877,6.52,9.046,6.9c0.168,0.381,0.252,0.837,0.252,1.37c0,0.652-0.122,1.204-0.366,1.655c-0.245,0.452-0.569,0.815-0.971,1.093
			c-0.403,0.277-0.868,0.479-1.396,0.604c-0.527,0.125-1.068,0.188-1.623,0.188c-0.424,0-0.855-0.033-1.297-0.099
			c-0.439-0.064-0.872-0.16-1.297-0.285c-0.424-0.125-0.837-0.274-1.239-0.448S0.337,10.603,0,10.375l1.175-2.333
			C1.229,8.097,1.376,8.2,1.615,8.353s0.532,0.304,0.881,0.456c0.348,0.152,0.739,0.288,1.175,0.408
			c0.435,0.119,0.875,0.179,1.32,0.179c0.947,0,1.42-0.287,1.42-0.864c0-0.218-0.071-0.396-0.212-0.538
			c-0.142-0.142-0.337-0.27-0.588-0.384C5.361,7.495,5.067,7.39,4.73,7.292S4.023,7.085,3.622,6.966
			c-0.533-0.164-0.996-0.34-1.387-0.53c-0.392-0.19-0.718-0.411-0.979-0.661c-0.262-0.25-0.455-0.538-0.58-0.864
			S0.489,4.203,0.489,3.769c0-0.609,0.114-1.147,0.343-1.615s0.538-0.861,0.93-1.183s0.846-0.563,1.362-0.726
			C3.641,0.081,4.187,0,4.764,0c0.413,0,0.815,0.038,1.207,0.114s0.764,0.174,1.117,0.293c0.354,0.12,0.688,0.256,1.003,0.408
			S8.689,1.12,8.939,1.272L7.781,3.491z"/>
		<path fill="#C9C9C0" d="M19.657,2.446h-3.523v9.233h-2.676V2.446h-3.54V0.098h9.739V2.446z"/>
		<path fill="#C9C9C0" d="M18.792,11.68l4.453-11.582h2.17l4.438,11.582h-2.839l-0.897-2.594h-3.605L21.63,11.68H18.792z
			 M24.322,2.937l-1.387,4.307h2.724L24.322,2.937z"/>
		<path fill="#C9C9C0" d="M38.416,10.554c-0.413,0.414-0.851,0.719-1.313,0.914c-0.462,0.195-0.965,0.293-1.509,0.293
			c-0.729,0-1.417-0.162-2.063-0.488c-0.646-0.327-1.213-0.762-1.696-1.306c-0.484-0.544-0.867-1.177-1.15-1.9
			C30.401,7.343,30.26,6.59,30.26,5.808c0-0.794,0.142-1.545,0.424-2.252c0.283-0.706,0.675-1.321,1.175-1.843
			c0.5-0.522,1.088-0.936,1.762-1.24c0.674-0.304,1.402-0.456,2.186-0.456c1.022,0,1.92,0.226,2.691,0.677
			c0.772,0.451,1.349,1.068,1.729,1.852L38.22,4.046c-0.238-0.522-0.584-0.928-1.035-1.216s-0.938-0.433-1.46-0.433
			c-0.413,0-0.786,0.09-1.118,0.27c-0.331,0.18-0.619,0.43-0.864,0.75C33.498,3.738,33.31,4.11,33.18,4.535
			c-0.131,0.424-0.196,0.881-0.196,1.37c0,0.5,0.071,0.962,0.213,1.387c0.141,0.424,0.337,0.791,0.587,1.101
			s0.549,0.552,0.897,0.726c0.348,0.175,0.729,0.262,1.142,0.262c0.479,0,0.936-0.117,1.37-0.352
			c0.436-0.233,0.843-0.589,1.224-1.068V7.569h-2.235V5.628h4.454v6.052h-2.219V10.554z"/>
		<path fill="#C9C9C0" d="M50.552,9.331v2.349h-8.14V0.098h7.993v2.349h-5.318v2.252h4.568v2.169h-4.568v2.464H50.552z"/>
	</g>
	<g>
		<path fill="#C9C9C0" d="M109.449,0.098V11.68h-2.675V6.933h-4.617v4.747h-2.675V0.098h2.675v4.486h4.617V0.098H109.449z"/>
		<path fill="#C9C9C0" d="M116.528,11.777c-0.826,0-1.576-0.168-2.251-0.505c-0.674-0.338-1.253-0.781-1.737-1.33
			c-0.483-0.549-0.859-1.177-1.125-1.884c-0.267-0.707-0.4-1.436-0.4-2.187c0-0.761,0.139-1.495,0.416-2.202
			c0.277-0.706,0.664-1.329,1.158-1.867c0.495-0.538,1.082-0.968,1.762-1.289c0.68-0.32,1.422-0.481,2.227-0.481
			c0.827,0,1.577,0.169,2.252,0.506c0.674,0.338,1.253,0.783,1.737,1.338c0.483,0.555,0.856,1.186,1.117,1.893
			s0.392,1.424,0.392,2.152c0,0.762-0.139,1.496-0.416,2.203s-0.661,1.329-1.15,1.867s-1.074,0.971-1.754,1.297
			S117.333,11.777,116.528,11.777z M113.739,5.905c0,0.445,0.062,0.878,0.188,1.297c0.125,0.418,0.305,0.791,0.538,1.117
			c0.234,0.326,0.528,0.587,0.882,0.783c0.353,0.195,0.758,0.293,1.215,0.293c0.467,0,0.875-0.103,1.224-0.31
			c0.348-0.206,0.639-0.476,0.872-0.808c0.234-0.331,0.408-0.707,0.522-1.125c0.114-0.419,0.171-0.846,0.171-1.281
			c0-0.445-0.062-0.878-0.188-1.297c-0.125-0.418-0.308-0.788-0.547-1.109c-0.238-0.32-0.532-0.576-0.881-0.766
			c-0.348-0.19-0.744-0.286-1.19-0.286c-0.468,0-0.876,0.101-1.224,0.302s-0.639,0.465-0.872,0.791
			c-0.234,0.326-0.411,0.699-0.53,1.117C113.799,5.043,113.739,5.47,113.739,5.905z"/>
		<path fill="#C9C9C0" d="M132.14,2.446h-3.523v9.233h-2.675V2.446h-3.54V0.098h9.738V2.446z"/>
		<path fill="#C9C9C0" d="M133.461,11.68V0.098h7.863v2.349h-5.188v2.496h4.273v2.17h-4.273v4.567H133.461z"/>
		<path fill="#C9C9C0" d="M142.678,11.68V0.098h2.675V11.68H142.678z"/>
		<path fill="#C9C9C0" d="M149.235,0.098l2.528,3.997l2.528-3.997h2.887l-4.013,5.872l3.883,5.71h-2.888l-2.397-3.833l-2.398,3.833
			h-2.903l3.883-5.71l-4.014-5.872H149.235z"/>
	</g>
	<g>
		<path fill="#C9C9C0" d="M214.218,11.68V4.747l-2.513,5.04h-1.436l-2.512-5.04v6.933h-2.676V0.098h2.904l3.001,6.052l3.018-6.052
			h2.888V11.68H214.218z"/>
		<path fill="#C9C9C0" d="M217.969,11.68l4.454-11.582h2.169l4.438,11.582h-2.839l-0.896-2.594h-3.605l-0.881,2.594H217.969z
			 M223.499,2.937l-1.387,4.307h2.725L223.499,2.937z"/>
		<path fill="#C9C9C0" d="M236.957,3.491c-0.044-0.044-0.163-0.125-0.359-0.245c-0.195-0.12-0.44-0.245-0.733-0.375
			c-0.294-0.131-0.615-0.245-0.963-0.343s-0.696-0.146-1.044-0.146c-0.457,0-0.808,0.081-1.052,0.244
			c-0.245,0.163-0.367,0.402-0.367,0.718c0,0.196,0.054,0.359,0.163,0.489c0.108,0.131,0.264,0.248,0.465,0.352
			s0.451,0.198,0.75,0.285c0.3,0.087,0.645,0.185,1.036,0.293c0.555,0.152,1.055,0.318,1.501,0.498
			c0.445,0.18,0.826,0.402,1.142,0.669s0.557,0.59,0.726,0.971s0.253,0.837,0.253,1.37c0,0.652-0.122,1.204-0.367,1.655
			c-0.244,0.452-0.568,0.815-0.971,1.093s-0.867,0.479-1.395,0.604c-0.527,0.125-1.068,0.188-1.623,0.188
			c-0.424,0-0.856-0.033-1.297-0.099c-0.44-0.064-0.873-0.16-1.297-0.285s-0.837-0.274-1.239-0.448s-0.772-0.376-1.109-0.604
			l1.175-2.333c0.054,0.055,0.201,0.158,0.439,0.311c0.24,0.152,0.533,0.304,0.882,0.456c0.348,0.152,0.739,0.288,1.174,0.408
			c0.435,0.119,0.876,0.179,1.321,0.179c0.946,0,1.42-0.287,1.42-0.864c0-0.218-0.071-0.396-0.213-0.538
			c-0.141-0.142-0.337-0.27-0.587-0.384s-0.544-0.22-0.881-0.317s-0.707-0.207-1.109-0.326c-0.532-0.164-0.995-0.34-1.386-0.53
			c-0.393-0.19-0.719-0.411-0.979-0.661s-0.454-0.538-0.579-0.864s-0.188-0.707-0.188-1.142c0-0.609,0.114-1.147,0.343-1.615
			s0.538-0.861,0.93-1.183s0.846-0.563,1.362-0.726C232.815,0.081,233.362,0,233.938,0c0.414,0,0.816,0.038,1.207,0.114
			c0.393,0.076,0.765,0.174,1.118,0.293c0.353,0.12,0.688,0.256,1.003,0.408s0.598,0.305,0.849,0.457L236.957,3.491z"/>
		<path fill="#C9C9C0" d="M248.832,2.446h-3.523v9.233h-2.675V2.446h-3.54V0.098h9.738V2.446z"/>
		<path fill="#C9C9C0" d="M258.294,9.331v2.349h-8.141V0.098h7.993v2.349h-5.317v2.252h4.567v2.169h-4.567v2.464H258.294z"/>
		<path fill="#C9C9C0" d="M259.957,11.68V0.098h5.221c0.544,0,1.046,0.114,1.509,0.343c0.462,0.229,0.861,0.527,1.199,0.897
			c0.336,0.369,0.601,0.788,0.791,1.256c0.189,0.468,0.285,0.94,0.285,1.419c0,0.359-0.044,0.704-0.131,1.036
			s-0.212,0.644-0.375,0.938s-0.361,0.558-0.596,0.792c-0.233,0.233-0.497,0.432-0.791,0.595l2.659,4.307h-3.018l-2.333-3.735
			h-1.745v3.735H259.957z M262.633,5.611h2.446c0.315,0,0.588-0.149,0.816-0.448s0.342-0.683,0.342-1.15
			c0-0.479-0.13-0.859-0.391-1.142c-0.262-0.283-0.545-0.425-0.849-0.425h-2.365V5.611z"/>
	</g>
	<polygon fill="#FFFFFF" stroke="#C9C9C0" stroke-width="4" stroke-miterlimit="10" points="195.445,74.708 195.445,112.858 
		224.274,112.858 235.412,123.995 246.55,112.858 313.22,112.858 313.22,74.708 	"/>
	<g>
		<g>
			<path fill="#2F89AF" d="M212.184,92.37c-0.55,0.009-1.04,0.114-1.473,0.317c-0.433,0.202-0.743,0.507-0.933,0.911v4.283h-1.81
				v-7.079h1.661v1.513c0.126-0.243,0.275-0.461,0.446-0.655c0.171-0.193,0.355-0.362,0.554-0.507
				c0.198-0.144,0.398-0.254,0.602-0.33c0.202-0.077,0.398-0.115,0.588-0.115c0.099,0,0.173,0,0.223,0
				c0.049,0,0.097,0.005,0.142,0.014V92.37z"/>
			<path fill="#2F89AF" d="M216.669,98.017c-0.567,0-1.08-0.097-1.54-0.29c-0.459-0.193-0.851-0.457-1.175-0.79
				c-0.324-0.334-0.574-0.721-0.75-1.162s-0.264-0.905-0.264-1.392c0-0.505,0.086-0.979,0.257-1.426
				c0.171-0.445,0.419-0.837,0.743-1.175s0.718-0.605,1.182-0.805c0.464-0.197,0.984-0.297,1.561-0.297s1.092,0.1,1.547,0.297
				c0.455,0.199,0.842,0.465,1.162,0.798c0.319,0.333,0.562,0.721,0.729,1.161c0.167,0.441,0.25,0.901,0.25,1.379
				c0,0.117-0.003,0.229-0.007,0.338c-0.005,0.107-0.016,0.197-0.034,0.27h-5.472c0.027,0.279,0.095,0.527,0.203,0.743
				c0.107,0.216,0.248,0.401,0.419,0.554c0.171,0.153,0.364,0.271,0.581,0.352c0.216,0.081,0.441,0.121,0.675,0.121
				c0.36,0,0.7-0.087,1.021-0.263c0.319-0.176,0.538-0.407,0.655-0.696l1.554,0.433c-0.262,0.54-0.678,0.984-1.25,1.331
				S217.462,98.017,216.669,98.017z M218.507,93.748c-0.045-0.532-0.241-0.957-0.588-1.277c-0.347-0.319-0.768-0.479-1.264-0.479
				c-0.243,0-0.471,0.043-0.682,0.129c-0.212,0.086-0.398,0.205-0.561,0.357c-0.162,0.153-0.296,0.338-0.398,0.555
				c-0.104,0.216-0.165,0.454-0.183,0.716H218.507z"/>
			<path fill="#2F89AF" d="M222.006,88.02h1.811v7.593c0,0.262,0.062,0.464,0.188,0.607c0.126,0.145,0.307,0.217,0.541,0.217
				c0.107,0,0.227-0.019,0.357-0.055c0.131-0.035,0.255-0.081,0.372-0.135l0.243,1.378c-0.243,0.117-0.527,0.208-0.852,0.271
				s-0.617,0.095-0.878,0.095c-0.567,0-1.007-0.151-1.317-0.453s-0.466-0.731-0.466-1.29V88.02z"/>
			<path fill="#2F89AF" d="M230.125,98.017c-0.567,0-1.081-0.097-1.54-0.29s-0.852-0.457-1.176-0.79
				c-0.324-0.334-0.574-0.721-0.75-1.162s-0.264-0.905-0.264-1.392c0-0.505,0.086-0.979,0.258-1.426
				c0.17-0.445,0.418-0.837,0.742-1.175s0.719-0.605,1.183-0.805c0.464-0.197,0.983-0.297,1.561-0.297
				c0.576,0,1.092,0.1,1.547,0.297c0.454,0.199,0.842,0.465,1.161,0.798c0.32,0.333,0.563,0.721,0.73,1.161
				c0.166,0.441,0.25,0.901,0.25,1.379c0,0.117-0.003,0.229-0.008,0.338c-0.004,0.107-0.016,0.197-0.033,0.27h-5.472
				c0.027,0.279,0.095,0.527,0.202,0.743c0.108,0.216,0.248,0.401,0.42,0.554c0.17,0.153,0.364,0.271,0.58,0.352
				c0.217,0.081,0.441,0.121,0.676,0.121c0.36,0,0.7-0.087,1.02-0.263c0.32-0.176,0.539-0.407,0.656-0.696l1.553,0.433
				c-0.261,0.54-0.678,0.984-1.249,1.331C231.6,97.844,230.917,98.017,230.125,98.017z M231.962,93.748
				c-0.045-0.532-0.24-0.957-0.588-1.277c-0.346-0.319-0.768-0.479-1.263-0.479c-0.243,0-0.471,0.043-0.683,0.129
				c-0.211,0.086-0.398,0.205-0.561,0.357c-0.162,0.153-0.295,0.338-0.398,0.555c-0.104,0.216-0.164,0.454-0.182,0.716H231.962z"/>
			<path fill="#2F89AF" d="M237.407,98.017c-0.343,0-0.662-0.056-0.959-0.168c-0.298-0.113-0.555-0.271-0.771-0.474
				c-0.216-0.202-0.385-0.438-0.507-0.709c-0.121-0.271-0.183-0.567-0.183-0.892c0-0.333,0.075-0.642,0.224-0.926
				c0.148-0.283,0.355-0.524,0.621-0.723s0.583-0.354,0.952-0.466c0.37-0.112,0.774-0.169,1.216-0.169
				c0.315,0,0.624,0.027,0.926,0.081s0.569,0.131,0.804,0.229v-0.405c0-0.468-0.133-0.829-0.398-1.081s-0.659-0.378-1.183-0.378
				c-0.378,0-0.747,0.067-1.107,0.202c-0.36,0.136-0.729,0.334-1.107,0.595l-0.555-1.148c0.91-0.604,1.893-0.905,2.945-0.905
				c1.018,0,1.809,0.25,2.371,0.75c0.563,0.5,0.845,1.223,0.845,2.168v2.203c0,0.188,0.034,0.324,0.102,0.404
				c0.067,0.082,0.178,0.127,0.331,0.136v1.54c-0.307,0.062-0.572,0.095-0.797,0.095c-0.343,0-0.606-0.077-0.791-0.229
				c-0.185-0.153-0.299-0.355-0.344-0.608l-0.041-0.392c-0.315,0.414-0.698,0.729-1.148,0.945
				C238.402,97.909,237.921,98.017,237.407,98.017z M237.921,96.692c0.306,0,0.596-0.054,0.871-0.162
				c0.274-0.107,0.488-0.252,0.642-0.432c0.198-0.153,0.297-0.324,0.297-0.514v-0.811c-0.216-0.081-0.45-0.146-0.702-0.195
				c-0.252-0.05-0.496-0.074-0.729-0.074c-0.469,0-0.852,0.105-1.148,0.316c-0.298,0.212-0.446,0.48-0.446,0.805
				c0,0.306,0.117,0.561,0.352,0.763C237.29,96.592,237.578,96.692,237.921,96.692z"/>
			<path fill="#2F89AF" d="M246.445,98.017c-0.595,0-1.176-0.094-1.743-0.283s-1.054-0.459-1.459-0.811l0.676-1.135
				c0.432,0.306,0.854,0.538,1.263,0.695c0.41,0.158,0.817,0.236,1.223,0.236c0.36,0,0.645-0.067,0.852-0.202
				c0.207-0.136,0.311-0.329,0.311-0.581s-0.122-0.438-0.364-0.554c-0.244-0.117-0.641-0.253-1.189-0.405
				c-0.459-0.127-0.852-0.248-1.176-0.365s-0.585-0.25-0.783-0.398s-0.342-0.319-0.432-0.514c-0.091-0.193-0.136-0.426-0.136-0.695
				c0-0.36,0.069-0.685,0.21-0.973c0.139-0.288,0.335-0.534,0.587-0.736c0.253-0.203,0.548-0.358,0.886-0.467
				c0.337-0.107,0.704-0.162,1.101-0.162c0.531,0,1.028,0.077,1.493,0.23c0.464,0.152,0.889,0.4,1.276,0.742l-0.729,1.095
				c-0.36-0.271-0.709-0.468-1.047-0.595c-0.338-0.126-0.674-0.188-1.007-0.188c-0.306,0-0.562,0.062-0.771,0.188
				c-0.207,0.127-0.311,0.329-0.311,0.608c0,0.126,0.025,0.229,0.074,0.311c0.05,0.081,0.129,0.153,0.236,0.216
				c0.108,0.063,0.25,0.124,0.426,0.183s0.395,0.12,0.655,0.183c0.487,0.126,0.903,0.252,1.25,0.378s0.63,0.271,0.851,0.433
				s0.383,0.35,0.487,0.561c0.103,0.212,0.155,0.467,0.155,0.764c0,0.693-0.257,1.24-0.771,1.642
				C248.026,97.816,247.328,98.017,246.445,98.017z"/>
			<path fill="#2F89AF" d="M254.308,98.017c-0.567,0-1.08-0.097-1.54-0.29c-0.459-0.193-0.851-0.457-1.175-0.79
				c-0.324-0.334-0.574-0.721-0.75-1.162s-0.264-0.905-0.264-1.392c0-0.505,0.086-0.979,0.257-1.426
				c0.171-0.445,0.419-0.837,0.743-1.175s0.718-0.605,1.182-0.805c0.464-0.197,0.984-0.297,1.561-0.297s1.092,0.1,1.547,0.297
				c0.455,0.199,0.842,0.465,1.162,0.798c0.319,0.333,0.562,0.721,0.729,1.161c0.167,0.441,0.25,0.901,0.25,1.379
				c0,0.117-0.002,0.229-0.007,0.338c-0.005,0.107-0.016,0.197-0.033,0.27h-5.473c0.027,0.279,0.096,0.527,0.203,0.743
				c0.108,0.216,0.248,0.401,0.419,0.554c0.171,0.153,0.364,0.271,0.581,0.352c0.216,0.081,0.441,0.121,0.676,0.121
				c0.359,0,0.699-0.087,1.02-0.263c0.319-0.176,0.538-0.407,0.655-0.696l1.554,0.433c-0.262,0.54-0.678,0.984-1.25,1.331
				S255.101,98.017,254.308,98.017z M256.146,93.748c-0.045-0.532-0.241-0.957-0.588-1.277c-0.347-0.319-0.768-0.479-1.264-0.479
				c-0.242,0-0.471,0.043-0.682,0.129c-0.212,0.086-0.398,0.205-0.561,0.357c-0.162,0.153-0.295,0.338-0.398,0.555
				c-0.104,0.216-0.165,0.454-0.183,0.716H256.146z"/>
			<path fill="#2F89AF" d="M267.899,88.29l-6.701,9.592h-2l6.688-9.592H267.899z"/>
			<path fill="#2F89AF" d="M275.127,96.247v1.635h-5.431v-1.635h1.864v-6.242c-0.072,0.108-0.191,0.229-0.358,0.358
				c-0.166,0.131-0.355,0.257-0.567,0.378c-0.212,0.122-0.428,0.224-0.648,0.305s-0.421,0.121-0.601,0.121v-1.675
				c0.243,0,0.49-0.065,0.742-0.196c0.252-0.13,0.484-0.274,0.696-0.432c0.212-0.158,0.385-0.305,0.521-0.439
				c0.135-0.135,0.207-0.212,0.216-0.229h1.851v8.052H275.127z"/>
			<path fill="#2F89AF" d="M276.748,97.882v-1.945h1.486v1.945H276.748z"/>
			<path fill="#2F89AF" d="M284.098,98.017c-0.685-0.009-1.286-0.164-1.804-0.466s-0.952-0.688-1.304-1.162
				c-0.351-0.473-0.614-0.995-0.79-1.567c-0.176-0.571-0.264-1.128-0.264-1.668c0-0.576,0.097-1.155,0.291-1.736
				c0.193-0.581,0.47-1.104,0.83-1.566c0.36-0.465,0.797-0.84,1.311-1.129c0.514-0.288,1.09-0.432,1.729-0.432
				c0.685,0,1.288,0.155,1.811,0.466s0.959,0.704,1.311,1.182c0.351,0.478,0.614,1.003,0.79,1.574
				c0.176,0.572,0.264,1.119,0.264,1.642c0,0.586-0.097,1.166-0.291,1.742c-0.193,0.577-0.471,1.098-0.83,1.561
				c-0.36,0.465-0.797,0.84-1.311,1.129C285.327,97.873,284.746,98.017,284.098,98.017z M281.814,93.153
				c0.009,0.378,0.061,0.757,0.155,1.135c0.095,0.379,0.234,0.723,0.419,1.033s0.419,0.563,0.702,0.757
				c0.284,0.194,0.619,0.29,1.007,0.29c0.405,0,0.752-0.103,1.04-0.311c0.288-0.207,0.525-0.471,0.709-0.79
				c0.186-0.319,0.322-0.667,0.412-1.04c0.091-0.374,0.136-0.732,0.136-1.074c0-0.379-0.05-0.757-0.148-1.135
				c-0.1-0.379-0.243-0.723-0.433-1.033c-0.189-0.312-0.428-0.563-0.716-0.757c-0.288-0.194-0.622-0.291-1-0.291
				c-0.396,0-0.738,0.104-1.026,0.312c-0.289,0.207-0.525,0.471-0.71,0.79s-0.321,0.669-0.412,1.047
				C281.859,92.464,281.814,92.82,281.814,93.153z"/>
			<path fill="#2F89AF" d="M289.988,97.882v-1.945h1.486v1.945H289.988z"/>
			<path fill="#2F89AF" d="M297.338,98.017c-0.685-0.009-1.286-0.164-1.804-0.466s-0.952-0.688-1.304-1.162
				c-0.351-0.473-0.614-0.995-0.79-1.567c-0.176-0.571-0.264-1.128-0.264-1.668c0-0.576,0.097-1.155,0.291-1.736
				c0.193-0.581,0.47-1.104,0.83-1.566c0.36-0.465,0.797-0.84,1.311-1.129c0.514-0.288,1.09-0.432,1.729-0.432
				c0.685,0,1.288,0.155,1.811,0.466s0.959,0.704,1.311,1.182c0.351,0.478,0.614,1.003,0.79,1.574
				c0.176,0.572,0.264,1.119,0.264,1.642c0,0.586-0.097,1.166-0.291,1.742c-0.193,0.577-0.471,1.098-0.83,1.561
				c-0.36,0.465-0.797,0.84-1.311,1.129C298.567,97.873,297.986,98.017,297.338,98.017z M295.055,93.153
				c0.009,0.378,0.061,0.757,0.155,1.135c0.095,0.379,0.234,0.723,0.419,1.033s0.419,0.563,0.702,0.757
				c0.284,0.194,0.619,0.29,1.007,0.29c0.405,0,0.752-0.103,1.04-0.311c0.288-0.207,0.525-0.471,0.709-0.79
				c0.186-0.319,0.322-0.667,0.412-1.04c0.091-0.374,0.136-0.732,0.136-1.074c0-0.379-0.05-0.757-0.148-1.135
				c-0.1-0.379-0.243-0.723-0.433-1.033c-0.189-0.312-0.428-0.563-0.716-0.757c-0.288-0.194-0.622-0.291-1-0.291
				c-0.396,0-0.738,0.104-1.026,0.312c-0.289,0.207-0.525,0.471-0.71,0.79s-0.321,0.669-0.412,1.047
				C295.1,92.464,295.055,92.82,295.055,93.153z"/>
		</g>
	</g>
</g>
</svg>
