<?xml version="1.0" encoding="utf-8"?>
<!-- Generator: Adobe Illustrator 16.0.0, SVG Export Plug-In . SVG Version: 6.00 Build 0)  -->
<!DOCTYPE svg PUBLIC "-//W3C//DTD SVG 1.1//EN" "http://www.w3.org/Graphics/SVG/1.1/DTD/svg11.dtd">
<svg version="1.1" id="Layer_1" xmlns="http://www.w3.org/2000/svg" xmlns:xlink="http://www.w3.org/1999/xlink" x="0px" y="0px"
	 width="745.454px" height="353.709px" viewBox="0 0 745.454 353.709" enable-background="new 0 0 745.454 353.709"
	 xml:space="preserve">
<g>
	<polyline fill="none" stroke="#C9C9C0" stroke-width="4" stroke-miterlimit="10" points="138.243,194.465 507.284,194.465 
		507.284,231.113 561.155,231.113 	"/>
	<g>
		<g>
			<g>
				<line fill="none" stroke="#C9C9C0" stroke-width="4" stroke-miterlimit="10" x1="32.516" y1="42.809" x2="32.516" y2="47.609"/>
				
					<line fill="none" stroke="#C9C9C0" stroke-width="4" stroke-miterlimit="10" stroke-dasharray="9.4639,9.4639" x1="32.516" y1="57.072" x2="32.516" y2="336.256"/>
				
					<line fill="none" stroke="#C9C9C0" stroke-width="4" stroke-miterlimit="10" x1="32.516" y1="340.988" x2="32.516" y2="345.789"/>
			</g>
		</g>
		<polygon fill="#C9C9C0" points="32.516,353.709 25.078,342.662 39.954,342.662 		"/>
	</g>
	<g>
		<g>
			
				<line fill="none" stroke="#C9C9C0" stroke-width="4" stroke-miterlimit="10" x1="138.124" y1="42.809" x2="138.124" y2="47.609"/>
			
				<line fill="none" stroke="#C9C9C0" stroke-width="4" stroke-miterlimit="10" stroke-dasharray="9.4639,9.4639" x1="138.124" y1="57.072" x2="138.124" y2="336.256"/>
			
				<line fill="none" stroke="#C9C9C0" stroke-width="4" stroke-miterlimit="10" x1="138.124" y1="340.988" x2="138.124" y2="345.789"/>
		</g>
	</g>
	<polygon fill="#C9C9C0" points="138.124,353.709 130.687,342.662 145.562,342.662 	"/>
	<polygon fill="#C9C9C0" points="138.124,220.312 130.687,209.264 145.562,209.264 	"/>
	<polygon fill="#C9C9C0" points="349.34,220.312 341.902,209.264 356.778,209.264 	"/>
	<polygon fill="#C9C9C0" points="454.948,220.312 447.511,209.264 462.387,209.264 	"/>
	<g>
		<g>
			<g>
				
					<line fill="none" stroke="#C9C9C0" stroke-width="4" stroke-miterlimit="10" x1="243.732" y1="42.809" x2="243.732" y2="47.609"/>
				
					<line fill="none" stroke="#C9C9C0" stroke-width="4" stroke-miterlimit="10" stroke-dasharray="9.4639,9.4639" x1="243.732" y1="57.072" x2="243.732" y2="336.256"/>
				
					<line fill="none" stroke="#C9C9C0" stroke-width="4" stroke-miterlimit="10" x1="243.732" y1="340.988" x2="243.732" y2="345.789"/>
			</g>
		</g>
		<polygon fill="#C9C9C0" points="243.731,353.709 236.295,342.662 251.17,342.662 		"/>
	</g>
	<g>
		<g>
			<g>
				<line fill="none" stroke="#C9C9C0" stroke-width="4" stroke-miterlimit="10" x1="349.34" y1="42.809" x2="349.34" y2="47.609"/>
				
					<line fill="none" stroke="#C9C9C0" stroke-width="4" stroke-miterlimit="10" stroke-dasharray="9.4639,9.4639" x1="349.34" y1="57.072" x2="349.34" y2="336.256"/>
				
					<line fill="none" stroke="#C9C9C0" stroke-width="4" stroke-miterlimit="10" x1="349.34" y1="340.988" x2="349.34" y2="345.789"/>
			</g>
		</g>
		<polygon fill="#C9C9C0" points="349.34,353.709 341.903,342.662 356.778,342.662 		"/>
	</g>
	<g>
		<g>
			<g>
				
					<line fill="none" stroke="#C9C9C0" stroke-width="4" stroke-miterlimit="10" x1="454.948" y1="42.809" x2="454.948" y2="47.609"/>
				
					<line fill="none" stroke="#C9C9C0" stroke-width="4" stroke-miterlimit="10" stroke-dasharray="9.4639,9.4639" x1="454.948" y1="57.072" x2="454.948" y2="336.256"/>
				
					<line fill="none" stroke="#C9C9C0" stroke-width="4" stroke-miterlimit="10" x1="454.948" y1="340.988" x2="454.948" y2="345.789"/>
			</g>
		</g>
		<polygon fill="#C9C9C0" points="454.948,353.709 447.511,342.662 462.387,342.662 		"/>
	</g>
	<g>
		<g>
			<g>
				
					<line fill="none" stroke="#C9C9C0" stroke-width="4" stroke-miterlimit="10" x1="560.557" y1="42.809" x2="560.557" y2="47.609"/>
				
					<line fill="none" stroke="#C9C9C0" stroke-width="4" stroke-miterlimit="10" stroke-dasharray="9.4639,9.4639" x1="560.557" y1="57.072" x2="560.557" y2="336.256"/>
				
					<line fill="none" stroke="#C9C9C0" stroke-width="4" stroke-miterlimit="10" x1="560.557" y1="340.988" x2="560.557" y2="345.789"/>
			</g>
		</g>
		<polygon fill="#C9C9C0" points="560.557,353.709 553.119,342.662 567.995,342.662 		"/>
	</g>
	<g>
		<g>
			<g>
				
					<line fill="none" stroke="#C9C9C0" stroke-width="4" stroke-miterlimit="10" x1="666.165" y1="42.809" x2="666.165" y2="47.609"/>
				
					<line fill="none" stroke="#C9C9C0" stroke-width="4" stroke-miterlimit="10" stroke-dasharray="9.4639,9.4639" x1="666.165" y1="57.072" x2="666.165" y2="336.256"/>
				
					<line fill="none" stroke="#C9C9C0" stroke-width="4" stroke-miterlimit="10" x1="666.165" y1="340.988" x2="666.165" y2="345.789"/>
			</g>
		</g>
		<polygon fill="#C9C9C0" points="666.165,353.709 658.728,342.662 673.603,342.662 		"/>
	</g>
	
		<rect x="551.705" y="221.662" transform="matrix(0.7071 0.7071 -0.7071 0.7071 327.7797 -329.1055)" fill="#FFFFFF" stroke="#D23D44" stroke-width="8" stroke-miterlimit="10" width="18.901" height="18.9"/>
	<circle fill="#FFFFFF" stroke="#2F89AF" stroke-width="8" stroke-miterlimit="10" cx="349.699" cy="238.863" r="10.907"/>
	<circle fill="#FFFFFF" stroke="#F6C330" stroke-width="8" stroke-miterlimit="10" cx="455.427" cy="237.518" r="10.907"/>
	<circle fill="#FFFFFF" stroke="#D23D44" stroke-width="8" stroke-miterlimit="10" cx="666.883" cy="154.756" r="10.907"/>
	<circle fill="#FFFFFF" stroke="#D23D44" stroke-width="8" stroke-miterlimit="10" cx="666.883" cy="282.641" r="10.907"/>
	<circle fill="#FFFFFF" stroke="#2FD8AC" stroke-width="8" stroke-miterlimit="10" cx="138.243" cy="238.312" r="10.907"/>
	<polygon fill="#C9C9C0" points="32.516,353.709 25.078,342.662 39.954,342.662 	"/>
	<g>
		<g>
			
				<line fill="none" stroke="#C9C9C0" stroke-width="4" stroke-miterlimit="10" x1="591.835" y1="214.4" x2="644.885" y2="166.863"/>
			<g>
				<polygon fill="#C9C9C0" points="598.898,218.785 583.284,222.064 588.25,206.902 				"/>
			</g>
		</g>
	</g>
	<g>
		<g>
			
				<line fill="none" stroke="#C9C9C0" stroke-width="4" stroke-miterlimit="10" x1="636.333" y1="270.801" x2="583.685" y2="238.064"/>
			<g>
				<polygon fill="#C9C9C0" points="638.563,262.793 646.084,276.863 630.139,276.344 				"/>
			</g>
		</g>
	</g>
	<g>
		<path fill="#C9C9C0" d="M0,11.68V0.098h7.863v2.35H2.676v2.495h4.273v2.17H2.676v4.567H0z"/>
		<path fill="#C9C9C0" d="M17.357,9.33v2.35H9.217V0.098h7.993v2.35h-5.317v2.251h4.567v2.169h-4.567V9.33H17.357z"/>
		<path fill="#C9C9C0" d="M17.879,11.68l4.453-11.582h2.17l4.438,11.582h-2.839l-0.897-2.594h-3.605l-0.881,2.594H17.879z
			 M23.409,2.937l-1.387,4.306h2.724L23.409,2.937z"/>
		<path fill="#C9C9C0" d="M37.78,2.447h-3.523v9.232h-2.676V2.447h-3.54v-2.35h9.739V2.447z"/>
		<path fill="#C9C9C0" d="M44.061,9.396c0.457,0,0.843-0.096,1.158-0.286s0.57-0.442,0.767-0.759
			c0.196-0.314,0.335-0.677,0.416-1.084c0.081-0.408,0.122-0.824,0.122-1.248V0.098h2.676V6.02c0,0.805-0.102,1.555-0.302,2.251
			c-0.202,0.696-0.512,1.305-0.931,1.827c-0.418,0.521-0.951,0.933-1.598,1.231c-0.647,0.299-1.417,0.448-2.309,0.448
			c-0.925,0-1.713-0.157-2.365-0.473s-1.183-0.736-1.591-1.265c-0.407-0.527-0.707-1.139-0.897-1.835
			C39.018,7.51,38.922,6.78,38.922,6.02V0.098h2.676V6.02c0,0.445,0.043,0.87,0.13,1.271c0.087,0.403,0.229,0.762,0.425,1.077
			c0.195,0.315,0.448,0.565,0.758,0.751C43.221,9.304,43.604,9.396,44.061,9.396z"/>
		<path fill="#C9C9C0" d="M51.254,11.68V0.098h5.221c0.543,0,1.046,0.114,1.508,0.343c0.463,0.229,0.862,0.527,1.199,0.897
			c0.337,0.369,0.602,0.788,0.791,1.256c0.19,0.468,0.286,0.94,0.286,1.419c0,0.358-0.044,0.704-0.131,1.036
			s-0.212,0.645-0.375,0.938c-0.163,0.294-0.362,0.558-0.596,0.791c-0.233,0.234-0.497,0.433-0.791,0.596l2.659,4.307h-3.018
			l-2.333-3.735H53.93v3.735H51.254z M53.93,5.611h2.446c0.315,0,0.587-0.149,0.815-0.448c0.229-0.3,0.343-0.683,0.343-1.15
			c0-0.479-0.13-0.858-0.392-1.142c-0.261-0.283-0.544-0.424-0.848-0.424H53.93V5.611z"/>
		<path fill="#C9C9C0" d="M70.486,9.33v2.35h-8.14V0.098h7.993v2.35h-5.318v2.251h4.568v2.169h-4.568V9.33H70.486z"/>
	</g>
	<g>
		<path fill="#C9C9C0" d="M102.424,11.68V0.098h4.322c0.957,0,1.795,0.152,2.512,0.457c0.719,0.305,1.319,0.718,1.803,1.239
			c0.484,0.522,0.849,1.134,1.094,1.835c0.244,0.702,0.367,1.449,0.367,2.243c0,0.882-0.137,1.678-0.408,2.39
			c-0.272,0.713-0.661,1.322-1.166,1.827c-0.506,0.506-1.115,0.897-1.827,1.175c-0.713,0.277-1.504,0.416-2.374,0.416H102.424z
			 M109.797,5.872c0-0.511-0.068-0.976-0.204-1.395s-0.335-0.78-0.596-1.085c-0.261-0.304-0.581-0.538-0.962-0.701
			s-0.811-0.244-1.289-0.244h-1.647V9.33h1.647c0.489,0,0.924-0.086,1.305-0.261c0.381-0.174,0.699-0.415,0.955-0.726
			c0.255-0.31,0.451-0.674,0.587-1.093S109.797,6.373,109.797,5.872z"/>
		<path fill="#C9C9C0" d="M122.26,9.33v2.35h-8.141V0.098h7.993v2.35h-5.317v2.251h4.567v2.169h-4.567V9.33H122.26z"/>
		<path fill="#C9C9C0" d="M125.57,0.098l2.741,8.222l2.691-8.222h2.822l-4.404,11.582h-2.235l-4.437-11.582H125.57z"/>
		<path fill="#C9C9C0" d="M143.025,9.33v2.35h-8.141V0.098h7.993v2.35h-5.317v2.251h4.567v2.169h-4.567V9.33H143.025z"/>
		<path fill="#C9C9C0" d="M144.689,11.68V0.098h2.675V9.33h5.611v2.35H144.689z"/>
		<path fill="#C9C9C0" d="M158.8,11.777c-0.827,0-1.577-0.168-2.251-0.506c-0.675-0.337-1.254-0.779-1.738-1.329
			c-0.483-0.549-0.858-1.177-1.125-1.884s-0.399-1.436-0.399-2.187c0-0.761,0.139-1.495,0.416-2.202s0.663-1.329,1.158-1.867
			c0.494-0.539,1.081-0.968,1.762-1.289c0.679-0.32,1.421-0.481,2.227-0.481c0.826,0,1.576,0.169,2.251,0.506
			c0.674,0.337,1.253,0.783,1.737,1.338c0.483,0.555,0.856,1.186,1.117,1.892c0.261,0.707,0.392,1.426,0.392,2.154
			c0,0.761-0.139,1.495-0.416,2.201c-0.277,0.707-0.66,1.33-1.15,1.868c-0.489,0.538-1.074,0.971-1.753,1.297
			C160.347,11.614,159.604,11.777,158.8,11.777z M156.01,5.905c0,0.446,0.062,0.878,0.188,1.297s0.305,0.791,0.539,1.117
			c0.233,0.326,0.527,0.587,0.881,0.783c0.354,0.195,0.758,0.294,1.215,0.294c0.468,0,0.875-0.104,1.224-0.311
			c0.348-0.206,0.639-0.476,0.872-0.808c0.234-0.331,0.408-0.706,0.522-1.125s0.171-0.846,0.171-1.281
			c0-0.445-0.062-0.878-0.188-1.296c-0.125-0.419-0.307-0.789-0.546-1.109c-0.239-0.321-0.533-0.576-0.881-0.768
			c-0.349-0.189-0.745-0.285-1.19-0.285c-0.469,0-0.876,0.101-1.225,0.302c-0.348,0.201-0.639,0.465-0.872,0.791
			c-0.234,0.326-0.411,0.699-0.53,1.118C156.069,5.043,156.01,5.471,156.01,5.905z"/>
		<path fill="#C9C9C0" d="M165.911,11.68V0.098h4.943c0.555,0,1.062,0.114,1.524,0.343c0.463,0.229,0.859,0.527,1.191,0.897
			c0.332,0.369,0.593,0.788,0.783,1.256c0.189,0.468,0.285,0.94,0.285,1.419c0,0.512-0.09,1.001-0.27,1.468
			c-0.179,0.469-0.43,0.887-0.75,1.257s-0.709,0.663-1.166,0.881s-0.963,0.326-1.518,0.326h-2.349v3.735H165.911z M168.587,5.611
			h2.186c0.315,0,0.587-0.136,0.815-0.408c0.229-0.271,0.343-0.668,0.343-1.19c0-0.271-0.035-0.506-0.106-0.701
			c-0.07-0.196-0.165-0.359-0.285-0.489c-0.119-0.131-0.256-0.226-0.407-0.285c-0.153-0.061-0.305-0.09-0.457-0.09h-2.088V5.611z"/>
	</g>
	<g>
		<path fill="#C9C9C0" d="M224.025,11.68V0.098h2.676V11.68H224.025z"/>
		<path fill="#C9C9C0" d="M235.885,3.49c-0.044-0.043-0.163-0.124-0.359-0.244c-0.195-0.119-0.44-0.244-0.734-0.375
			c-0.293-0.131-0.614-0.245-0.962-0.343c-0.349-0.098-0.696-0.146-1.044-0.146c-0.457,0-0.808,0.081-1.053,0.244
			c-0.244,0.163-0.366,0.403-0.366,0.718c0,0.196,0.054,0.359,0.163,0.489c0.108,0.131,0.264,0.248,0.465,0.351
			c0.201,0.104,0.451,0.199,0.75,0.286s0.645,0.185,1.036,0.294c0.555,0.152,1.055,0.317,1.501,0.497
			c0.445,0.18,0.826,0.402,1.142,0.669s0.558,0.59,0.726,0.971c0.169,0.381,0.253,0.837,0.253,1.37c0,0.652-0.122,1.204-0.366,1.655
			c-0.245,0.451-0.569,0.816-0.971,1.094c-0.403,0.277-0.868,0.479-1.396,0.604s-1.068,0.188-1.623,0.188
			c-0.424,0-0.856-0.033-1.297-0.098c-0.44-0.066-0.872-0.161-1.297-0.286c-0.424-0.125-0.837-0.274-1.239-0.448
			s-0.772-0.375-1.109-0.604l1.174-2.333c0.055,0.055,0.201,0.157,0.441,0.31c0.238,0.152,0.532,0.305,0.881,0.457
			c0.348,0.152,0.739,0.288,1.174,0.408c0.436,0.119,0.875,0.18,1.321,0.18c0.946,0,1.419-0.289,1.419-0.865
			c0-0.217-0.07-0.396-0.211-0.538c-0.143-0.142-0.338-0.27-0.588-0.384c-0.25-0.113-0.544-0.22-0.881-0.318
			c-0.337-0.098-0.707-0.206-1.109-0.326c-0.533-0.162-0.995-0.34-1.387-0.529c-0.391-0.19-0.717-0.41-0.979-0.661
			c-0.261-0.25-0.454-0.538-0.579-0.864s-0.188-0.707-0.188-1.143c0-0.608,0.114-1.146,0.343-1.614s0.538-0.862,0.93-1.183
			s0.846-0.562,1.362-0.727C231.744,0.082,232.29,0,232.867,0c0.412,0,0.815,0.038,1.207,0.114c0.391,0.076,0.764,0.174,1.117,0.294
			c0.354,0.119,0.688,0.255,1.003,0.407s0.599,0.305,0.849,0.457L235.885,3.49z"/>
		<path fill="#C9C9C0" d="M245.934,3.49c-0.044-0.043-0.164-0.124-0.359-0.244c-0.195-0.119-0.44-0.244-0.734-0.375
			c-0.293-0.131-0.614-0.245-0.962-0.343c-0.349-0.098-0.696-0.146-1.044-0.146c-0.457,0-0.808,0.081-1.053,0.244
			c-0.244,0.163-0.367,0.403-0.367,0.718c0,0.196,0.055,0.359,0.164,0.489c0.108,0.131,0.264,0.248,0.465,0.351
			c0.201,0.104,0.451,0.199,0.75,0.286s0.645,0.185,1.036,0.294c0.554,0.152,1.055,0.317,1.501,0.497
			c0.445,0.18,0.826,0.402,1.142,0.669s0.557,0.59,0.726,0.971c0.168,0.381,0.253,0.837,0.253,1.37c0,0.652-0.122,1.204-0.367,1.655
			s-0.568,0.816-0.971,1.094s-0.867,0.479-1.395,0.604s-1.068,0.188-1.623,0.188c-0.424,0-0.856-0.033-1.297-0.098
			c-0.44-0.066-0.873-0.161-1.297-0.286s-0.837-0.274-1.239-0.448s-0.772-0.375-1.109-0.604l1.174-2.333
			c0.055,0.055,0.201,0.157,0.44,0.31s0.533,0.305,0.882,0.457c0.348,0.152,0.738,0.288,1.174,0.408
			c0.435,0.119,0.875,0.18,1.321,0.18c0.946,0,1.419-0.289,1.419-0.865c0-0.217-0.07-0.396-0.212-0.538s-0.337-0.27-0.587-0.384
			c-0.25-0.113-0.544-0.22-0.881-0.318c-0.338-0.098-0.707-0.206-1.109-0.326c-0.533-0.162-0.995-0.34-1.387-0.529
			c-0.392-0.19-0.718-0.41-0.979-0.661c-0.262-0.25-0.454-0.538-0.579-0.864s-0.188-0.707-0.188-1.143
			c0-0.608,0.114-1.146,0.343-1.614s0.538-0.862,0.93-1.183c0.391-0.32,0.846-0.562,1.361-0.727C241.792,0.082,242.339,0,242.915,0
			c0.413,0,0.815,0.038,1.207,0.114s0.765,0.174,1.118,0.294c0.353,0.119,0.688,0.255,1.003,0.407s0.598,0.305,0.849,0.457
			L245.934,3.49z"/>
		<path fill="#C9C9C0" d="M253.975,9.396c0.457,0,0.843-0.096,1.158-0.286s0.571-0.442,0.768-0.759
			c0.195-0.314,0.334-0.677,0.416-1.084c0.081-0.408,0.122-0.824,0.122-1.248V0.098h2.675V6.02c0,0.805-0.101,1.555-0.302,2.251
			s-0.511,1.305-0.93,1.827c-0.419,0.521-0.952,0.933-1.599,1.231c-0.647,0.299-1.416,0.448-2.309,0.448
			c-0.924,0-1.713-0.157-2.365-0.473s-1.183-0.736-1.59-1.265c-0.408-0.527-0.707-1.139-0.897-1.835
			c-0.19-0.695-0.285-1.425-0.285-2.186V0.098h2.675V6.02c0,0.445,0.043,0.87,0.131,1.271c0.087,0.403,0.229,0.762,0.424,1.077
			s0.449,0.565,0.759,0.751C253.135,9.304,253.519,9.396,253.975,9.396z"/>
		<path fill="#C9C9C0" d="M269.309,9.33v2.35h-8.14V0.098h7.993v2.35h-5.318v2.251h4.568v2.169h-4.568V9.33H269.309z"/>
	</g>
	<g>
		<path fill="#C9C9C0" d="M344.301,10.979c-0.414,0.25-0.852,0.443-1.313,0.579s-0.954,0.204-1.477,0.204
			c-0.826,0-1.577-0.166-2.251-0.498s-1.254-0.771-1.737-1.321c-0.483-0.549-0.859-1.177-1.126-1.884
			c-0.266-0.707-0.399-1.436-0.399-2.187c0-0.761,0.139-1.495,0.416-2.202s0.663-1.332,1.158-1.876
			c0.495-0.543,1.082-0.976,1.762-1.296c0.68-0.321,1.422-0.482,2.227-0.482c0.827,0,1.577,0.172,2.251,0.515
			c0.675,0.343,1.254,0.791,1.738,1.346c0.483,0.555,0.855,1.186,1.117,1.892c0.261,0.707,0.391,1.426,0.391,2.154
			c0,0.717-0.119,1.4-0.358,2.047s-0.571,1.237-0.995,1.77l1.762,1.941h-2.528L344.301,10.979z M341.543,9.38
			c0.414,0,0.778-0.082,1.094-0.245l-1.827-2.022h2.512l0.604,0.669c0.271-0.598,0.407-1.234,0.407-1.909
			c0-0.445-0.062-0.878-0.188-1.296c-0.125-0.419-0.308-0.789-0.547-1.109c-0.239-0.321-0.532-0.58-0.881-0.775
			c-0.348-0.195-0.745-0.293-1.19-0.293c-0.468,0-0.876,0.1-1.224,0.301c-0.349,0.201-0.639,0.468-0.872,0.8
			c-0.234,0.332-0.411,0.707-0.531,1.126c-0.119,0.418-0.179,0.846-0.179,1.28c0,0.446,0.062,0.878,0.188,1.297
			s0.304,0.788,0.538,1.108c0.234,0.321,0.527,0.58,0.881,0.775S341.087,9.38,341.543,9.38z"/>
		<path fill="#C9C9C0" d="M347.367,11.68l4.453-11.582h2.17l4.438,11.582h-2.839l-0.897-2.594h-3.605l-0.881,2.594H347.367z
			 M352.897,2.937l-1.387,4.306h2.724L352.897,2.937z"/>
	</g>
	<g>
		<path fill="#C9C9C0" d="M438.016,3.49c-0.044-0.043-0.163-0.124-0.359-0.244c-0.195-0.119-0.439-0.244-0.733-0.375
			s-0.614-0.245-0.963-0.343c-0.348-0.098-0.696-0.146-1.044-0.146c-0.457,0-0.807,0.081-1.052,0.244s-0.367,0.403-0.367,0.718
			c0,0.196,0.054,0.359,0.163,0.489c0.108,0.131,0.264,0.248,0.465,0.351c0.201,0.104,0.451,0.199,0.75,0.286
			c0.3,0.087,0.645,0.185,1.036,0.294c0.555,0.152,1.055,0.317,1.501,0.497c0.445,0.18,0.826,0.402,1.142,0.669
			s0.558,0.59,0.726,0.971c0.169,0.381,0.254,0.837,0.254,1.37c0,0.652-0.123,1.204-0.367,1.655
			c-0.245,0.451-0.568,0.816-0.971,1.094s-0.867,0.479-1.395,0.604c-0.528,0.125-1.068,0.188-1.623,0.188
			c-0.425,0-0.857-0.033-1.297-0.098c-0.441-0.066-0.873-0.161-1.297-0.286c-0.425-0.125-0.838-0.274-1.24-0.448
			s-0.772-0.375-1.109-0.604l1.175-2.333c0.054,0.055,0.201,0.157,0.44,0.31s0.532,0.305,0.881,0.457
			c0.348,0.152,0.739,0.288,1.174,0.408c0.436,0.119,0.876,0.18,1.322,0.18c0.945,0,1.419-0.289,1.419-0.865
			c0-0.217-0.071-0.396-0.212-0.538c-0.142-0.142-0.338-0.27-0.588-0.384c-0.25-0.113-0.543-0.22-0.881-0.318
			c-0.337-0.098-0.707-0.206-1.109-0.326c-0.532-0.162-0.994-0.34-1.386-0.529c-0.392-0.19-0.718-0.41-0.979-0.661
			c-0.261-0.25-0.454-0.538-0.578-0.864c-0.126-0.326-0.188-0.707-0.188-1.143c0-0.608,0.114-1.146,0.343-1.614
			s0.538-0.862,0.93-1.183s0.846-0.562,1.362-0.727C433.875,0.082,434.421,0,434.998,0c0.413,0,0.815,0.038,1.207,0.114
			s0.764,0.174,1.117,0.294c0.354,0.119,0.688,0.255,1.004,0.407c0.314,0.152,0.598,0.305,0.848,0.457L438.016,3.49z"/>
		<path fill="#C9C9C0" d="M449.891,2.447h-3.523v9.232h-2.675V2.447h-3.54v-2.35h9.738V2.447z"/>
		<path fill="#C9C9C0" d="M449.026,11.68l4.453-11.582h2.17l4.437,11.582h-2.838l-0.897-2.594h-3.604l-0.881,2.594H449.026z
			 M454.557,2.937l-1.387,4.306h2.725L454.557,2.937z"/>
		<path fill="#C9C9C0" d="M468.65,10.555c-0.413,0.413-0.852,0.717-1.313,0.913c-0.462,0.195-0.965,0.294-1.509,0.294
			c-0.729,0-1.416-0.164-2.063-0.49s-1.213-0.761-1.696-1.305c-0.484-0.544-0.867-1.177-1.15-1.9
			c-0.283-0.723-0.424-1.477-0.424-2.26c0-0.793,0.141-1.543,0.424-2.25s0.674-1.322,1.175-1.844c0.5-0.522,1.087-0.936,1.762-1.24
			c0.674-0.304,1.403-0.457,2.186-0.457c1.022,0,1.92,0.227,2.692,0.678c0.771,0.451,1.348,1.068,1.729,1.852l-2.006,1.5
			c-0.24-0.521-0.585-0.927-1.036-1.215c-0.452-0.288-0.938-0.432-1.46-0.432c-0.414,0-0.786,0.089-1.117,0.269
			c-0.332,0.18-0.62,0.43-0.865,0.751c-0.244,0.32-0.432,0.692-0.562,1.117c-0.131,0.424-0.195,0.881-0.195,1.37
			c0,0.5,0.07,0.962,0.212,1.386c0.141,0.425,0.337,0.792,0.587,1.102c0.25,0.311,0.549,0.553,0.897,0.727
			c0.348,0.174,0.729,0.261,1.142,0.261c0.479,0,0.936-0.117,1.37-0.351c0.435-0.234,0.843-0.59,1.224-1.068V7.568h-2.234v-1.94
			h4.453v6.052h-2.219V10.555z"/>
		<path fill="#C9C9C0" d="M480.787,9.33v2.35h-8.141V0.098h7.993v2.35h-5.317v2.251h4.567v2.169h-4.567V9.33H480.787z"/>
	</g>
	<g>
		<path fill="#C9C9C0" d="M539.684,0.098V11.68h-2.676V6.933h-4.616v4.747h-2.675V0.098h2.675v4.486h4.616V0.098H539.684z"/>
		<path fill="#C9C9C0" d="M546.764,11.777c-0.827,0-1.578-0.168-2.252-0.506c-0.674-0.337-1.253-0.779-1.737-1.329
			c-0.483-0.549-0.858-1.177-1.125-1.884s-0.399-1.436-0.399-2.187c0-0.761,0.139-1.495,0.416-2.202s0.662-1.329,1.158-1.867
			c0.494-0.539,1.081-0.968,1.762-1.289c0.679-0.32,1.421-0.481,2.227-0.481c0.826,0,1.576,0.169,2.251,0.506
			c0.674,0.337,1.253,0.783,1.737,1.338c0.483,0.555,0.856,1.186,1.117,1.892c0.261,0.707,0.392,1.426,0.392,2.154
			c0,0.761-0.139,1.495-0.416,2.201c-0.277,0.707-0.661,1.33-1.15,1.868s-1.074,0.971-1.753,1.297
			C548.311,11.614,547.568,11.777,546.764,11.777z M543.974,5.905c0,0.446,0.062,0.878,0.188,1.297s0.305,0.791,0.538,1.117
			c0.234,0.326,0.527,0.587,0.881,0.783c0.354,0.195,0.759,0.294,1.216,0.294c0.468,0,0.875-0.104,1.224-0.311
			c0.348-0.206,0.639-0.476,0.872-0.808c0.234-0.331,0.408-0.706,0.522-1.125s0.171-0.846,0.171-1.281
			c0-0.445-0.062-0.878-0.188-1.296c-0.125-0.419-0.308-0.789-0.546-1.109c-0.24-0.321-0.533-0.576-0.881-0.768
			c-0.349-0.189-0.746-0.285-1.191-0.285c-0.468,0-0.875,0.101-1.224,0.302c-0.348,0.201-0.639,0.465-0.872,0.791
			c-0.234,0.326-0.411,0.699-0.53,1.118C544.033,5.043,543.974,5.471,543.974,5.905z"/>
		<path fill="#C9C9C0" d="M562.374,2.447h-3.523v9.232h-2.675V2.447h-3.54v-2.35h9.738V2.447z"/>
		<path fill="#C9C9C0" d="M563.695,11.68V0.098h7.863v2.35h-5.188v2.495h4.273v2.17h-4.273v4.567H563.695z"/>
		<path fill="#C9C9C0" d="M572.912,11.68V0.098h2.675V11.68H572.912z"/>
		<path fill="#C9C9C0" d="M579.47,0.098l2.528,3.996l2.528-3.996h2.888L583.4,5.971l3.883,5.709h-2.888l-2.397-3.834L579.6,11.68
			h-2.903l3.882-5.709l-4.013-5.873H579.47z"/>
	</g>
	<g>
		<path fill="#C9C9C0" d="M644.452,11.68V4.747l-2.513,5.04h-1.436l-2.512-5.04v6.933h-2.676V0.098h2.904l3.001,6.052l3.019-6.052
			h2.887V11.68H644.452z"/>
		<path fill="#C9C9C0" d="M648.203,11.68l4.453-11.582h2.17l4.438,11.582h-2.839l-0.897-2.594h-3.604l-0.881,2.594H648.203z
			 M653.733,2.937l-1.387,4.306h2.725L653.733,2.937z"/>
		<path fill="#C9C9C0" d="M667.191,3.49c-0.044-0.043-0.163-0.124-0.359-0.244c-0.195-0.119-0.44-0.244-0.734-0.375
			c-0.293-0.131-0.614-0.245-0.962-0.343c-0.349-0.098-0.696-0.146-1.044-0.146c-0.457,0-0.808,0.081-1.053,0.244
			c-0.244,0.163-0.366,0.403-0.366,0.718c0,0.196,0.054,0.359,0.163,0.489c0.108,0.131,0.264,0.248,0.465,0.351
			c0.201,0.104,0.451,0.199,0.75,0.286s0.645,0.185,1.036,0.294c0.555,0.152,1.055,0.317,1.501,0.497
			c0.445,0.18,0.826,0.402,1.142,0.669s0.558,0.59,0.726,0.971c0.169,0.381,0.253,0.837,0.253,1.37c0,0.652-0.122,1.204-0.366,1.655
			c-0.245,0.451-0.569,0.816-0.971,1.094c-0.403,0.277-0.868,0.479-1.396,0.604s-1.068,0.188-1.623,0.188
			c-0.424,0-0.856-0.033-1.297-0.098c-0.44-0.066-0.872-0.161-1.297-0.286c-0.424-0.125-0.837-0.274-1.239-0.448
			s-0.772-0.375-1.109-0.604l1.174-2.333c0.055,0.055,0.201,0.157,0.441,0.31c0.238,0.152,0.532,0.305,0.881,0.457
			c0.348,0.152,0.739,0.288,1.174,0.408c0.436,0.119,0.875,0.18,1.321,0.18c0.946,0,1.419-0.289,1.419-0.865
			c0-0.217-0.07-0.396-0.211-0.538c-0.143-0.142-0.338-0.27-0.588-0.384c-0.25-0.113-0.544-0.22-0.881-0.318
			c-0.337-0.098-0.707-0.206-1.109-0.326c-0.533-0.162-0.995-0.34-1.387-0.529c-0.391-0.19-0.717-0.41-0.979-0.661
			c-0.261-0.25-0.454-0.538-0.579-0.864s-0.188-0.707-0.188-1.143c0-0.608,0.114-1.146,0.343-1.614s0.538-0.862,0.93-1.183
			s0.846-0.562,1.362-0.727C663.051,0.082,663.597,0,664.174,0c0.412,0,0.815,0.038,1.207,0.114
			c0.391,0.076,0.764,0.174,1.117,0.294c0.354,0.119,0.688,0.255,1.003,0.407s0.599,0.305,0.849,0.457L667.191,3.49z"/>
		<path fill="#C9C9C0" d="M679.066,2.447h-3.523v9.232h-2.675V2.447h-3.54v-2.35h9.738V2.447z"/>
		<path fill="#C9C9C0" d="M688.527,9.33v2.35h-8.14V0.098h7.993v2.35h-5.318v2.251h4.568v2.169h-4.568V9.33H688.527z"/>
		<path fill="#C9C9C0" d="M690.191,11.68V0.098h5.221c0.543,0,1.046,0.114,1.509,0.343c0.462,0.229,0.861,0.527,1.198,0.897
			c0.338,0.369,0.602,0.788,0.792,1.256s0.285,0.94,0.285,1.419c0,0.358-0.044,0.704-0.131,1.036s-0.212,0.645-0.375,0.938
			c-0.163,0.294-0.361,0.558-0.595,0.791c-0.234,0.234-0.498,0.433-0.792,0.596l2.659,4.307h-3.018l-2.333-3.735h-1.745v3.735
			H690.191z M692.867,5.611h2.447c0.314,0,0.587-0.149,0.815-0.448c0.228-0.3,0.343-0.683,0.343-1.15
			c0-0.479-0.131-0.858-0.393-1.142c-0.261-0.283-0.543-0.424-0.848-0.424h-2.365V5.611z"/>
	</g>
	<polygon fill="#FFFFFF" stroke="#C9C9C0" stroke-width="4" stroke-miterlimit="10" points="625.68,80.271 625.68,118.422 
		654.509,118.422 665.646,129.559 676.784,118.422 743.454,118.422 743.454,80.271 	"/>
	<g>
		<g>
			<path fill="#2F89AF" d="M642.418,97.934c-0.55,0.009-1.04,0.115-1.473,0.317c-0.433,0.203-0.743,0.507-0.932,0.912v4.282h-1.811
				v-7.079h1.661v1.514c0.126-0.243,0.274-0.462,0.446-0.655c0.171-0.193,0.355-0.363,0.554-0.507s0.398-0.255,0.602-0.331
				c0.202-0.076,0.398-0.115,0.587-0.115c0.1,0,0.174,0,0.224,0c0.049,0,0.097,0.005,0.142,0.014V97.934z"/>
			<path fill="#2F89AF" d="M646.903,103.581c-0.567,0-1.081-0.097-1.54-0.29c-0.459-0.194-0.852-0.457-1.176-0.791
				c-0.324-0.333-0.574-0.721-0.749-1.162c-0.176-0.441-0.264-0.904-0.264-1.391c0-0.505,0.085-0.98,0.257-1.426
				c0.171-0.446,0.418-0.838,0.742-1.176c0.325-0.338,0.719-0.605,1.183-0.804s0.984-0.297,1.561-0.297s1.092,0.099,1.547,0.297
				s0.842,0.464,1.162,0.797c0.319,0.334,0.562,0.721,0.729,1.162c0.166,0.441,0.25,0.901,0.25,1.378
				c0,0.117-0.002,0.23-0.007,0.338c-0.005,0.108-0.016,0.198-0.034,0.271h-5.472c0.027,0.279,0.095,0.526,0.203,0.743
				c0.108,0.216,0.247,0.4,0.419,0.554c0.171,0.153,0.364,0.271,0.58,0.351c0.217,0.082,0.441,0.122,0.676,0.122
				c0.36,0,0.7-0.088,1.021-0.264c0.319-0.175,0.538-0.407,0.655-0.695l1.554,0.433c-0.262,0.54-0.678,0.983-1.25,1.33
				S647.696,103.581,646.903,103.581z M648.741,99.312c-0.046-0.531-0.241-0.957-0.588-1.276c-0.347-0.32-0.769-0.479-1.264-0.479
				c-0.243,0-0.471,0.042-0.682,0.128c-0.212,0.086-0.399,0.205-0.562,0.358s-0.295,0.337-0.398,0.554
				c-0.104,0.216-0.164,0.455-0.182,0.716H648.741z"/>
			<path fill="#2F89AF" d="M652.24,93.584h1.811v7.592c0,0.262,0.062,0.465,0.188,0.608S654.546,102,654.78,102
				c0.107,0,0.228-0.018,0.357-0.054c0.131-0.036,0.255-0.081,0.372-0.136l0.243,1.379c-0.243,0.117-0.527,0.207-0.852,0.27
				c-0.324,0.063-0.617,0.095-0.878,0.095c-0.567,0-1.007-0.15-1.317-0.452s-0.466-0.732-0.466-1.291V93.584z"/>
			<path fill="#2F89AF" d="M660.359,103.581c-0.567,0-1.081-0.097-1.54-0.29c-0.46-0.194-0.852-0.457-1.176-0.791
				c-0.324-0.333-0.574-0.721-0.749-1.162c-0.176-0.441-0.264-0.904-0.264-1.391c0-0.505,0.085-0.98,0.256-1.426
				c0.172-0.446,0.419-0.838,0.743-1.176c0.325-0.338,0.719-0.605,1.183-0.804s0.984-0.297,1.561-0.297s1.092,0.099,1.547,0.297
				s0.842,0.464,1.162,0.797c0.319,0.334,0.562,0.721,0.729,1.162c0.167,0.441,0.25,0.901,0.25,1.378
				c0,0.117-0.002,0.23-0.006,0.338c-0.005,0.108-0.016,0.198-0.034,0.271h-5.472c0.027,0.279,0.095,0.526,0.203,0.743
				c0.107,0.216,0.247,0.4,0.418,0.554c0.172,0.153,0.365,0.271,0.581,0.351c0.217,0.082,0.441,0.122,0.676,0.122
				c0.36,0,0.7-0.088,1.021-0.264c0.319-0.175,0.537-0.407,0.654-0.695l1.555,0.433c-0.262,0.54-0.678,0.983-1.25,1.33
				S661.152,103.581,660.359,103.581z M662.197,99.312c-0.046-0.531-0.242-0.957-0.588-1.276c-0.348-0.32-0.769-0.479-1.264-0.479
				c-0.243,0-0.471,0.042-0.682,0.128c-0.212,0.086-0.399,0.205-0.562,0.358s-0.295,0.337-0.398,0.554
				c-0.104,0.216-0.164,0.455-0.183,0.716H662.197z"/>
			<path fill="#2F89AF" d="M667.642,103.581c-0.343,0-0.662-0.057-0.96-0.169c-0.297-0.112-0.554-0.271-0.77-0.473
				c-0.217-0.203-0.385-0.439-0.507-0.709c-0.122-0.271-0.183-0.568-0.183-0.893c0-0.333,0.074-0.642,0.224-0.925
				c0.148-0.284,0.355-0.524,0.621-0.724c0.266-0.197,0.583-0.353,0.952-0.466c0.369-0.112,0.775-0.169,1.217-0.169
				c0.314,0,0.623,0.027,0.925,0.081c0.302,0.055,0.569,0.131,0.804,0.229v-0.404c0-0.469-0.133-0.829-0.398-1.081
				c-0.266-0.253-0.66-0.379-1.182-0.379c-0.379,0-0.748,0.067-1.108,0.203c-0.36,0.135-0.729,0.333-1.107,0.595l-0.554-1.148
				c0.909-0.604,1.891-0.905,2.945-0.905c1.018,0,1.808,0.25,2.371,0.749c0.562,0.5,0.844,1.223,0.844,2.169v2.202
				c0,0.189,0.034,0.324,0.102,0.405s0.178,0.126,0.331,0.136v1.539c-0.307,0.063-0.572,0.095-0.798,0.095
				c-0.342,0-0.605-0.076-0.79-0.229c-0.185-0.152-0.3-0.355-0.345-0.607l-0.04-0.393c-0.315,0.415-0.698,0.73-1.148,0.946
				S668.154,103.581,667.642,103.581z M668.154,102.257c0.307,0,0.597-0.054,0.872-0.162c0.274-0.108,0.488-0.252,0.642-0.433
				c0.198-0.152,0.297-0.324,0.297-0.513v-0.812c-0.216-0.08-0.45-0.146-0.702-0.195c-0.253-0.049-0.495-0.074-0.729-0.074
				c-0.469,0-0.852,0.105-1.148,0.317s-0.446,0.479-0.446,0.804c0,0.307,0.117,0.561,0.352,0.764
				C667.524,102.155,667.812,102.257,668.154,102.257z"/>
			<path fill="#2F89AF" d="M676.68,103.581c-0.595,0-1.176-0.095-1.743-0.284c-0.567-0.188-1.054-0.459-1.459-0.811l0.676-1.135
				c0.433,0.307,0.853,0.539,1.263,0.696s0.817,0.236,1.223,0.236c0.36,0,0.645-0.067,0.852-0.203
				c0.207-0.135,0.311-0.328,0.311-0.581c0-0.252-0.121-0.437-0.365-0.554c-0.242-0.116-0.639-0.252-1.188-0.405
				c-0.459-0.126-0.851-0.248-1.175-0.365c-0.324-0.116-0.586-0.249-0.784-0.398c-0.198-0.148-0.343-0.319-0.433-0.513
				c-0.09-0.194-0.135-0.426-0.135-0.696c0-0.359,0.07-0.684,0.209-0.973c0.141-0.288,0.336-0.533,0.588-0.736
				c0.252-0.202,0.548-0.357,0.885-0.466c0.338-0.108,0.705-0.162,1.102-0.162c0.531,0,1.029,0.077,1.493,0.229
				c0.464,0.153,0.89,0.4,1.276,0.743l-0.729,1.095c-0.36-0.271-0.709-0.469-1.047-0.595s-0.674-0.189-1.007-0.189
				c-0.307,0-0.562,0.063-0.77,0.189c-0.208,0.126-0.311,0.329-0.311,0.608c0,0.126,0.024,0.229,0.074,0.311
				c0.049,0.08,0.128,0.152,0.236,0.216c0.107,0.063,0.25,0.124,0.426,0.183c0.175,0.059,0.394,0.119,0.654,0.182
				c0.486,0.127,0.903,0.253,1.25,0.379s0.631,0.27,0.852,0.432s0.383,0.35,0.486,0.562s0.155,0.466,0.155,0.763
				c0,0.694-0.257,1.241-0.771,1.642C678.26,103.381,677.562,103.581,676.68,103.581z"/>
			<path fill="#2F89AF" d="M684.543,103.581c-0.568,0-1.081-0.097-1.541-0.29c-0.459-0.194-0.851-0.457-1.175-0.791
				c-0.324-0.333-0.574-0.721-0.75-1.162s-0.264-0.904-0.264-1.391c0-0.505,0.086-0.98,0.257-1.426
				c0.171-0.446,0.419-0.838,0.743-1.176s0.718-0.605,1.182-0.804s0.984-0.297,1.561-0.297s1.093,0.099,1.547,0.297
				c0.455,0.198,0.843,0.464,1.162,0.797c0.319,0.334,0.562,0.721,0.729,1.162s0.25,0.901,0.25,1.378
				c0,0.117-0.002,0.23-0.007,0.338c-0.005,0.108-0.016,0.198-0.034,0.271h-5.471c0.026,0.279,0.094,0.526,0.202,0.743
				c0.108,0.216,0.248,0.4,0.419,0.554s0.365,0.271,0.581,0.351c0.216,0.082,0.441,0.122,0.675,0.122
				c0.36,0,0.701-0.088,1.021-0.264c0.319-0.175,0.538-0.407,0.655-0.695l1.554,0.433c-0.261,0.54-0.678,0.983-1.25,1.33
				C686.018,103.407,685.335,103.581,684.543,103.581z M686.38,99.312c-0.045-0.531-0.241-0.957-0.588-1.276
				c-0.347-0.32-0.768-0.479-1.263-0.479c-0.244,0-0.471,0.042-0.683,0.128s-0.398,0.205-0.561,0.358s-0.296,0.337-0.398,0.554
				c-0.104,0.216-0.165,0.455-0.183,0.716H686.38z"/>
			<path fill="#2F89AF" d="M698.134,93.854l-6.701,9.592h-2l6.688-9.592H698.134z"/>
			<path fill="#2F89AF" d="M705.361,101.811v1.635h-5.431v-1.635h1.864v-6.241c-0.072,0.108-0.191,0.228-0.358,0.358
				s-0.355,0.256-0.567,0.378c-0.211,0.122-0.428,0.223-0.648,0.304s-0.421,0.122-0.601,0.122v-1.676
				c0.243,0,0.49-0.065,0.743-0.195c0.252-0.131,0.483-0.274,0.695-0.433c0.211-0.157,0.385-0.304,0.52-0.439
				c0.136-0.135,0.208-0.211,0.217-0.229h1.851v8.052H705.361z"/>
			<path fill="#2F89AF" d="M706.982,103.445V101.5h1.486v1.945H706.982z"/>
			<path fill="#2F89AF" d="M714.332,103.581c-0.685-0.009-1.285-0.164-1.804-0.466c-0.518-0.302-0.952-0.689-1.304-1.162
				s-0.614-0.995-0.79-1.567c-0.176-0.571-0.264-1.128-0.264-1.669c0-0.576,0.097-1.154,0.29-1.735
				c0.194-0.581,0.471-1.104,0.831-1.567s0.798-0.84,1.311-1.128c0.514-0.288,1.09-0.433,1.729-0.433
				c0.685,0,1.288,0.155,1.811,0.466c0.522,0.312,0.959,0.705,1.311,1.183s0.614,1.002,0.79,1.574
				c0.176,0.571,0.264,1.119,0.264,1.641c0,0.586-0.097,1.167-0.29,1.743c-0.194,0.577-0.471,1.097-0.832,1.561
				c-0.359,0.464-0.797,0.84-1.31,1.128C715.562,103.438,714.98,103.581,714.332,103.581z M712.049,98.717
				c0.009,0.379,0.061,0.757,0.155,1.135c0.095,0.379,0.234,0.724,0.419,1.034s0.419,0.563,0.703,0.757
				c0.283,0.193,0.619,0.29,1.006,0.29c0.405,0,0.752-0.104,1.04-0.311s0.524-0.471,0.71-0.79c0.184-0.32,0.321-0.667,0.412-1.041
				c0.09-0.373,0.135-0.731,0.135-1.074c0-0.378-0.05-0.756-0.148-1.135c-0.1-0.378-0.243-0.723-0.433-1.033
				s-0.428-0.562-0.716-0.757c-0.289-0.193-0.621-0.29-1-0.29c-0.396,0-0.738,0.104-1.026,0.311c-0.289,0.207-0.525,0.471-0.71,0.79
				c-0.185,0.32-0.322,0.669-0.412,1.048C712.094,98.028,712.049,98.384,712.049,98.717z"/>
			<path fill="#2F89AF" d="M720.223,103.445V101.5h1.486v1.945H720.223z"/>
			<path fill="#2F89AF" d="M727.572,103.581c-0.685-0.009-1.285-0.164-1.804-0.466c-0.518-0.302-0.952-0.689-1.304-1.162
				s-0.614-0.995-0.79-1.567c-0.176-0.571-0.264-1.128-0.264-1.669c0-0.576,0.097-1.154,0.29-1.735
				c0.194-0.581,0.471-1.104,0.831-1.567s0.798-0.84,1.311-1.128c0.514-0.288,1.09-0.433,1.729-0.433
				c0.685,0,1.288,0.155,1.811,0.466c0.522,0.312,0.959,0.705,1.311,1.183s0.614,1.002,0.79,1.574
				c0.176,0.571,0.264,1.119,0.264,1.641c0,0.586-0.097,1.167-0.29,1.743c-0.194,0.577-0.471,1.097-0.832,1.561
				c-0.359,0.464-0.797,0.84-1.31,1.128C728.802,103.438,728.221,103.581,727.572,103.581z M725.289,98.717
				c0.009,0.379,0.061,0.757,0.155,1.135c0.095,0.379,0.234,0.724,0.419,1.034s0.419,0.563,0.703,0.757
				c0.283,0.193,0.619,0.29,1.006,0.29c0.405,0,0.752-0.104,1.04-0.311s0.524-0.471,0.71-0.79c0.184-0.32,0.321-0.667,0.412-1.041
				c0.09-0.373,0.135-0.731,0.135-1.074c0-0.378-0.05-0.756-0.148-1.135c-0.1-0.378-0.243-0.723-0.433-1.033
				s-0.428-0.562-0.716-0.757c-0.289-0.193-0.621-0.29-1-0.29c-0.396,0-0.738,0.104-1.026,0.311c-0.289,0.207-0.525,0.471-0.71,0.79
				c-0.185,0.32-0.322,0.669-0.412,1.048C725.334,98.028,725.289,98.384,725.289,98.717z"/>
		</g>
	</g>
	<polygon fill="#FFFFFF" stroke="#C9C9C0" stroke-width="4" stroke-miterlimit="10" points="625.68,214.672 625.68,252.82 
		654.509,252.82 665.646,263.959 676.784,252.82 741.054,252.82 741.054,214.672 	"/>
	<g>
		<g>
			<path fill="#2F89AF" d="M642.418,232.334c-0.55,0.009-1.04,0.115-1.473,0.317c-0.433,0.203-0.743,0.507-0.932,0.912v4.282h-1.811
				v-7.079h1.661v1.514c0.126-0.243,0.274-0.462,0.446-0.655c0.171-0.193,0.355-0.363,0.554-0.507s0.398-0.255,0.602-0.331
				c0.202-0.076,0.398-0.115,0.587-0.115c0.1,0,0.174,0,0.224,0c0.049,0,0.097,0.005,0.142,0.014V232.334z"/>
			<path fill="#2F89AF" d="M646.903,237.981c-0.567,0-1.081-0.097-1.54-0.29c-0.459-0.194-0.852-0.457-1.176-0.791
				c-0.324-0.333-0.574-0.721-0.749-1.162c-0.176-0.441-0.264-0.904-0.264-1.391c0-0.505,0.085-0.98,0.257-1.426
				c0.171-0.446,0.418-0.838,0.742-1.176c0.325-0.338,0.719-0.605,1.183-0.804s0.984-0.297,1.561-0.297s1.092,0.099,1.547,0.297
				s0.842,0.464,1.162,0.797c0.319,0.334,0.562,0.721,0.729,1.162c0.166,0.441,0.25,0.901,0.25,1.378
				c0,0.117-0.002,0.23-0.007,0.338c-0.005,0.108-0.016,0.198-0.034,0.271h-5.472c0.027,0.279,0.095,0.526,0.203,0.743
				c0.108,0.216,0.247,0.4,0.419,0.554c0.171,0.153,0.364,0.271,0.58,0.351c0.217,0.082,0.441,0.122,0.676,0.122
				c0.36,0,0.7-0.088,1.021-0.264c0.319-0.175,0.538-0.407,0.655-0.695l1.554,0.433c-0.262,0.54-0.678,0.983-1.25,1.33
				S647.696,237.981,646.903,237.981z M648.741,233.712c-0.046-0.531-0.241-0.957-0.588-1.276c-0.347-0.32-0.769-0.479-1.264-0.479
				c-0.243,0-0.471,0.042-0.682,0.128c-0.212,0.086-0.399,0.205-0.562,0.358s-0.295,0.337-0.398,0.554
				c-0.104,0.216-0.164,0.455-0.182,0.716H648.741z"/>
			<path fill="#2F89AF" d="M652.24,227.984h1.811v7.592c0,0.262,0.062,0.465,0.188,0.608s0.307,0.216,0.541,0.216
				c0.107,0,0.228-0.018,0.357-0.054c0.131-0.036,0.255-0.081,0.372-0.136l0.243,1.379c-0.243,0.117-0.527,0.207-0.852,0.27
				c-0.324,0.063-0.617,0.095-0.878,0.095c-0.567,0-1.007-0.15-1.317-0.452s-0.466-0.732-0.466-1.291V227.984z"/>
			<path fill="#2F89AF" d="M660.359,237.981c-0.567,0-1.081-0.097-1.54-0.29c-0.46-0.194-0.852-0.457-1.176-0.791
				c-0.324-0.333-0.574-0.721-0.749-1.162c-0.176-0.441-0.264-0.904-0.264-1.391c0-0.505,0.085-0.98,0.256-1.426
				c0.172-0.446,0.419-0.838,0.743-1.176c0.325-0.338,0.719-0.605,1.183-0.804s0.984-0.297,1.561-0.297s1.092,0.099,1.547,0.297
				s0.842,0.464,1.162,0.797c0.319,0.334,0.562,0.721,0.729,1.162c0.167,0.441,0.25,0.901,0.25,1.378
				c0,0.117-0.002,0.23-0.006,0.338c-0.005,0.108-0.016,0.198-0.034,0.271h-5.472c0.027,0.279,0.095,0.526,0.203,0.743
				c0.107,0.216,0.247,0.4,0.418,0.554c0.172,0.153,0.365,0.271,0.581,0.351c0.217,0.082,0.441,0.122,0.676,0.122
				c0.36,0,0.7-0.088,1.021-0.264c0.319-0.175,0.537-0.407,0.654-0.695l1.555,0.433c-0.262,0.54-0.678,0.983-1.25,1.33
				S661.152,237.981,660.359,237.981z M662.197,233.712c-0.046-0.531-0.242-0.957-0.588-1.276c-0.348-0.32-0.769-0.479-1.264-0.479
				c-0.243,0-0.471,0.042-0.682,0.128c-0.212,0.086-0.399,0.205-0.562,0.358s-0.295,0.337-0.398,0.554
				c-0.104,0.216-0.164,0.455-0.183,0.716H662.197z"/>
			<path fill="#2F89AF" d="M667.642,237.981c-0.343,0-0.662-0.057-0.96-0.169c-0.297-0.112-0.554-0.271-0.77-0.473
				c-0.217-0.203-0.385-0.439-0.507-0.709c-0.122-0.271-0.183-0.568-0.183-0.893c0-0.333,0.074-0.642,0.224-0.925
				c0.148-0.284,0.355-0.524,0.621-0.724c0.266-0.197,0.583-0.353,0.952-0.466c0.369-0.112,0.775-0.169,1.217-0.169
				c0.314,0,0.623,0.027,0.925,0.081c0.302,0.055,0.569,0.131,0.804,0.229v-0.404c0-0.469-0.133-0.829-0.398-1.081
				c-0.266-0.253-0.66-0.379-1.182-0.379c-0.379,0-0.748,0.067-1.108,0.203c-0.36,0.135-0.729,0.333-1.107,0.595l-0.554-1.148
				c0.909-0.604,1.891-0.905,2.945-0.905c1.018,0,1.808,0.25,2.371,0.749c0.562,0.5,0.844,1.223,0.844,2.169v2.202
				c0,0.189,0.034,0.324,0.102,0.405s0.178,0.126,0.331,0.136v1.539c-0.307,0.063-0.572,0.095-0.798,0.095
				c-0.342,0-0.605-0.076-0.79-0.229c-0.185-0.152-0.3-0.355-0.345-0.607l-0.04-0.393c-0.315,0.415-0.698,0.73-1.148,0.946
				S668.154,237.981,667.642,237.981z M668.154,236.657c0.307,0,0.597-0.054,0.872-0.162c0.274-0.108,0.488-0.252,0.642-0.433
				c0.198-0.152,0.297-0.324,0.297-0.513v-0.812c-0.216-0.08-0.45-0.146-0.702-0.195c-0.253-0.049-0.495-0.074-0.729-0.074
				c-0.469,0-0.852,0.105-1.148,0.317s-0.446,0.479-0.446,0.804c0,0.307,0.117,0.561,0.352,0.764
				C667.524,236.556,667.812,236.657,668.154,236.657z"/>
			<path fill="#2F89AF" d="M676.68,237.981c-0.595,0-1.176-0.095-1.743-0.284c-0.567-0.188-1.054-0.459-1.459-0.811l0.676-1.135
				c0.433,0.307,0.853,0.539,1.263,0.696s0.817,0.236,1.223,0.236c0.36,0,0.645-0.067,0.852-0.203
				c0.207-0.135,0.311-0.328,0.311-0.581c0-0.252-0.121-0.437-0.365-0.554c-0.242-0.116-0.639-0.252-1.188-0.405
				c-0.459-0.126-0.851-0.248-1.175-0.365c-0.324-0.116-0.586-0.249-0.784-0.398c-0.198-0.148-0.343-0.319-0.433-0.513
				c-0.09-0.194-0.135-0.426-0.135-0.696c0-0.359,0.07-0.684,0.209-0.973c0.141-0.288,0.336-0.533,0.588-0.736
				c0.252-0.202,0.548-0.357,0.885-0.466c0.338-0.108,0.705-0.162,1.102-0.162c0.531,0,1.029,0.077,1.493,0.229
				c0.464,0.153,0.89,0.4,1.276,0.743l-0.729,1.095c-0.36-0.271-0.709-0.469-1.047-0.595s-0.674-0.189-1.007-0.189
				c-0.307,0-0.562,0.063-0.77,0.189c-0.208,0.126-0.311,0.329-0.311,0.608c0,0.126,0.024,0.229,0.074,0.311
				c0.049,0.08,0.128,0.152,0.236,0.216c0.107,0.063,0.25,0.124,0.426,0.183c0.175,0.059,0.394,0.119,0.654,0.182
				c0.486,0.127,0.903,0.253,1.25,0.379s0.631,0.27,0.852,0.432s0.383,0.35,0.486,0.562s0.155,0.466,0.155,0.763
				c0,0.694-0.257,1.241-0.771,1.642C678.26,237.781,677.562,237.981,676.68,237.981z"/>
			<path fill="#2F89AF" d="M684.543,237.981c-0.568,0-1.081-0.097-1.541-0.29c-0.459-0.194-0.851-0.457-1.175-0.791
				c-0.324-0.333-0.574-0.721-0.75-1.162s-0.264-0.904-0.264-1.391c0-0.505,0.086-0.98,0.257-1.426
				c0.171-0.446,0.419-0.838,0.743-1.176s0.718-0.605,1.182-0.804s0.984-0.297,1.561-0.297s1.093,0.099,1.547,0.297
				c0.455,0.198,0.843,0.464,1.162,0.797c0.319,0.334,0.562,0.721,0.729,1.162s0.25,0.901,0.25,1.378
				c0,0.117-0.002,0.23-0.007,0.338c-0.005,0.108-0.016,0.198-0.034,0.271h-5.471c0.026,0.279,0.094,0.526,0.202,0.743
				c0.108,0.216,0.248,0.4,0.419,0.554s0.365,0.271,0.581,0.351c0.216,0.082,0.441,0.122,0.675,0.122
				c0.36,0,0.701-0.088,1.021-0.264c0.319-0.175,0.538-0.407,0.655-0.695l1.554,0.433c-0.261,0.54-0.678,0.983-1.25,1.33
				C686.018,237.808,685.335,237.981,684.543,237.981z M686.38,233.712c-0.045-0.531-0.241-0.957-0.588-1.276
				c-0.347-0.32-0.768-0.479-1.263-0.479c-0.244,0-0.471,0.042-0.683,0.128s-0.398,0.205-0.561,0.358s-0.296,0.337-0.398,0.554
				c-0.104,0.216-0.165,0.455-0.183,0.716H686.38z"/>
			<path fill="#2F89AF" d="M698.134,228.254l-6.701,9.592h-2l6.688-9.592H698.134z"/>
			<path fill="#2F89AF" d="M705.361,236.211v1.635h-5.431v-1.635h1.864v-6.241c-0.072,0.108-0.191,0.228-0.358,0.358
				s-0.355,0.256-0.567,0.378c-0.211,0.122-0.428,0.223-0.648,0.304s-0.421,0.122-0.601,0.122v-1.676
				c0.243,0,0.49-0.065,0.743-0.195c0.252-0.131,0.483-0.274,0.695-0.433c0.211-0.157,0.385-0.304,0.52-0.439
				c0.136-0.135,0.208-0.211,0.217-0.229h1.851v8.052H705.361z"/>
			<path fill="#2F89AF" d="M706.982,237.846V235.9h1.486v1.945H706.982z"/>
			<path fill="#2F89AF" d="M714.332,237.981c-0.685-0.009-1.285-0.164-1.804-0.466c-0.518-0.302-0.952-0.689-1.304-1.162
				s-0.614-0.995-0.79-1.567c-0.176-0.571-0.264-1.128-0.264-1.669c0-0.576,0.097-1.154,0.29-1.735
				c0.194-0.581,0.471-1.104,0.831-1.567s0.798-0.84,1.311-1.128c0.514-0.288,1.09-0.433,1.729-0.433
				c0.685,0,1.288,0.155,1.811,0.466c0.522,0.312,0.959,0.705,1.311,1.183s0.614,1.002,0.79,1.574
				c0.176,0.571,0.264,1.119,0.264,1.641c0,0.586-0.097,1.167-0.29,1.743c-0.194,0.577-0.471,1.097-0.832,1.561
				c-0.359,0.464-0.797,0.84-1.31,1.128C715.562,237.838,714.98,237.981,714.332,237.981z M712.049,233.117
				c0.009,0.379,0.061,0.757,0.155,1.135c0.095,0.379,0.234,0.724,0.419,1.034s0.419,0.563,0.703,0.757
				c0.283,0.193,0.619,0.29,1.006,0.29c0.405,0,0.752-0.104,1.04-0.311s0.524-0.471,0.71-0.79c0.184-0.32,0.321-0.667,0.412-1.041
				c0.09-0.373,0.135-0.731,0.135-1.074c0-0.378-0.05-0.756-0.148-1.135c-0.1-0.378-0.243-0.723-0.433-1.033
				s-0.428-0.562-0.716-0.757c-0.289-0.193-0.621-0.29-1-0.29c-0.396,0-0.738,0.104-1.026,0.311c-0.289,0.207-0.525,0.471-0.71,0.79
				c-0.185,0.32-0.322,0.669-0.412,1.048C712.094,232.429,712.049,232.784,712.049,233.117z"/>
			<path fill="#2F89AF" d="M720.223,237.846V235.9h1.486v1.945H720.223z"/>
			<path fill="#2F89AF" d="M729.342,236.211v1.635h-5.432v-1.635h1.865v-6.241c-0.072,0.108-0.191,0.228-0.358,0.358
				s-0.355,0.256-0.567,0.378s-0.428,0.223-0.648,0.304s-0.421,0.122-0.602,0.122v-1.676c0.244,0,0.491-0.065,0.743-0.195
				c0.252-0.131,0.484-0.274,0.696-0.433c0.211-0.157,0.385-0.304,0.52-0.439c0.136-0.135,0.207-0.211,0.217-0.229h1.851v8.052
				H729.342z"/>
		</g>
	</g>
	<line fill="none" stroke="#C9C9C0" stroke-width="4" stroke-miterlimit="10" x1="138.243" y1="195.48" x2="138.243" y2="212.789"/>
	<line fill="none" stroke="#C9C9C0" stroke-width="4" stroke-miterlimit="10" x1="349.34" y1="195.48" x2="349.34" y2="212.789"/>
	<line fill="none" stroke="#C9C9C0" stroke-width="4" stroke-miterlimit="10" x1="454.949" y1="195.48" x2="454.949" y2="212.789"/>
</g>
</svg>
